G04 start of page 3 for group 5 idx 5 *
G04 Title: (unknown), bottom *
G04 Creator: pcb 20140316 *
G04 CreationDate: Δευ 14 Μάρ 2016 08:13:14 μμ GMT UTC *
G04 For: mobintu *
G04 Format: Gerber/RS-274X *
G04 PCB-Dimensions (mm): 100.00 100.00 *
G04 PCB-Coordinate-Origin: lower left *
%MOMM*%
%FSLAX43Y43*%
%LNBOTTOM*%
%ADD99C,0.965*%
%ADD98C,2.000*%
%ADD97C,0.300*%
%ADD96C,0.250*%
%ADD95C,3.100*%
%ADD94C,4.000*%
%ADD93C,0.700*%
%ADD92C,6.700*%
%ADD91C,6.900*%
%ADD90C,3.800*%
%ADD89C,0.650*%
%ADD88C,7.500*%
%ADD87R,0.300X0.300*%
%ADD86R,0.750X0.750*%
%ADD85C,1.500*%
%ADD84C,1.524*%
%ADD83C,1.350*%
%ADD82C,0.454*%
%ADD81C,0.250*%
%ADD80C,0.407*%
%ADD79C,0.500*%
%ADD78C,0.800*%
%ADD77C,1.000*%
%ADD76C,0.300*%
%ADD75C,0.400*%
%ADD74C,0.200*%
%ADD73C,0.600*%
%ADD72C,0.327*%
%ADD71C,0.002*%
%ADD70C,0.200*%
%ADD69C,0.200*%
G54D69*X3900Y84100D02*X5400D01*
X15400Y95600D02*Y94100D01*
X84900D01*
X3900Y84100D02*Y95600D01*
X15400D01*
X84900Y94100D02*Y95600D01*
X94900Y84100D02*Y14600D01*
Y84100D02*X96400D01*
G54D70*Y14600D02*X94900D01*
G54D69*X84900Y95600D02*X96400D01*
Y84100D01*
X5400Y14600D02*X3900D01*
X15400Y3100D02*Y4600D01*
X3900Y3100D02*X15400D01*
X3900D02*Y14600D01*
X5400Y84100D02*Y14600D01*
X15400Y4600D02*X84900D01*
Y3100D01*
X96400D01*
Y14600D01*
G54D71*G36*
X68400Y28400D02*X79400D01*
Y22600D01*
X68400D01*
Y28400D01*
G37*
G36*
X75462Y44597D02*X76122Y44599D01*
X76169Y44610D01*
X76213Y44629D01*
X76254Y44654D01*
X76290Y44685D01*
X76321Y44721D01*
X76346Y44762D01*
X76365Y44806D01*
X76376Y44853D01*
X76379Y44900D01*
X76379Y44920D01*
X76450Y44937D01*
X76521Y44967D01*
X76586Y45006D01*
X76643Y45057D01*
X78226Y46640D01*
X78851D01*
X76939Y44728D01*
X76930Y44720D01*
X76898Y44683D01*
X76873Y44641D01*
X76854Y44596D01*
X76843Y44549D01*
X76843Y44549D01*
X76839Y44500D01*
X76840Y44488D01*
Y42729D01*
X76021Y41910D01*
X75462D01*
Y44597D01*
G37*
G36*
Y48522D02*X76126Y48524D01*
X76177Y48536D01*
X76225Y48556D01*
X76269Y48583D01*
X76308Y48617D01*
X76342Y48656D01*
X76369Y48700D01*
X76389Y48748D01*
X76401Y48799D01*
X76404Y48850D01*
X76403Y48965D01*
X76658D01*
X76652Y48943D01*
X76650Y48900D01*
X76652Y48557D01*
X76663Y48515D01*
X76665Y48509D01*
X76644Y48507D01*
X76644Y48507D01*
X76643Y48507D01*
X76626Y48503D01*
X76588Y48494D01*
X76588Y48494D01*
X76588Y48494D01*
X76570Y48486D01*
X76536Y48472D01*
X76536Y48472D01*
X76536Y48472D01*
X76515Y48459D01*
X76488Y48442D01*
X76488Y48442D01*
X76488Y48442D01*
X76445Y48406D01*
X76435Y48395D01*
X76425Y48385D01*
X76400Y48387D01*
X76316Y48380D01*
X76234Y48360D01*
X76156Y48328D01*
X76084Y48284D01*
X76020Y48230D01*
X75966Y48166D01*
X75922Y48094D01*
X75889Y48016D01*
X75870Y47934D01*
X75863Y47850D01*
X75870Y47766D01*
X75889Y47684D01*
X75922Y47606D01*
X75966Y47535D01*
X76020Y47471D01*
X76084Y47416D01*
X76086Y47415D01*
X76070Y47405D01*
X76003Y47347D01*
X75945Y47280D01*
X75899Y47205D01*
X75866Y47124D01*
X75845Y47038D01*
X75838Y46950D01*
X75845Y46862D01*
X75866Y46777D01*
X75899Y46695D01*
X75945Y46620D01*
X76003Y46553D01*
X76070Y46496D01*
X76145Y46450D01*
X76226Y46416D01*
X76312Y46395D01*
X76400Y46388D01*
X76488Y46395D01*
X76573Y46416D01*
X76655Y46450D01*
X76677Y46463D01*
X76308Y46095D01*
X76290Y46116D01*
X76254Y46147D01*
X76213Y46172D01*
X76169Y46190D01*
X76122Y46201D01*
X76075Y46204D01*
X75462Y46202D01*
Y48522D01*
G37*
G36*
X89200Y95348D02*X96147D01*
Y84352D01*
X95043D01*
X95032Y84359D01*
X94990Y84377D01*
X94945Y84387D01*
X94900Y84391D01*
X94854Y84387D01*
X94810Y84377D01*
X94768Y84359D01*
X94729Y84335D01*
X94694Y84306D01*
X94664Y84271D01*
X94641Y84232D01*
X94623Y84190D01*
X94612Y84146D01*
X94610Y84100D01*
Y14710D01*
X94604Y14696D01*
X94593Y14649D01*
X94589Y14600D01*
X94593Y14551D01*
X94604Y14504D01*
X94623Y14459D01*
X94648Y14417D01*
X94680Y14380D01*
X94717Y14348D01*
X94759Y14323D01*
X94804Y14304D01*
X94851Y14293D01*
X94900Y14290D01*
X96147D01*
Y3352D01*
X89200D01*
Y20059D01*
X89232Y20096D01*
X89316Y20233D01*
X89378Y20382D01*
X89415Y20539D01*
X89425Y20700D01*
X89415Y20861D01*
X89378Y21018D01*
X89316Y21167D01*
X89232Y21304D01*
X89200Y21342D01*
Y22150D01*
X89219Y22151D01*
X89239Y22156D01*
X89257Y22163D01*
X89273Y22174D01*
X89288Y22186D01*
X89301Y22201D01*
X89311Y22218D01*
X89319Y22236D01*
X89324Y22255D01*
X89325Y22275D01*
Y23125D01*
X89324Y23145D01*
X89319Y23164D01*
X89311Y23182D01*
X89301Y23199D01*
X89288Y23214D01*
X89273Y23227D01*
X89257Y23237D01*
X89239Y23244D01*
X89219Y23249D01*
X89200Y23251D01*
Y29597D01*
X89211Y29611D01*
X89293Y29745D01*
X89354Y29890D01*
X89390Y30043D01*
X89400Y30200D01*
X89390Y30357D01*
X89354Y30510D01*
X89293Y30655D01*
X89211Y30790D01*
X89200Y30803D01*
Y31650D01*
X89219Y31651D01*
X89239Y31656D01*
X89257Y31663D01*
X89273Y31674D01*
X89288Y31686D01*
X89301Y31701D01*
X89311Y31718D01*
X89319Y31736D01*
X89324Y31755D01*
X89325Y31775D01*
Y32625D01*
X89324Y32645D01*
X89319Y32664D01*
X89311Y32682D01*
X89301Y32699D01*
X89288Y32714D01*
X89273Y32727D01*
X89257Y32737D01*
X89239Y32744D01*
X89219Y32749D01*
X89200Y32751D01*
Y95348D01*
G37*
G36*
Y21342D02*X89127Y21427D01*
X89004Y21532D01*
X88867Y21616D01*
X88717Y21678D01*
X88561Y21715D01*
X88400Y21728D01*
Y21775D01*
X88825D01*
X88844Y21776D01*
X88864Y21781D01*
X88882Y21788D01*
X88899Y21799D01*
X88914Y21811D01*
X88926Y21826D01*
X88937Y21843D01*
X88944Y21861D01*
X88949Y21881D01*
X88950Y21900D01*
X88949Y21920D01*
X88944Y21939D01*
X88937Y21957D01*
X88926Y21974D01*
X88914Y21989D01*
X88899Y22002D01*
X88882Y22012D01*
X88864Y22019D01*
X88844Y22024D01*
X88825Y22025D01*
X88400D01*
Y23375D01*
X88825D01*
X88844Y23376D01*
X88864Y23381D01*
X88882Y23388D01*
X88899Y23399D01*
X88914Y23411D01*
X88926Y23426D01*
X88937Y23443D01*
X88944Y23461D01*
X88949Y23480D01*
X88950Y23500D01*
X88949Y23520D01*
X88944Y23539D01*
X88937Y23557D01*
X88926Y23574D01*
X88914Y23589D01*
X88899Y23601D01*
X88882Y23612D01*
X88864Y23619D01*
X88844Y23624D01*
X88825Y23625D01*
X88400D01*
Y29197D01*
X88557Y29209D01*
X88710Y29246D01*
X88855Y29306D01*
X88989Y29389D01*
X89109Y29491D01*
X89200Y29597D01*
Y23251D01*
X89180Y23249D01*
X89161Y23244D01*
X89143Y23237D01*
X89126Y23227D01*
X89111Y23214D01*
X89098Y23199D01*
X89088Y23182D01*
X89081Y23164D01*
X89076Y23145D01*
X89075Y23125D01*
Y22275D01*
X89076Y22255D01*
X89081Y22236D01*
X89088Y22218D01*
X89098Y22201D01*
X89111Y22186D01*
X89126Y22174D01*
X89143Y22163D01*
X89161Y22156D01*
X89180Y22151D01*
X89200Y22150D01*
Y21342D01*
G37*
G36*
Y3352D02*X88400D01*
Y19672D01*
X88561Y19685D01*
X88717Y19722D01*
X88867Y19784D01*
X89004Y19868D01*
X89127Y19973D01*
X89200Y20059D01*
Y3352D01*
G37*
G36*
X88400Y95348D02*X89200D01*
Y32751D01*
X89180Y32749D01*
X89161Y32744D01*
X89143Y32737D01*
X89126Y32727D01*
X89111Y32714D01*
X89098Y32699D01*
X89088Y32682D01*
X89081Y32664D01*
X89076Y32645D01*
X89075Y32625D01*
Y31775D01*
X89076Y31755D01*
X89081Y31736D01*
X89088Y31718D01*
X89098Y31701D01*
X89111Y31686D01*
X89126Y31674D01*
X89143Y31663D01*
X89161Y31656D01*
X89180Y31651D01*
X89200Y31650D01*
Y30803D01*
X89109Y30909D01*
X88989Y31012D01*
X88855Y31094D01*
X88710Y31154D01*
X88557Y31191D01*
X88400Y31203D01*
Y31275D01*
X88825D01*
X88844Y31276D01*
X88864Y31281D01*
X88882Y31288D01*
X88899Y31299D01*
X88914Y31311D01*
X88926Y31326D01*
X88937Y31343D01*
X88944Y31361D01*
X88949Y31381D01*
X88950Y31400D01*
X88949Y31420D01*
X88944Y31439D01*
X88937Y31457D01*
X88926Y31474D01*
X88914Y31489D01*
X88899Y31502D01*
X88882Y31512D01*
X88864Y31519D01*
X88844Y31524D01*
X88825Y31525D01*
X88400D01*
Y32875D01*
X88825D01*
X88844Y32876D01*
X88864Y32881D01*
X88882Y32888D01*
X88899Y32899D01*
X88914Y32911D01*
X88926Y32926D01*
X88937Y32943D01*
X88944Y32961D01*
X88949Y32980D01*
X88950Y33000D01*
X88949Y33020D01*
X88944Y33039D01*
X88937Y33057D01*
X88926Y33074D01*
X88914Y33089D01*
X88899Y33101D01*
X88882Y33112D01*
X88864Y33119D01*
X88844Y33124D01*
X88825Y33125D01*
X88400D01*
Y95348D01*
G37*
G36*
X87600Y20059D02*X87673Y19973D01*
X87796Y19868D01*
X87933Y19784D01*
X88082Y19722D01*
X88239Y19685D01*
X88400Y19672D01*
X88400D01*
Y3352D01*
X87600D01*
Y20059D01*
G37*
G36*
Y29597D02*X87691Y29491D01*
X87810Y29389D01*
X87944Y29306D01*
X88090Y29246D01*
X88243Y29209D01*
X88400Y29197D01*
X88400D01*
Y23625D01*
X87975D01*
X87955Y23624D01*
X87936Y23619D01*
X87918Y23612D01*
X87901Y23601D01*
X87886Y23589D01*
X87873Y23574D01*
X87863Y23557D01*
X87856Y23539D01*
X87851Y23520D01*
X87849Y23500D01*
X87851Y23480D01*
X87856Y23461D01*
X87863Y23443D01*
X87873Y23426D01*
X87886Y23411D01*
X87901Y23399D01*
X87918Y23388D01*
X87936Y23381D01*
X87955Y23376D01*
X87975Y23375D01*
X88400D01*
Y22025D01*
X87975D01*
X87955Y22024D01*
X87936Y22019D01*
X87918Y22012D01*
X87901Y22002D01*
X87886Y21989D01*
X87873Y21974D01*
X87863Y21957D01*
X87856Y21939D01*
X87851Y21920D01*
X87849Y21900D01*
X87851Y21881D01*
X87856Y21861D01*
X87863Y21843D01*
X87873Y21826D01*
X87886Y21811D01*
X87901Y21799D01*
X87918Y21788D01*
X87936Y21781D01*
X87955Y21776D01*
X87975Y21775D01*
X88400D01*
Y21728D01*
X88400D01*
X88239Y21715D01*
X88082Y21678D01*
X87933Y21616D01*
X87796Y21532D01*
X87673Y21427D01*
X87600Y21342D01*
Y22150D01*
X87619Y22151D01*
X87639Y22156D01*
X87657Y22163D01*
X87674Y22174D01*
X87688Y22186D01*
X87701Y22201D01*
X87712Y22218D01*
X87719Y22236D01*
X87724Y22255D01*
X87725Y22275D01*
Y23125D01*
X87724Y23145D01*
X87719Y23164D01*
X87712Y23182D01*
X87701Y23199D01*
X87688Y23214D01*
X87674Y23227D01*
X87657Y23237D01*
X87639Y23244D01*
X87619Y23249D01*
X87600Y23251D01*
Y29597D01*
G37*
G36*
Y95348D02*X88400D01*
Y33125D01*
X87975D01*
X87955Y33124D01*
X87936Y33119D01*
X87918Y33112D01*
X87901Y33101D01*
X87886Y33089D01*
X87873Y33074D01*
X87863Y33057D01*
X87856Y33039D01*
X87851Y33020D01*
X87849Y33000D01*
X87851Y32980D01*
X87856Y32961D01*
X87863Y32943D01*
X87873Y32926D01*
X87886Y32911D01*
X87901Y32899D01*
X87918Y32888D01*
X87936Y32881D01*
X87955Y32876D01*
X87975Y32875D01*
X88400D01*
Y31525D01*
X87975D01*
X87955Y31524D01*
X87936Y31519D01*
X87918Y31512D01*
X87901Y31502D01*
X87886Y31489D01*
X87873Y31474D01*
X87863Y31457D01*
X87856Y31439D01*
X87851Y31420D01*
X87849Y31400D01*
X87851Y31381D01*
X87856Y31361D01*
X87863Y31343D01*
X87873Y31326D01*
X87886Y31311D01*
X87901Y31299D01*
X87918Y31288D01*
X87936Y31281D01*
X87955Y31276D01*
X87975Y31275D01*
X88400D01*
Y31203D01*
X88400D01*
X88243Y31191D01*
X88090Y31154D01*
X87944Y31094D01*
X87810Y31012D01*
X87691Y30909D01*
X87600Y30803D01*
Y31650D01*
X87619Y31651D01*
X87639Y31656D01*
X87657Y31663D01*
X87674Y31674D01*
X87688Y31686D01*
X87701Y31701D01*
X87712Y31718D01*
X87719Y31736D01*
X87724Y31755D01*
X87725Y31775D01*
Y32625D01*
X87724Y32645D01*
X87719Y32664D01*
X87712Y32682D01*
X87701Y32699D01*
X87688Y32714D01*
X87674Y32727D01*
X87657Y32737D01*
X87639Y32744D01*
X87619Y32749D01*
X87600Y32751D01*
Y95348D01*
G37*
G36*
X86400Y19697D02*X86557Y19709D01*
X86710Y19746D01*
X86855Y19806D01*
X86989Y19889D01*
X87109Y19991D01*
X87211Y20111D01*
X87293Y20245D01*
X87354Y20390D01*
X87387Y20529D01*
X87422Y20382D01*
X87484Y20233D01*
X87568Y20096D01*
X87600Y20059D01*
Y3352D01*
X86400D01*
Y19697D01*
G37*
G36*
X87122Y29506D02*X87211Y29611D01*
X87293Y29745D01*
X87354Y29890D01*
X87390Y30043D01*
X87398Y30179D01*
X87409Y30043D01*
X87446Y29890D01*
X87506Y29745D01*
X87588Y29611D01*
X87600Y29597D01*
Y23251D01*
X87580Y23249D01*
X87561Y23244D01*
X87543Y23237D01*
X87526Y23227D01*
X87511Y23214D01*
X87498Y23199D01*
X87488Y23182D01*
X87481Y23164D01*
X87476Y23145D01*
X87475Y23125D01*
Y22275D01*
X87476Y22255D01*
X87481Y22236D01*
X87488Y22218D01*
X87498Y22201D01*
X87511Y22186D01*
X87526Y22174D01*
X87543Y22163D01*
X87561Y22156D01*
X87580Y22151D01*
X87600Y22150D01*
Y21342D01*
X87568Y21304D01*
X87484Y21167D01*
X87422Y21018D01*
X87387Y20872D01*
X87354Y21010D01*
X87293Y21155D01*
X87211Y21290D01*
X87122Y21394D01*
Y22225D01*
X87124Y22226D01*
X87136Y22235D01*
X87147Y22247D01*
X87156Y22260D01*
X87192Y22327D01*
X87222Y22398D01*
X87245Y22472D01*
X87262Y22547D01*
X87272Y22623D01*
X87276Y22700D01*
X87272Y22777D01*
X87262Y22853D01*
X87245Y22928D01*
X87222Y23002D01*
X87192Y23073D01*
X87157Y23141D01*
X87148Y23154D01*
X87137Y23165D01*
X87124Y23175D01*
X87122Y23176D01*
Y29506D01*
G37*
G36*
X86400Y29197D02*X86557Y29209D01*
X86710Y29246D01*
X86855Y29306D01*
X86989Y29389D01*
X87109Y29491D01*
X87122Y29506D01*
Y23176D01*
X87110Y23183D01*
X87095Y23188D01*
X87080Y23191D01*
X87064Y23191D01*
X87048Y23189D01*
X87033Y23184D01*
X87019Y23177D01*
X87006Y23168D01*
X86994Y23157D01*
X86985Y23145D01*
X86977Y23131D01*
X86972Y23116D01*
X86969Y23100D01*
X86969Y23084D01*
X86971Y23069D01*
X86975Y23054D01*
X86983Y23040D01*
X87011Y22987D01*
X87034Y22933D01*
X87051Y22876D01*
X87064Y22818D01*
X87072Y22759D01*
X87075Y22700D01*
X87072Y22641D01*
X87064Y22582D01*
X87051Y22524D01*
X87034Y22468D01*
X87011Y22413D01*
X86983Y22360D01*
X86976Y22346D01*
X86971Y22331D01*
X86969Y22316D01*
X86970Y22300D01*
X86972Y22284D01*
X86978Y22270D01*
X86985Y22256D01*
X86995Y22243D01*
X87006Y22232D01*
X87019Y22223D01*
X87033Y22217D01*
X87048Y22212D01*
X87064Y22210D01*
X87080Y22210D01*
X87095Y22213D01*
X87110Y22218D01*
X87122Y22225D01*
Y21394D01*
X87109Y21409D01*
X86989Y21512D01*
X86855Y21594D01*
X86710Y21654D01*
X86557Y21691D01*
X86400Y21703D01*
Y21824D01*
X86477Y21828D01*
X86553Y21838D01*
X86628Y21855D01*
X86701Y21878D01*
X86772Y21908D01*
X86841Y21943D01*
X86854Y21952D01*
X86865Y21963D01*
X86875Y21976D01*
X86882Y21990D01*
X86887Y22005D01*
X86890Y22020D01*
X86891Y22036D01*
X86888Y22052D01*
X86884Y22067D01*
X86877Y22081D01*
X86868Y22094D01*
X86857Y22106D01*
X86844Y22115D01*
X86831Y22123D01*
X86816Y22128D01*
X86800Y22131D01*
X86784Y22131D01*
X86768Y22129D01*
X86753Y22125D01*
X86739Y22117D01*
X86687Y22089D01*
X86632Y22066D01*
X86576Y22048D01*
X86518Y22036D01*
X86459Y22028D01*
X86400Y22025D01*
Y23375D01*
X86459Y23372D01*
X86518Y23365D01*
X86576Y23352D01*
X86632Y23334D01*
X86687Y23311D01*
X86740Y23283D01*
X86754Y23276D01*
X86769Y23272D01*
X86784Y23270D01*
X86800Y23270D01*
X86815Y23273D01*
X86830Y23278D01*
X86844Y23285D01*
X86857Y23295D01*
X86868Y23306D01*
X86876Y23319D01*
X86883Y23333D01*
X86888Y23349D01*
X86890Y23364D01*
X86890Y23380D01*
X86887Y23395D01*
X86882Y23410D01*
X86874Y23424D01*
X86865Y23437D01*
X86853Y23447D01*
X86840Y23456D01*
X86772Y23493D01*
X86701Y23522D01*
X86628Y23546D01*
X86553Y23562D01*
X86477Y23572D01*
X86400Y23576D01*
Y29197D01*
G37*
G36*
X87122Y95348D02*X87600D01*
Y32751D01*
X87580Y32749D01*
X87561Y32744D01*
X87543Y32737D01*
X87526Y32727D01*
X87511Y32714D01*
X87498Y32699D01*
X87488Y32682D01*
X87481Y32664D01*
X87476Y32645D01*
X87475Y32625D01*
Y31775D01*
X87476Y31755D01*
X87481Y31736D01*
X87488Y31718D01*
X87498Y31701D01*
X87511Y31686D01*
X87526Y31674D01*
X87543Y31663D01*
X87561Y31656D01*
X87580Y31651D01*
X87600Y31650D01*
Y30803D01*
X87588Y30790D01*
X87506Y30655D01*
X87446Y30510D01*
X87409Y30357D01*
X87398Y30221D01*
X87390Y30357D01*
X87354Y30510D01*
X87293Y30655D01*
X87211Y30790D01*
X87122Y30894D01*
Y31725D01*
X87124Y31726D01*
X87136Y31735D01*
X87147Y31747D01*
X87156Y31760D01*
X87192Y31827D01*
X87222Y31898D01*
X87245Y31972D01*
X87262Y32047D01*
X87272Y32123D01*
X87276Y32200D01*
X87272Y32277D01*
X87262Y32353D01*
X87245Y32428D01*
X87222Y32502D01*
X87192Y32573D01*
X87157Y32641D01*
X87148Y32654D01*
X87137Y32665D01*
X87124Y32675D01*
X87122Y32676D01*
Y95348D01*
G37*
G36*
X86400D02*X87122D01*
Y32676D01*
X87110Y32683D01*
X87095Y32688D01*
X87080Y32691D01*
X87064Y32691D01*
X87048Y32689D01*
X87033Y32684D01*
X87019Y32677D01*
X87006Y32668D01*
X86994Y32657D01*
X86985Y32645D01*
X86977Y32631D01*
X86972Y32616D01*
X86969Y32600D01*
X86969Y32584D01*
X86971Y32569D01*
X86975Y32554D01*
X86983Y32540D01*
X87011Y32487D01*
X87034Y32433D01*
X87051Y32376D01*
X87064Y32318D01*
X87072Y32259D01*
X87075Y32200D01*
X87072Y32141D01*
X87064Y32082D01*
X87051Y32024D01*
X87034Y31968D01*
X87011Y31913D01*
X86983Y31860D01*
X86976Y31846D01*
X86971Y31831D01*
X86969Y31816D01*
X86970Y31800D01*
X86972Y31784D01*
X86978Y31770D01*
X86985Y31756D01*
X86995Y31743D01*
X87006Y31732D01*
X87019Y31723D01*
X87033Y31717D01*
X87048Y31712D01*
X87064Y31710D01*
X87080Y31710D01*
X87095Y31713D01*
X87110Y31718D01*
X87122Y31725D01*
Y30894D01*
X87109Y30909D01*
X86989Y31012D01*
X86855Y31094D01*
X86710Y31154D01*
X86557Y31191D01*
X86400Y31203D01*
Y31324D01*
X86477Y31328D01*
X86553Y31338D01*
X86628Y31355D01*
X86701Y31378D01*
X86772Y31408D01*
X86841Y31443D01*
X86854Y31452D01*
X86865Y31463D01*
X86875Y31476D01*
X86882Y31490D01*
X86887Y31505D01*
X86890Y31520D01*
X86891Y31536D01*
X86888Y31552D01*
X86884Y31567D01*
X86877Y31581D01*
X86868Y31594D01*
X86857Y31606D01*
X86844Y31615D01*
X86831Y31623D01*
X86816Y31628D01*
X86800Y31631D01*
X86784Y31631D01*
X86768Y31629D01*
X86753Y31625D01*
X86739Y31617D01*
X86687Y31589D01*
X86632Y31566D01*
X86576Y31548D01*
X86518Y31536D01*
X86459Y31528D01*
X86400Y31525D01*
Y32875D01*
X86459Y32872D01*
X86518Y32865D01*
X86576Y32852D01*
X86632Y32834D01*
X86687Y32811D01*
X86740Y32783D01*
X86754Y32776D01*
X86769Y32772D01*
X86784Y32770D01*
X86800Y32770D01*
X86815Y32773D01*
X86830Y32778D01*
X86844Y32785D01*
X86857Y32795D01*
X86868Y32806D01*
X86876Y32819D01*
X86883Y32833D01*
X86888Y32849D01*
X86890Y32864D01*
X86890Y32880D01*
X86887Y32895D01*
X86882Y32910D01*
X86874Y32924D01*
X86865Y32937D01*
X86853Y32947D01*
X86840Y32956D01*
X86772Y32993D01*
X86701Y33022D01*
X86628Y33046D01*
X86553Y33062D01*
X86477Y33072D01*
X86400Y33076D01*
Y95348D01*
G37*
G36*
X85677Y20006D02*X85691Y19991D01*
X85810Y19889D01*
X85944Y19806D01*
X86090Y19746D01*
X86243Y19709D01*
X86400Y19697D01*
X86400Y19697D01*
Y3352D01*
X85677D01*
Y20006D01*
G37*
G36*
Y29506D02*X85691Y29491D01*
X85810Y29389D01*
X85944Y29306D01*
X86090Y29246D01*
X86243Y29209D01*
X86400Y29197D01*
X86400Y29197D01*
Y23576D01*
X86400Y23576D01*
X86323Y23572D01*
X86247Y23562D01*
X86172Y23546D01*
X86098Y23522D01*
X86027Y23493D01*
X85959Y23457D01*
X85946Y23448D01*
X85934Y23437D01*
X85925Y23424D01*
X85917Y23410D01*
X85912Y23395D01*
X85909Y23380D01*
X85909Y23364D01*
X85911Y23348D01*
X85916Y23333D01*
X85923Y23319D01*
X85932Y23306D01*
X85943Y23294D01*
X85955Y23285D01*
X85969Y23277D01*
X85984Y23272D01*
X86000Y23269D01*
X86015Y23269D01*
X86031Y23271D01*
X86046Y23276D01*
X86060Y23283D01*
X86113Y23311D01*
X86167Y23334D01*
X86224Y23352D01*
X86282Y23365D01*
X86341Y23372D01*
X86400Y23375D01*
X86400Y23375D01*
Y22025D01*
X86400Y22025D01*
X86341Y22028D01*
X86282Y22036D01*
X86224Y22048D01*
X86167Y22066D01*
X86113Y22089D01*
X86060Y22117D01*
X86046Y22124D01*
X86031Y22128D01*
X86015Y22131D01*
X86000Y22130D01*
X85984Y22127D01*
X85969Y22122D01*
X85955Y22115D01*
X85943Y22105D01*
X85932Y22094D01*
X85923Y22081D01*
X85916Y22067D01*
X85912Y22052D01*
X85910Y22036D01*
X85910Y22020D01*
X85913Y22005D01*
X85918Y21990D01*
X85925Y21976D01*
X85935Y21964D01*
X85946Y21953D01*
X85959Y21944D01*
X86027Y21908D01*
X86098Y21878D01*
X86172Y21855D01*
X86247Y21838D01*
X86323Y21828D01*
X86400Y21824D01*
X86400Y21824D01*
Y21703D01*
X86400Y21703D01*
X86243Y21691D01*
X86090Y21654D01*
X85944Y21594D01*
X85810Y21512D01*
X85691Y21409D01*
X85677Y21394D01*
Y22224D01*
X85689Y22218D01*
X85704Y22212D01*
X85720Y22210D01*
X85736Y22209D01*
X85752Y22211D01*
X85767Y22216D01*
X85781Y22223D01*
X85794Y22232D01*
X85805Y22243D01*
X85815Y22255D01*
X85823Y22269D01*
X85828Y22284D01*
X85831Y22300D01*
X85831Y22316D01*
X85829Y22331D01*
X85824Y22347D01*
X85817Y22361D01*
X85789Y22413D01*
X85766Y22468D01*
X85748Y22524D01*
X85735Y22582D01*
X85727Y22641D01*
X85725Y22700D01*
X85727Y22759D01*
X85735Y22818D01*
X85748Y22876D01*
X85766Y22933D01*
X85789Y22987D01*
X85817Y23040D01*
X85824Y23054D01*
X85828Y23069D01*
X85830Y23085D01*
X85830Y23100D01*
X85827Y23116D01*
X85822Y23131D01*
X85814Y23144D01*
X85805Y23157D01*
X85794Y23168D01*
X85781Y23177D01*
X85766Y23184D01*
X85751Y23188D01*
X85736Y23190D01*
X85720Y23190D01*
X85705Y23187D01*
X85690Y23182D01*
X85677Y23175D01*
Y29506D01*
G37*
G36*
Y95348D02*X86400D01*
Y33076D01*
X86400Y33076D01*
X86323Y33072D01*
X86247Y33062D01*
X86172Y33046D01*
X86098Y33022D01*
X86027Y32993D01*
X85959Y32957D01*
X85946Y32948D01*
X85934Y32937D01*
X85925Y32924D01*
X85917Y32910D01*
X85912Y32895D01*
X85909Y32880D01*
X85909Y32864D01*
X85911Y32848D01*
X85916Y32833D01*
X85923Y32819D01*
X85932Y32806D01*
X85943Y32794D01*
X85955Y32785D01*
X85969Y32777D01*
X85984Y32772D01*
X86000Y32769D01*
X86015Y32769D01*
X86031Y32771D01*
X86046Y32776D01*
X86060Y32783D01*
X86113Y32811D01*
X86167Y32834D01*
X86224Y32852D01*
X86282Y32865D01*
X86341Y32872D01*
X86400Y32875D01*
X86400Y32875D01*
Y31525D01*
X86400Y31525D01*
X86341Y31528D01*
X86282Y31536D01*
X86224Y31548D01*
X86167Y31566D01*
X86113Y31589D01*
X86060Y31617D01*
X86046Y31624D01*
X86031Y31628D01*
X86015Y31631D01*
X86000Y31630D01*
X85984Y31627D01*
X85969Y31622D01*
X85955Y31615D01*
X85943Y31605D01*
X85932Y31594D01*
X85923Y31581D01*
X85916Y31567D01*
X85912Y31552D01*
X85910Y31536D01*
X85910Y31520D01*
X85913Y31505D01*
X85918Y31490D01*
X85925Y31476D01*
X85935Y31464D01*
X85946Y31453D01*
X85959Y31444D01*
X86027Y31408D01*
X86098Y31378D01*
X86172Y31355D01*
X86247Y31338D01*
X86323Y31328D01*
X86400Y31324D01*
X86400Y31324D01*
Y31203D01*
X86400Y31203D01*
X86243Y31191D01*
X86090Y31154D01*
X85944Y31094D01*
X85810Y31012D01*
X85691Y30909D01*
X85677Y30894D01*
Y31724D01*
X85689Y31718D01*
X85704Y31712D01*
X85720Y31710D01*
X85736Y31709D01*
X85752Y31711D01*
X85767Y31716D01*
X85781Y31723D01*
X85794Y31732D01*
X85805Y31743D01*
X85815Y31755D01*
X85823Y31769D01*
X85828Y31784D01*
X85831Y31800D01*
X85831Y31816D01*
X85829Y31831D01*
X85824Y31847D01*
X85817Y31861D01*
X85789Y31913D01*
X85766Y31968D01*
X85748Y32024D01*
X85735Y32082D01*
X85727Y32141D01*
X85725Y32200D01*
X85727Y32259D01*
X85735Y32318D01*
X85748Y32376D01*
X85766Y32433D01*
X85789Y32487D01*
X85817Y32540D01*
X85824Y32554D01*
X85828Y32569D01*
X85830Y32585D01*
X85830Y32600D01*
X85827Y32616D01*
X85822Y32631D01*
X85814Y32644D01*
X85805Y32657D01*
X85794Y32668D01*
X85781Y32677D01*
X85766Y32684D01*
X85751Y32688D01*
X85736Y32690D01*
X85720Y32690D01*
X85705Y32687D01*
X85690Y32682D01*
X85677Y32675D01*
Y95348D01*
G37*
G36*
X82798Y93848D02*X84890D01*
X84900Y93847D01*
X84939Y93850D01*
X84939Y93850D01*
X84978Y93859D01*
X85015Y93875D01*
X85049Y93895D01*
X85079Y93921D01*
X85105Y93951D01*
X85125Y93985D01*
X85141Y94022D01*
X85150Y94060D01*
X85153Y94100D01*
X85152Y94110D01*
Y95348D01*
X85677D01*
Y32675D01*
X85676Y32674D01*
X85663Y32665D01*
X85652Y32654D01*
X85644Y32640D01*
X85607Y32573D01*
X85578Y32502D01*
X85554Y32428D01*
X85538Y32353D01*
X85527Y32277D01*
X85524Y32200D01*
X85527Y32123D01*
X85538Y32047D01*
X85554Y31972D01*
X85578Y31898D01*
X85607Y31827D01*
X85643Y31759D01*
X85652Y31746D01*
X85663Y31735D01*
X85676Y31725D01*
X85677Y31724D01*
Y30894D01*
X85588Y30790D01*
X85506Y30655D01*
X85446Y30510D01*
X85409Y30357D01*
X85397Y30200D01*
X85409Y30043D01*
X85446Y29890D01*
X85506Y29745D01*
X85588Y29611D01*
X85677Y29506D01*
Y23175D01*
X85676Y23174D01*
X85663Y23165D01*
X85652Y23154D01*
X85644Y23140D01*
X85607Y23073D01*
X85578Y23002D01*
X85554Y22928D01*
X85538Y22853D01*
X85527Y22777D01*
X85524Y22700D01*
X85527Y22623D01*
X85538Y22547D01*
X85554Y22472D01*
X85578Y22398D01*
X85607Y22327D01*
X85643Y22259D01*
X85652Y22246D01*
X85663Y22235D01*
X85676Y22225D01*
X85677Y22224D01*
Y21394D01*
X85588Y21290D01*
X85506Y21155D01*
X85446Y21010D01*
X85409Y20857D01*
X85397Y20700D01*
X85409Y20543D01*
X85446Y20390D01*
X85506Y20245D01*
X85588Y20111D01*
X85677Y20006D01*
Y3352D01*
X85152D01*
Y4590D01*
X85153Y4600D01*
X85150Y4640D01*
X85141Y4678D01*
X85125Y4715D01*
X85105Y4749D01*
X85079Y4779D01*
X85049Y4805D01*
X85015Y4826D01*
X84978Y4841D01*
X84939Y4850D01*
X84900Y4853D01*
X84890Y4852D01*
X82798D01*
Y44989D01*
X84844Y47036D01*
X84855Y47045D01*
X84892Y47088D01*
X84892Y47088D01*
X84922Y47136D01*
X84943Y47188D01*
X84957Y47244D01*
X84961Y47300D01*
X84960Y47314D01*
Y50986D01*
X84961Y51000D01*
X84957Y51057D01*
X84957Y51057D01*
X84943Y51112D01*
X84922Y51164D01*
X84922Y51164D01*
X84892Y51212D01*
X84855Y51255D01*
X84844Y51265D01*
X82964Y53145D01*
X82955Y53155D01*
X82912Y53192D01*
X82912Y53192D01*
X82912Y53192D01*
X82912Y53192D01*
X82864Y53222D01*
X82820Y53240D01*
X82811Y53244D01*
X82811D01*
X82811Y53244D01*
X82798Y53247D01*
Y74666D01*
X82825Y74730D01*
X82845Y74814D01*
X82850Y74900D01*
X82845Y74987D01*
X82825Y75071D01*
X82798Y75134D01*
Y76767D01*
X82824Y76830D01*
X82845Y76914D01*
X82850Y77000D01*
X82845Y77086D01*
X83137Y77378D01*
X83159Y77387D01*
X83206Y77416D01*
X83248Y77452D01*
X83284Y77494D01*
X83313Y77541D01*
X83334Y77592D01*
X83347Y77645D01*
X83350Y77700D01*
Y80091D01*
X83691Y80431D01*
X83710Y80410D01*
X83775Y80354D01*
X83849Y80308D01*
X83929Y80275D01*
X84013Y80255D01*
X84100Y80248D01*
X84186Y80255D01*
X84270Y80275D01*
X84350Y80308D01*
X84424Y80354D01*
X84490Y80410D01*
X84546Y80476D01*
X84591Y80550D01*
X84625Y80630D01*
X84645Y80714D01*
X84650Y80800D01*
X84645Y80886D01*
X84625Y80971D01*
X84591Y81051D01*
X84546Y81124D01*
X84490Y81190D01*
X84424Y81247D01*
X84350Y81292D01*
X84270Y81325D01*
X84186Y81345D01*
X84100Y81352D01*
X84013Y81345D01*
X83929Y81325D01*
X83849Y81292D01*
X83775Y81247D01*
X83710Y81190D01*
X83653Y81124D01*
X83652Y81122D01*
X83651Y81122D01*
X83600Y81126D01*
X83549Y81122D01*
X83499Y81110D01*
X83452Y81091D01*
X83408Y81064D01*
X83370Y81030D01*
X82862Y80522D01*
X82840Y80513D01*
X82814Y80497D01*
X82798Y80534D01*
Y84698D01*
X82800Y84697D01*
X82941Y84709D01*
X83079Y84742D01*
X83210Y84796D01*
X83330Y84870D01*
X83438Y84962D01*
X83530Y85070D01*
X83604Y85190D01*
X83658Y85321D01*
X83691Y85459D01*
X83700Y85600D01*
X83691Y85741D01*
X83658Y85879D01*
X83604Y86010D01*
X83530Y86131D01*
X83438Y86238D01*
X83330Y86330D01*
X83210Y86404D01*
X83079Y86459D01*
X82941Y86492D01*
X82800Y86503D01*
X82798Y86503D01*
Y86698D01*
X82800Y86697D01*
X82941Y86709D01*
X83079Y86742D01*
X83210Y86796D01*
X83330Y86870D01*
X83438Y86962D01*
X83530Y87070D01*
X83604Y87190D01*
X83658Y87321D01*
X83691Y87459D01*
X83700Y87600D01*
X83691Y87741D01*
X83658Y87879D01*
X83604Y88010D01*
X83530Y88131D01*
X83438Y88238D01*
X83330Y88330D01*
X83210Y88404D01*
X83079Y88459D01*
X82941Y88492D01*
X82800Y88503D01*
X82798Y88503D01*
Y93848D01*
G37*
G36*
Y75134D02*X82791Y75151D01*
X82746Y75225D01*
X82690Y75290D01*
X82624Y75347D01*
X82550Y75392D01*
X82470Y75425D01*
X82386Y75445D01*
X82300Y75452D01*
X82298Y75452D01*
X81664Y76086D01*
Y77826D01*
X81713Y77746D01*
X81774Y77674D01*
X81846Y77613D01*
X81926Y77564D01*
X82014Y77528D01*
X82091Y77509D01*
X82049Y77492D01*
X81976Y77446D01*
X81910Y77390D01*
X81854Y77324D01*
X81808Y77251D01*
X81775Y77171D01*
X81755Y77086D01*
X81748Y77000D01*
X81755Y76914D01*
X81775Y76830D01*
X81808Y76750D01*
X81854Y76676D01*
X81910Y76610D01*
X81976Y76554D01*
X82049Y76509D01*
X82129Y76476D01*
X82214Y76455D01*
X82300Y76449D01*
X82386Y76455D01*
X82470Y76476D01*
X82550Y76509D01*
X82624Y76554D01*
X82690Y76610D01*
X82746Y76676D01*
X82791Y76750D01*
X82798Y76767D01*
Y75134D01*
G37*
G36*
Y53247D02*X82756Y53257D01*
X82756Y53257D01*
X82700Y53261D01*
X82686Y53260D01*
X80798D01*
Y79887D01*
X80936Y79750D01*
Y76038D01*
X80929Y76021D01*
X80915Y75961D01*
X80910Y75900D01*
X80915Y75839D01*
X80929Y75780D01*
X80953Y75723D01*
X80985Y75671D01*
X81025Y75625D01*
X81748Y74902D01*
X81748Y74900D01*
X81755Y74814D01*
X81775Y74730D01*
X81808Y74650D01*
X81853Y74576D01*
X81910Y74510D01*
X81975Y74454D01*
X82049Y74409D01*
X82129Y74375D01*
X82213Y74355D01*
X82300Y74348D01*
X82386Y74355D01*
X82470Y74375D01*
X82550Y74409D01*
X82624Y74454D01*
X82690Y74510D01*
X82746Y74576D01*
X82791Y74650D01*
X82798Y74666D01*
Y53247D01*
G37*
G36*
Y4852D02*X80798D01*
Y44790D01*
X82436D01*
X82450Y44789D01*
X82506Y44793D01*
X82506Y44793D01*
X82561Y44807D01*
X82614Y44828D01*
X82662Y44858D01*
X82705Y44895D01*
X82714Y44905D01*
X82798Y44989D01*
Y4852D01*
G37*
G36*
X80798Y93848D02*X82798D01*
Y88503D01*
X82659Y88492D01*
X82521Y88459D01*
X82390Y88404D01*
X82269Y88330D01*
X82162Y88238D01*
X82070Y88131D01*
X81995Y88010D01*
X81941Y87879D01*
X81908Y87741D01*
X81897Y87600D01*
X81908Y87459D01*
X81941Y87321D01*
X81995Y87190D01*
X82070Y87070D01*
X82162Y86962D01*
X82269Y86870D01*
X82390Y86796D01*
X82521Y86742D01*
X82659Y86709D01*
X82798Y86698D01*
Y86503D01*
X82659Y86492D01*
X82521Y86459D01*
X82390Y86404D01*
X82269Y86330D01*
X82162Y86238D01*
X82070Y86131D01*
X81995Y86010D01*
X81941Y85879D01*
X81908Y85741D01*
X81897Y85600D01*
X81908Y85459D01*
X81941Y85321D01*
X81995Y85190D01*
X82070Y85070D01*
X82162Y84962D01*
X82269Y84870D01*
X82390Y84796D01*
X82521Y84742D01*
X82659Y84709D01*
X82798Y84698D01*
Y80534D01*
X82792Y80551D01*
X82746Y80624D01*
X82690Y80690D01*
X82624Y80746D01*
X82550Y80792D01*
X82470Y80825D01*
X82386Y80845D01*
X82300Y80852D01*
X82214Y80845D01*
X82129Y80825D01*
X82049Y80792D01*
X81976Y80746D01*
X81910Y80690D01*
X81853Y80624D01*
X81808Y80551D01*
X81775Y80471D01*
X81755Y80386D01*
X81748Y80300D01*
X81755Y80214D01*
X81775Y80129D01*
X81808Y80049D01*
X81853Y79976D01*
X81910Y79910D01*
X81976Y79854D01*
X82000Y79839D01*
Y78667D01*
X81926Y78637D01*
X81846Y78587D01*
X81774Y78526D01*
X81713Y78454D01*
X81664Y78374D01*
Y79886D01*
X81665Y79900D01*
X81660Y79957D01*
X81660Y79957D01*
X81660Y79957D01*
X81660Y79957D01*
X81655Y79981D01*
X81647Y80013D01*
X81647Y80013D01*
X81647Y80013D01*
X81638Y80035D01*
X81625Y80066D01*
X81625Y80066D01*
X81625Y80066D01*
X81612Y80087D01*
X81595Y80115D01*
X81595Y80115D01*
X81595Y80115D01*
X81595Y80115D01*
X81558Y80158D01*
X81547Y80168D01*
X80798Y80916D01*
Y84698D01*
X80800Y84697D01*
X80941Y84709D01*
X81079Y84742D01*
X81210Y84796D01*
X81330Y84870D01*
X81438Y84962D01*
X81530Y85070D01*
X81604Y85190D01*
X81658Y85321D01*
X81691Y85459D01*
X81700Y85600D01*
X81691Y85741D01*
X81658Y85879D01*
X81604Y86010D01*
X81530Y86131D01*
X81438Y86238D01*
X81330Y86330D01*
X81210Y86404D01*
X81079Y86459D01*
X80941Y86492D01*
X80800Y86503D01*
X80798Y86503D01*
Y86698D01*
X80800Y86697D01*
X80941Y86709D01*
X81079Y86742D01*
X81210Y86796D01*
X81330Y86870D01*
X81438Y86962D01*
X81530Y87070D01*
X81604Y87190D01*
X81658Y87321D01*
X81691Y87459D01*
X81700Y87600D01*
X81691Y87741D01*
X81658Y87879D01*
X81604Y88010D01*
X81530Y88131D01*
X81438Y88238D01*
X81330Y88330D01*
X81210Y88404D01*
X81079Y88459D01*
X80941Y88492D01*
X80800Y88503D01*
X80798Y88503D01*
Y93848D01*
G37*
G36*
Y4852D02*X78798D01*
Y17006D01*
X78810Y17034D01*
X78830Y17116D01*
X78835Y17200D01*
X78830Y17284D01*
X78810Y17366D01*
X78798Y17394D01*
Y18746D01*
X78820Y18721D01*
X78884Y18666D01*
X78956Y18622D01*
X79034Y18590D01*
X79116Y18570D01*
X79200Y18563D01*
X79284Y18570D01*
X79366Y18590D01*
X79443Y18622D01*
X79515Y18666D01*
X79579Y18721D01*
X79634Y18785D01*
X79678Y18856D01*
X79710Y18934D01*
X79730Y19016D01*
X79735Y19100D01*
X79730Y19184D01*
X79710Y19266D01*
X79678Y19344D01*
X79634Y19416D01*
X79579Y19480D01*
X79560Y19496D01*
Y20104D01*
X79579Y20121D01*
X79634Y20185D01*
X79678Y20256D01*
X79710Y20334D01*
X79730Y20416D01*
X79735Y20500D01*
X79730Y20584D01*
X79710Y20666D01*
X79678Y20744D01*
X79634Y20816D01*
X79579Y20880D01*
X79515Y20934D01*
X79443Y20978D01*
X79366Y21010D01*
X79284Y21030D01*
X79200Y21037D01*
X79116Y21030D01*
X79034Y21010D01*
X78956Y20978D01*
X78884Y20934D01*
X78820Y20880D01*
X78798Y20854D01*
Y42016D01*
X78807Y42051D01*
X78811Y42100D01*
X78810Y42112D01*
Y43772D01*
X79828Y44790D01*
X80798D01*
Y4852D01*
G37*
G36*
X78798Y93848D02*X80798D01*
Y88503D01*
X80659Y88492D01*
X80521Y88459D01*
X80390Y88404D01*
X80269Y88330D01*
X80162Y88238D01*
X80070Y88131D01*
X79996Y88010D01*
X79941Y87879D01*
X79908Y87741D01*
X79897Y87600D01*
X79908Y87459D01*
X79941Y87321D01*
X79996Y87190D01*
X80070Y87070D01*
X80162Y86962D01*
X80269Y86870D01*
X80390Y86796D01*
X80521Y86742D01*
X80659Y86709D01*
X80798Y86698D01*
Y86503D01*
X80659Y86492D01*
X80521Y86459D01*
X80390Y86404D01*
X80269Y86330D01*
X80162Y86238D01*
X80070Y86131D01*
X79996Y86010D01*
X79941Y85879D01*
X79908Y85741D01*
X79897Y85600D01*
X79908Y85459D01*
X79941Y85321D01*
X79996Y85190D01*
X80070Y85070D01*
X80162Y84962D01*
X80269Y84870D01*
X80390Y84796D01*
X80521Y84742D01*
X80659Y84709D01*
X80798Y84698D01*
Y80916D01*
X80767Y80947D01*
X80758Y80958D01*
X80714Y80995D01*
X80714Y80995D01*
X80714Y80995D01*
X80695Y81007D01*
X80665Y81025D01*
X80665Y81025D01*
X80665Y81025D01*
X80642Y81035D01*
X80613Y81047D01*
X80612Y81047D01*
X80612Y81047D01*
X80589Y81053D01*
X80572Y81073D01*
X80509Y81126D01*
X80439Y81169D01*
X80363Y81201D01*
X80282Y81220D01*
X80200Y81227D01*
X80117Y81220D01*
X80037Y81201D01*
X79961Y81169D01*
X79890Y81126D01*
X79827Y81073D01*
X79774Y81010D01*
X79730Y80939D01*
X79699Y80863D01*
X79680Y80783D01*
X79673Y80700D01*
X79680Y80618D01*
X79699Y80537D01*
X79730Y80461D01*
X79774Y80390D01*
X79827Y80328D01*
X79890Y80274D01*
X79961Y80231D01*
X80037Y80199D01*
X80117Y80180D01*
X80200Y80173D01*
X80282Y80180D01*
X80363Y80199D01*
X80439Y80231D01*
X80449Y80237D01*
X80798Y79887D01*
Y53260D01*
X80014D01*
X80000Y53261D01*
X79943Y53257D01*
X79888Y53244D01*
X79888Y53244D01*
X79888D01*
X79881Y53240D01*
X79836Y53222D01*
X79836Y53222D01*
X79836Y53222D01*
X79826Y53216D01*
X79788Y53192D01*
X79788Y53192D01*
X79788Y53192D01*
X79744Y53155D01*
X79735Y53145D01*
X78798Y52208D01*
Y73350D01*
X80100D01*
X80202Y73356D01*
X80301Y73380D01*
X80396Y73419D01*
X80483Y73472D01*
X80561Y73539D01*
X80627Y73617D01*
X80681Y73704D01*
X80720Y73799D01*
X80744Y73898D01*
X80752Y74000D01*
X80744Y74102D01*
X80720Y74202D01*
X80681Y74296D01*
X80627Y74383D01*
X80561Y74461D01*
X80483Y74528D01*
X80396Y74581D01*
X80301Y74620D01*
X80202Y74644D01*
X80100Y74650D01*
X78798D01*
Y84698D01*
X78800Y84697D01*
X78941Y84709D01*
X79079Y84742D01*
X79210Y84796D01*
X79330Y84870D01*
X79438Y84962D01*
X79530Y85070D01*
X79604Y85190D01*
X79658Y85321D01*
X79691Y85459D01*
X79700Y85600D01*
X79691Y85741D01*
X79658Y85879D01*
X79604Y86010D01*
X79530Y86131D01*
X79438Y86238D01*
X79330Y86330D01*
X79210Y86404D01*
X79079Y86459D01*
X78941Y86492D01*
X78800Y86503D01*
X78798Y86503D01*
Y86698D01*
X78800Y86697D01*
X78941Y86709D01*
X79079Y86742D01*
X79210Y86796D01*
X79330Y86870D01*
X79438Y86962D01*
X79530Y87070D01*
X79604Y87190D01*
X79658Y87321D01*
X79691Y87459D01*
X79700Y87600D01*
X79691Y87741D01*
X79658Y87879D01*
X79604Y88010D01*
X79530Y88131D01*
X79438Y88238D01*
X79330Y88330D01*
X79210Y88404D01*
X79079Y88459D01*
X78941Y88492D01*
X78800Y88503D01*
X78798Y88503D01*
Y93848D01*
G37*
G36*
X78685Y17573D02*Y18953D01*
X78689Y18934D01*
X78722Y18856D01*
X78766Y18785D01*
X78798Y18746D01*
Y17394D01*
X78778Y17444D01*
X78734Y17516D01*
X78685Y17573D01*
G37*
G36*
X78798Y52208D02*X78101Y51510D01*
X77752D01*
X77737Y51523D01*
X77700Y51546D01*
X77660Y51562D01*
X77618Y51573D01*
X77575Y51575D01*
X76882Y51573D01*
X76840Y51562D01*
X76800Y51546D01*
X76798Y51545D01*
Y73279D01*
X76869Y73350D01*
X78798D01*
Y52208D01*
G37*
G36*
Y4852D02*X76798D01*
Y39978D01*
X76833Y39998D01*
X76870Y40030D01*
X76878Y40039D01*
X78710Y41872D01*
X78720Y41880D01*
X78751Y41917D01*
X78751Y41917D01*
X78777Y41959D01*
X78796Y42004D01*
X78798Y42016D01*
Y20854D01*
X78766Y20816D01*
X78722Y20744D01*
X78689Y20666D01*
X78670Y20587D01*
X78615Y20634D01*
X78543Y20678D01*
X78466Y20710D01*
X78384Y20730D01*
X78300Y20737D01*
X78216Y20730D01*
X78134Y20710D01*
X78056Y20678D01*
X77984Y20634D01*
X77920Y20580D01*
X77866Y20516D01*
X77822Y20444D01*
X77789Y20366D01*
X77770Y20284D01*
X77763Y20200D01*
X77770Y20116D01*
X77789Y20034D01*
X77822Y19956D01*
X77866Y19885D01*
X77915Y19827D01*
Y17573D01*
X77866Y17516D01*
X77822Y17444D01*
X77789Y17366D01*
X77770Y17284D01*
X77763Y17200D01*
X77770Y17116D01*
X77789Y17034D01*
X77822Y16956D01*
X77866Y16885D01*
X77920Y16821D01*
X77984Y16766D01*
X78056Y16722D01*
X78134Y16690D01*
X78216Y16670D01*
X78300Y16663D01*
X78384Y16670D01*
X78466Y16690D01*
X78543Y16722D01*
X78615Y16766D01*
X78679Y16821D01*
X78734Y16885D01*
X78778Y16956D01*
X78798Y17006D01*
Y4852D01*
G37*
G36*
X76798Y93848D02*X78798D01*
Y88503D01*
X78659Y88492D01*
X78521Y88459D01*
X78390Y88404D01*
X78269Y88330D01*
X78162Y88238D01*
X78070Y88131D01*
X77996Y88010D01*
X77941Y87879D01*
X77908Y87741D01*
X77897Y87600D01*
X77908Y87459D01*
X77941Y87321D01*
X77996Y87190D01*
X78070Y87070D01*
X78162Y86962D01*
X78269Y86870D01*
X78390Y86796D01*
X78521Y86742D01*
X78659Y86709D01*
X78798Y86698D01*
Y86503D01*
X78659Y86492D01*
X78521Y86459D01*
X78390Y86404D01*
X78269Y86330D01*
X78162Y86238D01*
X78070Y86131D01*
X77996Y86010D01*
X77941Y85879D01*
X77908Y85741D01*
X77897Y85600D01*
X77908Y85459D01*
X77941Y85321D01*
X77996Y85190D01*
X78070Y85070D01*
X78162Y84962D01*
X78269Y84870D01*
X78390Y84796D01*
X78521Y84742D01*
X78659Y84709D01*
X78798Y84698D01*
Y74650D01*
X76798D01*
Y84698D01*
X76800Y84697D01*
X76941Y84709D01*
X77079Y84742D01*
X77210Y84796D01*
X77330Y84870D01*
X77438Y84962D01*
X77530Y85070D01*
X77604Y85190D01*
X77658Y85321D01*
X77691Y85459D01*
X77700Y85600D01*
X77691Y85741D01*
X77658Y85879D01*
X77604Y86010D01*
X77530Y86131D01*
X77438Y86238D01*
X77330Y86330D01*
X77210Y86404D01*
X77079Y86459D01*
X76941Y86492D01*
X76800Y86503D01*
X76798Y86503D01*
Y86698D01*
X76800Y86697D01*
X76941Y86709D01*
X77079Y86742D01*
X77210Y86796D01*
X77330Y86870D01*
X77438Y86962D01*
X77530Y87070D01*
X77604Y87190D01*
X77658Y87321D01*
X77691Y87459D01*
X77700Y87600D01*
X77691Y87741D01*
X77658Y87879D01*
X77604Y88010D01*
X77530Y88131D01*
X77438Y88238D01*
X77330Y88330D01*
X77210Y88404D01*
X77079Y88459D01*
X76941Y88492D01*
X76800Y88503D01*
X76798Y88503D01*
Y93848D01*
G37*
G36*
Y51545D02*X76763Y51523D01*
X76730Y51495D01*
X76702Y51462D01*
X76679Y51425D01*
X76663Y51385D01*
X76652Y51343D01*
X76650Y51300D01*
X76652Y50957D01*
X76663Y50915D01*
X76679Y50875D01*
X76694Y50850D01*
X76679Y50825D01*
X76663Y50785D01*
X76652Y50743D01*
X76650Y50700D01*
X76652Y50357D01*
X76663Y50315D01*
X76679Y50275D01*
X76680Y50274D01*
X76657Y50237D01*
X76639Y50193D01*
X76628Y50147D01*
X76625Y50100D01*
X76628Y49753D01*
X76632Y49735D01*
X76401D01*
X76401Y49902D01*
X76389Y49952D01*
X76369Y50000D01*
X76342Y50044D01*
X76308Y50083D01*
X76269Y50117D01*
X76225Y50144D01*
X76177Y50164D01*
X76126Y50176D01*
X76075Y50179D01*
X76060Y50179D01*
Y54286D01*
X76061Y54300D01*
X76057Y54357D01*
X76054Y54367D01*
X76043Y54412D01*
X76022Y54464D01*
X75992Y54512D01*
X75955Y54556D01*
X75944Y54565D01*
X75462Y55047D01*
Y68684D01*
X75495Y68670D01*
X75596Y68646D01*
X75700Y68638D01*
X75803Y68646D01*
X75904Y68670D01*
X76000Y68710D01*
X76089Y68765D01*
X76168Y68832D01*
X76235Y68911D01*
X76290Y69000D01*
X76329Y69096D01*
X76354Y69197D01*
X76360Y69300D01*
X76354Y69404D01*
X76329Y69505D01*
X76290Y69601D01*
X76235Y69689D01*
X76168Y69768D01*
X76110Y69818D01*
Y71118D01*
X76154Y71170D01*
X76200Y71245D01*
X76234Y71327D01*
X76255Y71412D01*
X76260Y71500D01*
X76255Y71588D01*
X76234Y71674D01*
X76200Y71755D01*
X76154Y71830D01*
X76097Y71897D01*
X76030Y71955D01*
X75955Y72001D01*
X75873Y72034D01*
X75788Y72055D01*
X75700Y72062D01*
X75612Y72055D01*
X75581Y72047D01*
X76067Y72533D01*
X76135Y72611D01*
X76144Y72625D01*
X76798Y73279D01*
Y51545D01*
G37*
G36*
Y4852D02*X75462D01*
Y39940D01*
X76638D01*
X76650Y39939D01*
X76698Y39943D01*
X76698Y39943D01*
X76746Y39954D01*
X76791Y39973D01*
X76798Y39978D01*
Y4852D01*
G37*
G36*
X75462Y93848D02*X76798D01*
Y88503D01*
X76659Y88492D01*
X76521Y88459D01*
X76390Y88404D01*
X76269Y88330D01*
X76162Y88238D01*
X76070Y88131D01*
X75996Y88010D01*
X75941Y87879D01*
X75908Y87741D01*
X75897Y87600D01*
X75908Y87459D01*
X75941Y87321D01*
X75996Y87190D01*
X76070Y87070D01*
X76162Y86962D01*
X76269Y86870D01*
X76390Y86796D01*
X76521Y86742D01*
X76659Y86709D01*
X76798Y86698D01*
Y86503D01*
X76659Y86492D01*
X76521Y86459D01*
X76390Y86404D01*
X76269Y86330D01*
X76162Y86238D01*
X76070Y86131D01*
X75996Y86010D01*
X75941Y85879D01*
X75908Y85741D01*
X75897Y85600D01*
X75908Y85459D01*
X75941Y85321D01*
X75996Y85190D01*
X76070Y85070D01*
X76162Y84962D01*
X76269Y84870D01*
X76390Y84796D01*
X76521Y84742D01*
X76659Y84709D01*
X76798Y84698D01*
Y74650D01*
X76625D01*
X76600Y74652D01*
X76498Y74644D01*
X76398Y74620D01*
X76304Y74581D01*
X76216Y74528D01*
X76216Y74528D01*
X76139Y74461D01*
X76122Y74442D01*
X75462Y73782D01*
Y77651D01*
X75500Y77648D01*
X75586Y77655D01*
X75670Y77675D01*
X75750Y77709D01*
X75824Y77754D01*
X75890Y77810D01*
X75946Y77876D01*
X75991Y77950D01*
X76025Y78030D01*
X76045Y78114D01*
X76050Y78200D01*
X76045Y78287D01*
X76025Y78371D01*
X75991Y78451D01*
X75946Y78525D01*
X75890Y78590D01*
X75825Y78646D01*
Y79687D01*
X75826Y79700D01*
X75822Y79751D01*
Y79751D01*
X75822Y79751D01*
X75811Y79797D01*
X75810Y79801D01*
X75810Y79801D01*
X75794Y79840D01*
X75790Y79848D01*
X75790Y79848D01*
X75790Y79848D01*
X75764Y79892D01*
X75730Y79931D01*
X75721Y79939D01*
X75462Y80198D01*
Y84990D01*
X75530Y85070D01*
X75604Y85190D01*
X75658Y85321D01*
X75691Y85459D01*
X75700Y85600D01*
X75691Y85741D01*
X75658Y85879D01*
X75604Y86010D01*
X75530Y86131D01*
X75462Y86210D01*
Y86702D01*
X75510Y86702D01*
X75545Y86711D01*
X75577Y86724D01*
X75607Y86743D01*
X75634Y86766D01*
X75657Y86792D01*
X75676Y86823D01*
X75689Y86855D01*
X75698Y86890D01*
X75700Y86925D01*
X75698Y88310D01*
X75689Y88345D01*
X75676Y88378D01*
X75657Y88408D01*
X75634Y88435D01*
X75607Y88458D01*
X75577Y88476D01*
X75545Y88490D01*
X75510Y88498D01*
X75475Y88500D01*
X75462Y88500D01*
Y93848D01*
G37*
G36*
X61420Y52347D02*X62392D01*
X62425Y52293D01*
X62486Y52221D01*
X62558Y52160D01*
X62638Y52111D01*
X62725Y52075D01*
X62817Y52052D01*
X62911Y52045D01*
X63006Y52052D01*
X63097Y52075D01*
X63185Y52111D01*
X63265Y52160D01*
X63337Y52221D01*
X63398Y52293D01*
X63448Y52374D01*
X63466Y52417D01*
X63470Y52358D01*
X63492Y52269D01*
X63527Y52184D01*
X63575Y52105D01*
X63635Y52035D01*
X63705Y51975D01*
X63783Y51927D01*
X63856Y51897D01*
X62525D01*
X62511Y51898D01*
X62456Y51894D01*
X62403Y51881D01*
X62352Y51860D01*
X62305Y51831D01*
X62305Y51831D01*
X62263Y51795D01*
X62254Y51785D01*
X61420Y50950D01*
Y52347D01*
G37*
G36*
X66498Y41914D02*X66500Y41913D01*
X66584Y41920D01*
X66666Y41940D01*
X66743Y41972D01*
X66789Y42000D01*
X66790Y41988D01*
Y41562D01*
X66789Y41550D01*
X66793Y41501D01*
Y41501D01*
X66804Y41454D01*
X66823Y41409D01*
X66848Y41367D01*
X66880Y41330D01*
X66889Y41322D01*
X68172Y40039D01*
X68180Y40030D01*
X68217Y39998D01*
X68233Y39989D01*
X68259Y39973D01*
X68304Y39954D01*
X68351Y39943D01*
X68400Y39939D01*
X68412Y39940D01*
X75462D01*
Y4852D01*
X66498D01*
Y41914D01*
G37*
G36*
X71799Y93848D02*X75462D01*
Y88500D01*
X74090Y88498D01*
X74055Y88490D01*
X74022Y88476D01*
X73992Y88458D01*
X73965Y88435D01*
X73942Y88408D01*
X73924Y88378D01*
X73910Y88345D01*
X73902Y88310D01*
X73900Y88275D01*
X73902Y86890D01*
X73910Y86855D01*
X73924Y86823D01*
X73942Y86792D01*
X73965Y86766D01*
X73992Y86743D01*
X74022Y86724D01*
X74055Y86711D01*
X74090Y86702D01*
X74125Y86700D01*
X75462Y86702D01*
Y86210D01*
X75438Y86238D01*
X75330Y86330D01*
X75210Y86404D01*
X75079Y86459D01*
X74941Y86492D01*
X74800Y86503D01*
X74659Y86492D01*
X74521Y86459D01*
X74390Y86404D01*
X74269Y86330D01*
X74162Y86238D01*
X74070Y86131D01*
X73996Y86010D01*
X73941Y85879D01*
X73908Y85741D01*
X73897Y85600D01*
X73908Y85459D01*
X73941Y85321D01*
X73996Y85190D01*
X74070Y85070D01*
X74162Y84962D01*
X74269Y84870D01*
X74390Y84796D01*
X74521Y84742D01*
X74659Y84709D01*
X74800Y84697D01*
X74941Y84709D01*
X75079Y84742D01*
X75210Y84796D01*
X75330Y84870D01*
X75438Y84962D01*
X75462Y84990D01*
Y80198D01*
X74745Y80915D01*
X74750Y81000D01*
X74745Y81086D01*
X74725Y81171D01*
X74692Y81251D01*
X74646Y81324D01*
X74590Y81390D01*
X74524Y81447D01*
X74450Y81492D01*
X74370Y81525D01*
X74286Y81545D01*
X74200Y81552D01*
X74114Y81545D01*
X74029Y81525D01*
X73949Y81492D01*
X73876Y81447D01*
X73810Y81390D01*
X73753Y81324D01*
X73708Y81251D01*
X73675Y81171D01*
X73655Y81086D01*
X73648Y81000D01*
X73655Y80914D01*
X73675Y80830D01*
X73708Y80750D01*
X73753Y80676D01*
X73810Y80610D01*
X73876Y80554D01*
X73949Y80508D01*
X74029Y80475D01*
X74114Y80455D01*
X74200Y80448D01*
X74285Y80455D01*
X75175Y79565D01*
Y78646D01*
X75110Y78590D01*
X75053Y78525D01*
X75008Y78451D01*
X74975Y78371D01*
X74955Y78287D01*
X74948Y78200D01*
X74955Y78114D01*
X74975Y78030D01*
X75008Y77950D01*
X75053Y77876D01*
X75110Y77810D01*
X75175Y77754D01*
X75249Y77709D01*
X75329Y77675D01*
X75413Y77655D01*
X75462Y77651D01*
Y73782D01*
X75224Y73544D01*
X75211Y73536D01*
X75133Y73467D01*
X73951Y72285D01*
X73932Y72268D01*
X73864Y72189D01*
X73810Y72101D01*
X73770Y72005D01*
X73746Y71904D01*
X73746Y71904D01*
X73738Y71800D01*
X73740Y71774D01*
Y68700D01*
X73746Y68597D01*
X73770Y68495D01*
X73810Y68399D01*
X73864Y68311D01*
X73932Y68232D01*
X74011Y68164D01*
X74099Y68110D01*
X74195Y68070D01*
X74296Y68046D01*
X74400Y68038D01*
X74503Y68046D01*
X74604Y68070D01*
X74700Y68110D01*
X74789Y68164D01*
X74868Y68232D01*
X74935Y68311D01*
X74990Y68399D01*
X75030Y68495D01*
X75054Y68597D01*
X75060Y68700D01*
Y69138D01*
X75070Y69096D01*
X75110Y69000D01*
X75164Y68911D01*
X75232Y68832D01*
X75311Y68765D01*
X75399Y68710D01*
X75462Y68684D01*
Y55047D01*
X73533Y56976D01*
X73535Y57000D01*
X73530Y57084D01*
X73510Y57166D01*
X73478Y57244D01*
X73434Y57316D01*
X73379Y57380D01*
X73315Y57434D01*
X73243Y57478D01*
X73166Y57510D01*
X73084Y57530D01*
X73000Y57537D01*
X72916Y57530D01*
X72834Y57510D01*
X72756Y57478D01*
X72684Y57434D01*
X72620Y57380D01*
X72566Y57316D01*
X72522Y57244D01*
X72489Y57166D01*
X72470Y57084D01*
X72463Y57000D01*
X72470Y56916D01*
X72489Y56834D01*
X72522Y56756D01*
X72566Y56685D01*
X72620Y56621D01*
X72684Y56566D01*
X72756Y56522D01*
X72834Y56490D01*
X72916Y56470D01*
X73000Y56463D01*
X73025Y56465D01*
X75340Y54151D01*
Y50176D01*
X75273Y50176D01*
X75223Y50164D01*
X75175Y50144D01*
X75131Y50117D01*
X75092Y50083D01*
X75058Y50044D01*
X75035Y50007D01*
X75021Y50029D01*
X74990Y50066D01*
X74954Y50097D01*
X74913Y50122D01*
X74869Y50140D01*
X74822Y50151D01*
X74775Y50154D01*
X73977Y50151D01*
X73931Y50140D01*
X73886Y50122D01*
X73846Y50097D01*
X73809Y50066D01*
X73778Y50029D01*
X73753Y49988D01*
X73735Y49944D01*
X73724Y49898D01*
X73721Y49850D01*
X73724Y48803D01*
X73735Y48756D01*
X73753Y48712D01*
X73778Y48671D01*
X73809Y48635D01*
X73846Y48604D01*
X73886Y48579D01*
X73931Y48560D01*
X73977Y48549D01*
X74025Y48546D01*
X74822Y48549D01*
X74869Y48560D01*
X74913Y48579D01*
X74954Y48604D01*
X74990Y48635D01*
X75021Y48671D01*
X75035Y48693D01*
X75058Y48656D01*
X75092Y48617D01*
X75131Y48583D01*
X75175Y48556D01*
X75223Y48536D01*
X75273Y48524D01*
X75325Y48521D01*
X75462Y48522D01*
Y46202D01*
X75277Y46201D01*
X75231Y46190D01*
X75186Y46172D01*
X75146Y46147D01*
X75109Y46116D01*
X75078Y46079D01*
X75053Y46038D01*
X75050Y46030D01*
X75046Y46038D01*
X75021Y46079D01*
X74990Y46116D01*
X74954Y46147D01*
X74913Y46172D01*
X74869Y46190D01*
X74822Y46201D01*
X74775Y46204D01*
X73977Y46201D01*
X73931Y46190D01*
X73886Y46172D01*
X73846Y46147D01*
X73809Y46116D01*
X73778Y46079D01*
X73753Y46038D01*
X73735Y45994D01*
X73724Y45948D01*
X73721Y45900D01*
X73724Y44853D01*
X73735Y44806D01*
X73753Y44762D01*
X73778Y44721D01*
X73809Y44685D01*
X73846Y44654D01*
X73886Y44629D01*
X73931Y44610D01*
X73977Y44599D01*
X74025Y44596D01*
X74822Y44599D01*
X74869Y44610D01*
X74913Y44629D01*
X74954Y44654D01*
X74990Y44685D01*
X75021Y44721D01*
X75046Y44762D01*
X75050Y44770D01*
X75053Y44762D01*
X75078Y44721D01*
X75109Y44685D01*
X75146Y44654D01*
X75186Y44629D01*
X75231Y44610D01*
X75277Y44599D01*
X75325Y44596D01*
X75462Y44597D01*
Y41910D01*
X71799D01*
Y78848D01*
X71800Y78848D01*
X71886Y78855D01*
X71970Y78875D01*
X72050Y78908D01*
X72124Y78954D01*
X72190Y79010D01*
X72246Y79076D01*
X72291Y79150D01*
X72325Y79230D01*
X72345Y79314D01*
X72350Y79400D01*
X72345Y79486D01*
X72325Y79571D01*
X72291Y79651D01*
X72246Y79724D01*
X72225Y79749D01*
Y82236D01*
X72254Y82270D01*
X72300Y82345D01*
X72334Y82427D01*
X72355Y82512D01*
X72360Y82600D01*
X72355Y82688D01*
X72334Y82774D01*
X72300Y82855D01*
X72254Y82930D01*
X72197Y82997D01*
X72130Y83055D01*
X72055Y83101D01*
X71973Y83135D01*
X71888Y83155D01*
X71800Y83162D01*
X71799Y83162D01*
Y93848D01*
G37*
G36*
X69038D02*X71799D01*
Y83162D01*
X71712Y83155D01*
X71626Y83135D01*
X71545Y83101D01*
X71470Y83055D01*
X71403Y82997D01*
X71345Y82930D01*
X71299Y82855D01*
X71266Y82774D01*
X71245Y82688D01*
X71238Y82600D01*
X71245Y82512D01*
X71266Y82427D01*
X71299Y82345D01*
X71345Y82270D01*
X71375Y82236D01*
Y79749D01*
X71353Y79724D01*
X71308Y79651D01*
X71275Y79571D01*
X71255Y79486D01*
X71248Y79400D01*
X71255Y79314D01*
X71275Y79230D01*
X71308Y79150D01*
X71353Y79076D01*
X71410Y79010D01*
X71475Y78954D01*
X71549Y78908D01*
X71629Y78875D01*
X71713Y78855D01*
X71799Y78848D01*
Y41910D01*
X70928D01*
X70528Y42310D01*
X70530Y42316D01*
X70535Y42400D01*
X70530Y42484D01*
X70510Y42566D01*
X70478Y42644D01*
X70434Y42716D01*
X70379Y42780D01*
X70315Y42834D01*
X70243Y42878D01*
X70166Y42910D01*
X70084Y42930D01*
X70000Y42937D01*
X69916Y42930D01*
X69834Y42910D01*
X69756Y42878D01*
X69684Y42834D01*
X69620Y42780D01*
X69566Y42716D01*
X69522Y42644D01*
X69489Y42566D01*
X69470Y42484D01*
X69469Y42470D01*
X69038Y42900D01*
Y44531D01*
X69084Y44585D01*
X69128Y44656D01*
X69160Y44734D01*
X69180Y44816D01*
X69185Y44900D01*
X69180Y44984D01*
X69160Y45066D01*
X69128Y45144D01*
X69084Y45216D01*
X69038Y45269D01*
Y45370D01*
X69043Y45372D01*
X69115Y45416D01*
X69179Y45471D01*
X69234Y45535D01*
X69278Y45606D01*
X69310Y45684D01*
X69330Y45766D01*
X69335Y45850D01*
X69330Y45934D01*
X69310Y46016D01*
X69278Y46094D01*
X69234Y46166D01*
X69179Y46230D01*
X69115Y46284D01*
X69043Y46328D01*
X69038Y46331D01*
Y46365D01*
X69484D01*
X69503Y46283D01*
X69536Y46206D01*
X69580Y46134D01*
X69634Y46070D01*
X69698Y46015D01*
X69770Y45971D01*
X69848Y45939D01*
X69930Y45919D01*
X70014Y45913D01*
X70098Y45919D01*
X70180Y45939D01*
X70257Y45971D01*
X70329Y46015D01*
X70393Y46070D01*
X70448Y46134D01*
X70492Y46206D01*
X70524Y46283D01*
X70544Y46365D01*
X70549Y46449D01*
X70544Y46533D01*
X70524Y46615D01*
X70492Y46693D01*
X70448Y46765D01*
X70393Y46829D01*
X70329Y46883D01*
X70257Y46927D01*
X70180Y46960D01*
X70098Y46979D01*
X70014Y46986D01*
X69994Y46984D01*
X69989Y46998D01*
X69953Y47057D01*
X69908Y47109D01*
X69856Y47153D01*
X69798Y47189D01*
X69735Y47215D01*
X69668Y47231D01*
X69600Y47235D01*
X69038D01*
Y48593D01*
X70266Y49821D01*
X70277Y49831D01*
X70316Y49876D01*
X70316Y49876D01*
X70347Y49926D01*
X70369Y49981D01*
X70383Y50038D01*
X70388Y50097D01*
X70386Y50112D01*
Y50511D01*
X70419Y50539D01*
X70478Y50608D01*
X70525Y50685D01*
X70560Y50769D01*
X70581Y50857D01*
X70586Y50947D01*
X70581Y51037D01*
X70560Y51125D01*
X70525Y51209D01*
X70478Y51286D01*
X70419Y51355D01*
X70350Y51413D01*
X70273Y51461D01*
X70190Y51495D01*
X70102Y51516D01*
X70012Y51523D01*
X69921Y51516D01*
X69833Y51495D01*
X69750Y51461D01*
X69673Y51413D01*
X69604Y51355D01*
X69545Y51286D01*
X69498Y51209D01*
X69463Y51125D01*
X69442Y51037D01*
X69435Y50947D01*
X69442Y50857D01*
X69463Y50769D01*
X69498Y50685D01*
X69545Y50608D01*
X69604Y50539D01*
X69637Y50511D01*
Y50252D01*
X69038Y49654D01*
Y53258D01*
X69048Y53274D01*
X69084Y53361D01*
X69106Y53453D01*
X69111Y53547D01*
X69106Y53641D01*
X69084Y53733D01*
X69048Y53820D01*
X69038Y53836D01*
Y58004D01*
X69040Y58004D01*
X69219Y58018D01*
X69394Y58060D01*
X69560Y58129D01*
X69714Y58223D01*
X69850Y58339D01*
X69967Y58476D01*
X70061Y58630D01*
X70130Y58796D01*
X70172Y58971D01*
X70183Y59150D01*
X70172Y59329D01*
X70130Y59504D01*
X70061Y59671D01*
X69967Y59824D01*
X69850Y59961D01*
X69714Y60078D01*
X69560Y60172D01*
X69394Y60241D01*
X69219Y60283D01*
X69040Y60297D01*
X69038Y60296D01*
Y93848D01*
G37*
G36*
Y49654D02*X68852Y49468D01*
X68858Y49492D01*
X68862Y49547D01*
X68861Y49561D01*
Y53058D01*
X68865Y53060D01*
X68937Y53121D01*
X68998Y53193D01*
X69038Y53258D01*
Y49654D01*
G37*
G36*
Y47235D02*X67462D01*
X67349Y47347D01*
X67406Y47352D01*
X67498Y47374D01*
X67585Y47410D01*
X67666Y47459D01*
X67738Y47521D01*
X67787Y47579D01*
X67803Y47575D01*
X67861Y47571D01*
X67920Y47575D01*
X67978Y47589D01*
X68032Y47612D01*
X68082Y47643D01*
X68126Y47682D01*
X69038Y48593D01*
Y47235D01*
G37*
G36*
Y46331D02*X68966Y46360D01*
X68947Y46365D01*
X69038D01*
Y46331D01*
G37*
G36*
Y45269D02*X69029Y45280D01*
X68965Y45334D01*
X68959Y45338D01*
X68966Y45340D01*
X69038Y45370D01*
Y45269D01*
G37*
G36*
Y42900D02*X68678Y43261D01*
X68670Y43270D01*
X68633Y43302D01*
X68633Y43302D01*
X68617Y43311D01*
X68591Y43327D01*
X68559Y43340D01*
X68546Y43346D01*
X68535Y43349D01*
X68498Y43357D01*
X68498Y43357D01*
X68450Y43361D01*
X68438Y43360D01*
X67462D01*
X67450Y43361D01*
X67401Y43357D01*
X67354Y43346D01*
X67308Y43327D01*
X67271Y43304D01*
X67267Y43302D01*
X67267Y43302D01*
X67267Y43302D01*
X67267Y43302D01*
X67230Y43270D01*
X67222Y43261D01*
X66831Y42870D01*
X66815Y42884D01*
X66743Y42928D01*
X66666Y42960D01*
X66584Y42980D01*
X66500Y42987D01*
X66498Y42987D01*
Y43364D01*
X66500Y43363D01*
X66584Y43370D01*
X66666Y43390D01*
X66743Y43422D01*
X66815Y43466D01*
X66879Y43521D01*
X66934Y43585D01*
X66978Y43656D01*
X67010Y43734D01*
X67030Y43816D01*
X67035Y43900D01*
X67030Y43984D01*
X67010Y44066D01*
X66978Y44144D01*
X66934Y44216D01*
X66879Y44280D01*
X66867Y44290D01*
X67438D01*
X67450Y44289D01*
X67498Y44293D01*
X67498Y44293D01*
X67498Y44293D01*
X67523Y44299D01*
X67546Y44304D01*
X67546Y44304D01*
X67546Y44304D01*
X67571Y44315D01*
X67591Y44323D01*
X67591Y44323D01*
X67591Y44323D01*
X67612Y44336D01*
X67632Y44348D01*
X67632Y44348D01*
X67633Y44348D01*
X67660Y44372D01*
X67666Y44370D01*
X67750Y44363D01*
X67834Y44370D01*
X67916Y44390D01*
X67993Y44422D01*
X68065Y44466D01*
X68129Y44521D01*
X68184Y44585D01*
X68200Y44611D01*
X68216Y44585D01*
X68270Y44521D01*
X68334Y44466D01*
X68406Y44422D01*
X68484Y44390D01*
X68566Y44370D01*
X68650Y44363D01*
X68734Y44370D01*
X68816Y44390D01*
X68893Y44422D01*
X68965Y44466D01*
X69029Y44521D01*
X69038Y44531D01*
Y42900D01*
G37*
G36*
X66498Y93848D02*X69038D01*
Y60296D01*
X68860Y60283D01*
X68685Y60241D01*
X68519Y60172D01*
X68366Y60078D01*
X68229Y59961D01*
X68112Y59824D01*
X68018Y59671D01*
X67949Y59504D01*
X67907Y59329D01*
X67893Y59150D01*
X67907Y58971D01*
X67949Y58796D01*
X68018Y58630D01*
X68112Y58476D01*
X68229Y58339D01*
X68366Y58223D01*
X68519Y58129D01*
X68685Y58060D01*
X68860Y58018D01*
X69038Y58004D01*
Y53836D01*
X68998Y53901D01*
X68937Y53973D01*
X68865Y54034D01*
X68785Y54083D01*
X68697Y54119D01*
X68606Y54141D01*
X68511Y54149D01*
X68417Y54141D01*
X68325Y54119D01*
X68238Y54083D01*
X68158Y54034D01*
X68086Y53973D01*
X68025Y53901D01*
X67975Y53820D01*
X67939Y53733D01*
X67917Y53641D01*
X67910Y53547D01*
X67917Y53453D01*
X67939Y53361D01*
X67975Y53274D01*
X68025Y53193D01*
X68086Y53121D01*
X68158Y53060D01*
X68162Y53058D01*
Y49692D01*
X67789Y49320D01*
X67787Y49322D01*
X67715Y49384D01*
X67635Y49433D01*
X67547Y49469D01*
X67456Y49491D01*
X67362Y49499D01*
X67267Y49491D01*
X67176Y49469D01*
X67088Y49433D01*
X67008Y49384D01*
X66936Y49322D01*
X66875Y49251D01*
X66825Y49170D01*
X66789Y49083D01*
X66788Y49080D01*
X66498Y49370D01*
Y52910D01*
X67768Y54180D01*
X67808Y54171D01*
X67900Y54163D01*
X67992Y54171D01*
X68081Y54192D01*
X68166Y54227D01*
X68245Y54275D01*
X68315Y54335D01*
X68375Y54405D01*
X68423Y54484D01*
X68458Y54569D01*
X68479Y54658D01*
X68485Y54750D01*
X68479Y54842D01*
X68458Y54931D01*
X68423Y55016D01*
X68375Y55095D01*
X68315Y55165D01*
X68245Y55225D01*
X68166Y55273D01*
X68081Y55308D01*
X67992Y55330D01*
X67900Y55337D01*
X67808Y55330D01*
X67718Y55308D01*
X67633Y55273D01*
X67555Y55225D01*
X67485Y55165D01*
X67425Y55095D01*
X67377Y55016D01*
X67342Y54931D01*
X67320Y54842D01*
X67313Y54750D01*
X67320Y54658D01*
X67330Y54619D01*
X66498Y53787D01*
Y58004D01*
X66500Y58004D01*
X66679Y58018D01*
X66854Y58060D01*
X67020Y58129D01*
X67174Y58223D01*
X67310Y58339D01*
X67427Y58476D01*
X67521Y58630D01*
X67590Y58796D01*
X67632Y58971D01*
X67643Y59150D01*
X67632Y59329D01*
X67590Y59504D01*
X67521Y59671D01*
X67427Y59824D01*
X67310Y59961D01*
X67174Y60078D01*
X67020Y60172D01*
X66854Y60241D01*
X66679Y60283D01*
X66500Y60297D01*
X66498Y60296D01*
Y93848D01*
G37*
G36*
Y49370D02*X65398Y50470D01*
X65406Y50503D01*
X65411Y50597D01*
X65406Y50691D01*
X65384Y50783D01*
X65348Y50870D01*
X65298Y50951D01*
X65237Y51022D01*
X65165Y51084D01*
X65085Y51133D01*
X64997Y51169D01*
X64905Y51191D01*
X64897Y51192D01*
X64898Y51193D01*
X64948Y51274D01*
X64984Y51361D01*
X65006Y51453D01*
X65011Y51547D01*
X65006Y51641D01*
X64984Y51733D01*
X64948Y51820D01*
X64898Y51901D01*
X64877Y51925D01*
Y52140D01*
X65588D01*
X65600Y52139D01*
X65648Y52143D01*
X65648Y52143D01*
X65696Y52154D01*
X65741Y52173D01*
X65783Y52198D01*
X65820Y52230D01*
X65828Y52239D01*
X66498Y52910D01*
Y49370D01*
G37*
G36*
Y42987D02*X66416Y42980D01*
X66334Y42960D01*
X66256Y42928D01*
X66184Y42884D01*
X66120Y42830D01*
X66066Y42766D01*
X66022Y42694D01*
X65989Y42616D01*
X65970Y42534D01*
X65963Y42450D01*
X65970Y42366D01*
X65989Y42284D01*
X66022Y42206D01*
X66066Y42135D01*
X66120Y42071D01*
X66184Y42016D01*
X66256Y41972D01*
X66334Y41940D01*
X66416Y41920D01*
X66498Y41914D01*
Y4852D01*
X64877D01*
Y28648D01*
X64910Y28610D01*
X64976Y28554D01*
X65049Y28508D01*
X65129Y28475D01*
X65214Y28455D01*
X65300Y28448D01*
X65371Y28454D01*
X65355Y28386D01*
X65348Y28300D01*
X65355Y28214D01*
X65375Y28129D01*
X65408Y28049D01*
X65453Y27976D01*
X65510Y27910D01*
X65576Y27854D01*
X65649Y27808D01*
X65729Y27775D01*
X65814Y27755D01*
X65900Y27748D01*
X65986Y27755D01*
X66070Y27775D01*
X66150Y27808D01*
X66224Y27854D01*
X66290Y27910D01*
X66346Y27976D01*
X66392Y28049D01*
X66425Y28129D01*
X66445Y28214D01*
X66450Y28300D01*
X66445Y28386D01*
X66425Y28471D01*
X66392Y28551D01*
X66346Y28624D01*
X66300Y28679D01*
Y29388D01*
X66301Y29400D01*
X66297Y29447D01*
X66297Y29447D01*
X66286Y29493D01*
X66268Y29537D01*
X66243Y29577D01*
X66213Y29613D01*
X66204Y29621D01*
X65320Y30504D01*
X65313Y30513D01*
X65277Y30544D01*
X65237Y30568D01*
X65193Y30586D01*
X65147Y30597D01*
X65147Y30597D01*
X65100Y30601D01*
X65088Y30600D01*
X64877D01*
Y44284D01*
X65472Y43689D01*
X65480Y43680D01*
X65517Y43648D01*
X65559Y43623D01*
X65604Y43604D01*
X65651Y43593D01*
X65651D01*
X65700Y43589D01*
X65712Y43590D01*
X66062D01*
X66066Y43585D01*
X66120Y43521D01*
X66184Y43466D01*
X66256Y43422D01*
X66334Y43390D01*
X66416Y43370D01*
X66498Y43364D01*
Y42987D01*
G37*
G36*
X64877Y93848D02*X66498D01*
Y60296D01*
X66320Y60283D01*
X66145Y60241D01*
X65979Y60172D01*
X65826Y60078D01*
X65689Y59961D01*
X65572Y59824D01*
X65478Y59671D01*
X65409Y59504D01*
X65367Y59329D01*
X65353Y59150D01*
X65367Y58971D01*
X65409Y58796D01*
X65478Y58630D01*
X65572Y58476D01*
X65689Y58339D01*
X65826Y58223D01*
X65979Y58129D01*
X66145Y58060D01*
X66320Y58018D01*
X66498Y58004D01*
Y53787D01*
X65471Y52760D01*
X64877D01*
Y58605D01*
X64888Y58607D01*
X64917Y58616D01*
X64943Y58630D01*
X64968Y58648D01*
X64989Y58669D01*
X65006Y58693D01*
X65019Y58720D01*
X65057Y58824D01*
X65083Y58931D01*
X65099Y59040D01*
X65104Y59150D01*
X65099Y59260D01*
X65083Y59369D01*
X65057Y59476D01*
X65020Y59580D01*
X65007Y59607D01*
X64989Y59632D01*
X64968Y59653D01*
X64944Y59671D01*
X64917Y59685D01*
X64889Y59695D01*
X64877Y59696D01*
Y93848D01*
G37*
G36*
Y51925D02*X64837Y51973D01*
X64765Y52034D01*
X64685Y52083D01*
X64597Y52119D01*
X64541Y52133D01*
X64546Y52140D01*
X64877D01*
Y51925D01*
G37*
G36*
Y30600D02*X63960D01*
Y45201D01*
X64877Y44284D01*
Y30600D01*
G37*
G36*
Y4852D02*X63960D01*
Y22811D01*
X64308Y23159D01*
X64326Y23174D01*
X64387Y23246D01*
X64436Y23327D01*
X64472Y23414D01*
X64495Y23506D01*
X64502Y23600D01*
X64500Y23624D01*
Y28176D01*
X64502Y28200D01*
X64495Y28294D01*
X64495Y28294D01*
X64472Y28386D01*
X64436Y28473D01*
X64387Y28554D01*
X64326Y28626D01*
X64308Y28641D01*
X64024Y28924D01*
X63960Y28981D01*
Y29475D01*
X64365D01*
X64755Y29085D01*
X64748Y29000D01*
X64755Y28914D01*
X64775Y28829D01*
X64808Y28749D01*
X64853Y28676D01*
X64877Y28648D01*
Y4852D01*
G37*
G36*
X63960Y93848D02*X64877D01*
Y59696D01*
X64859Y59699D01*
X64829Y59700D01*
X64799Y59695D01*
X64770Y59686D01*
X64743Y59673D01*
X64719Y59655D01*
X64697Y59634D01*
X64679Y59610D01*
X64666Y59583D01*
X64656Y59554D01*
X64651Y59525D01*
X64651Y59495D01*
X64655Y59465D01*
X64665Y59436D01*
X64690Y59367D01*
X64708Y59296D01*
X64718Y59223D01*
X64722Y59150D01*
X64718Y59077D01*
X64708Y59004D01*
X64690Y58933D01*
X64666Y58864D01*
X64656Y58835D01*
X64652Y58806D01*
X64652Y58776D01*
X64657Y58746D01*
X64666Y58718D01*
X64680Y58691D01*
X64698Y58667D01*
X64719Y58646D01*
X64744Y58628D01*
X64771Y58615D01*
X64799Y58606D01*
X64829Y58601D01*
X64859Y58602D01*
X64877Y58605D01*
Y52760D01*
X64546D01*
X64525Y52795D01*
X64465Y52865D01*
X64395Y52925D01*
X64316Y52973D01*
X64231Y53008D01*
X64142Y53030D01*
X64050Y53037D01*
X63960Y53030D01*
Y58006D01*
X64070Y58011D01*
X64179Y58027D01*
X64286Y58053D01*
X64390Y58090D01*
X64417Y58103D01*
X64441Y58121D01*
X64463Y58142D01*
X64481Y58166D01*
X64495Y58193D01*
X64504Y58221D01*
X64509Y58251D01*
X64509Y58281D01*
X64505Y58311D01*
X64496Y58340D01*
X64482Y58367D01*
X64465Y58391D01*
X64444Y58413D01*
X64419Y58430D01*
X64393Y58444D01*
X64364Y58454D01*
X64334Y58459D01*
X64304Y58459D01*
X64274Y58454D01*
X64246Y58445D01*
X64177Y58420D01*
X64106Y58402D01*
X64033Y58392D01*
X63960Y58388D01*
Y59912D01*
X64033Y59909D01*
X64106Y59898D01*
X64177Y59880D01*
X64246Y59856D01*
X64275Y59847D01*
X64304Y59842D01*
X64334Y59842D01*
X64364Y59847D01*
X64392Y59857D01*
X64419Y59871D01*
X64443Y59888D01*
X64464Y59910D01*
X64481Y59934D01*
X64495Y59961D01*
X64504Y59989D01*
X64508Y60019D01*
X64508Y60049D01*
X64503Y60079D01*
X64494Y60107D01*
X64480Y60134D01*
X64462Y60158D01*
X64441Y60179D01*
X64416Y60196D01*
X64389Y60209D01*
X64286Y60247D01*
X64179Y60273D01*
X64070Y60289D01*
X63960Y60294D01*
Y93848D01*
G37*
G36*
Y30600D02*X61420D01*
Y47092D01*
X62440Y46072D01*
Y45738D01*
X62434Y45734D01*
X62370Y45680D01*
X62316Y45616D01*
X62272Y45544D01*
X62239Y45466D01*
X62220Y45384D01*
X62213Y45300D01*
X62220Y45216D01*
X62239Y45134D01*
X62272Y45056D01*
X62316Y44985D01*
X62370Y44921D01*
X62434Y44866D01*
X62506Y44822D01*
X62584Y44790D01*
X62666Y44770D01*
X62750Y44763D01*
X62834Y44770D01*
X62916Y44790D01*
X62993Y44822D01*
X63065Y44866D01*
X63129Y44921D01*
X63184Y44985D01*
X63228Y45056D01*
X63260Y45134D01*
X63280Y45216D01*
X63285Y45300D01*
X63280Y45384D01*
X63260Y45466D01*
X63228Y45544D01*
X63184Y45616D01*
X63129Y45680D01*
X63065Y45734D01*
X63060Y45738D01*
Y46102D01*
X63960Y45201D01*
Y30600D01*
G37*
G36*
Y28981D02*X63954Y28987D01*
X63873Y29036D01*
X63786Y29072D01*
X63694Y29095D01*
X63600Y29102D01*
X63506Y29095D01*
X63414Y29072D01*
X63327Y29036D01*
X63246Y28987D01*
X63174Y28926D01*
X63113Y28854D01*
X63064Y28773D01*
X63027Y28686D01*
X63005Y28594D01*
X62998Y28500D01*
X63005Y28406D01*
X63027Y28314D01*
X63064Y28227D01*
X63113Y28146D01*
X63176Y28075D01*
X63300Y27951D01*
Y23849D01*
X62900Y23449D01*
Y28200D01*
X61420D01*
Y29024D01*
X61870Y29475D01*
X63960D01*
Y28981D01*
G37*
G36*
Y4852D02*X61420D01*
Y21900D01*
X62776D01*
X62800Y21898D01*
X62894Y21905D01*
X62894Y21905D01*
X62986Y21927D01*
X63073Y21963D01*
X63154Y22013D01*
X63226Y22074D01*
X63241Y22092D01*
X63960Y22811D01*
Y4852D01*
G37*
G36*
X63042Y93848D02*X63960D01*
Y60294D01*
X63960Y60294D01*
X63850Y60289D01*
X63741Y60273D01*
X63634Y60247D01*
X63530Y60210D01*
X63503Y60197D01*
X63478Y60180D01*
X63457Y60158D01*
X63439Y60134D01*
X63425Y60107D01*
X63415Y60079D01*
X63410Y60049D01*
X63410Y60019D01*
X63415Y59989D01*
X63424Y59961D01*
X63437Y59934D01*
X63455Y59909D01*
X63476Y59888D01*
X63500Y59870D01*
X63527Y59856D01*
X63555Y59846D01*
X63585Y59841D01*
X63615Y59841D01*
X63645Y59846D01*
X63674Y59855D01*
X63743Y59880D01*
X63814Y59898D01*
X63886Y59909D01*
X63960Y59912D01*
X63960Y59912D01*
Y58388D01*
X63960Y58388D01*
X63886Y58392D01*
X63814Y58402D01*
X63743Y58420D01*
X63673Y58444D01*
X63645Y58454D01*
X63615Y58458D01*
X63585Y58458D01*
X63556Y58453D01*
X63527Y58443D01*
X63501Y58430D01*
X63477Y58412D01*
X63455Y58391D01*
X63438Y58366D01*
X63425Y58339D01*
X63416Y58311D01*
X63411Y58281D01*
X63411Y58251D01*
X63416Y58222D01*
X63426Y58193D01*
X63439Y58166D01*
X63457Y58142D01*
X63479Y58121D01*
X63503Y58104D01*
X63530Y58091D01*
X63634Y58053D01*
X63741Y58027D01*
X63850Y58011D01*
X63960Y58006D01*
X63960Y58006D01*
Y53030D01*
X63958Y53030D01*
X63868Y53008D01*
X63783Y52973D01*
X63705Y52925D01*
X63635Y52865D01*
X63575Y52795D01*
X63527Y52716D01*
X63510Y52675D01*
X63506Y52741D01*
X63484Y52833D01*
X63448Y52920D01*
X63398Y53001D01*
X63337Y53072D01*
X63265Y53134D01*
X63185Y53183D01*
X63097Y53219D01*
X63042Y53233D01*
Y53761D01*
X63097Y53775D01*
X63185Y53811D01*
X63265Y53860D01*
X63337Y53921D01*
X63398Y53993D01*
X63448Y54074D01*
X63484Y54161D01*
X63506Y54253D01*
X63511Y54347D01*
X63506Y54441D01*
X63484Y54533D01*
X63448Y54620D01*
X63398Y54701D01*
X63337Y54772D01*
X63265Y54834D01*
X63185Y54883D01*
X63097Y54919D01*
X63042Y54933D01*
Y58604D01*
X63061Y58601D01*
X63091Y58601D01*
X63121Y58605D01*
X63149Y58614D01*
X63176Y58628D01*
X63201Y58645D01*
X63222Y58666D01*
X63240Y58691D01*
X63254Y58717D01*
X63263Y58746D01*
X63268Y58776D01*
X63269Y58806D01*
X63264Y58835D01*
X63254Y58864D01*
X63229Y58933D01*
X63212Y59004D01*
X63201Y59077D01*
X63198Y59150D01*
X63201Y59223D01*
X63212Y59296D01*
X63229Y59367D01*
X63254Y59437D01*
X63263Y59465D01*
X63268Y59495D01*
X63267Y59525D01*
X63263Y59554D01*
X63253Y59583D01*
X63239Y59609D01*
X63221Y59633D01*
X63200Y59654D01*
X63176Y59672D01*
X63149Y59685D01*
X63120Y59694D01*
X63091Y59699D01*
X63061Y59699D01*
X63042Y59695D01*
Y93848D01*
G37*
G36*
Y53233D02*X63006Y53241D01*
X62911Y53249D01*
X62817Y53241D01*
X62725Y53219D01*
X62638Y53183D01*
X62558Y53134D01*
X62486Y53072D01*
X62425Y53001D01*
X62392Y52947D01*
X61420D01*
Y53196D01*
X62246Y54022D01*
X62407D01*
X62425Y53993D01*
X62486Y53921D01*
X62558Y53860D01*
X62638Y53811D01*
X62725Y53775D01*
X62817Y53753D01*
X62911Y53745D01*
X63006Y53753D01*
X63042Y53761D01*
Y53233D01*
G37*
G36*
X61420Y93848D02*X63042D01*
Y59695D01*
X63031Y59694D01*
X63003Y59684D01*
X62976Y59670D01*
X62952Y59653D01*
X62931Y59631D01*
X62913Y59607D01*
X62901Y59580D01*
X62863Y59476D01*
X62837Y59369D01*
X62821Y59260D01*
X62815Y59150D01*
X62821Y59040D01*
X62837Y58931D01*
X62863Y58824D01*
X62899Y58720D01*
X62913Y58693D01*
X62930Y58668D01*
X62951Y58647D01*
X62976Y58629D01*
X63002Y58615D01*
X63031Y58606D01*
X63042Y58604D01*
Y54933D01*
X63006Y54941D01*
X62911Y54949D01*
X62817Y54941D01*
X62725Y54919D01*
X62638Y54883D01*
X62558Y54834D01*
X62486Y54772D01*
X62425Y54701D01*
X62407Y54672D01*
X62124D01*
X62111Y54673D01*
X62060Y54669D01*
X62060Y54669D01*
X62060D01*
X62049Y54666D01*
X62011Y54657D01*
X62011Y54657D01*
X62011Y54657D01*
X62003Y54654D01*
X61963Y54637D01*
X61963Y54637D01*
X61963Y54637D01*
X61961Y54636D01*
X61920Y54611D01*
X61920Y54611D01*
X61920Y54611D01*
X61881Y54577D01*
X61873Y54568D01*
X61420Y54115D01*
Y58009D01*
X62242Y58011D01*
X62300Y58025D01*
X62355Y58048D01*
X62406Y58079D01*
X62452Y58118D01*
X62491Y58163D01*
X62522Y58215D01*
X62545Y58270D01*
X62559Y58328D01*
X62563Y58388D01*
X62559Y59972D01*
X62545Y60030D01*
X62522Y60086D01*
X62491Y60137D01*
X62452Y60182D01*
X62406Y60221D01*
X62355Y60253D01*
X62300Y60276D01*
X62242Y60290D01*
X62182Y60293D01*
X61420Y60291D01*
Y93848D01*
G37*
G36*
Y28200D02*X60967D01*
X60970Y28210D01*
X60975Y28300D01*
X60970Y28390D01*
X60949Y28478D01*
X60927Y28531D01*
X61420Y29024D01*
Y28200D01*
G37*
G36*
Y52947D02*X61191D01*
X61217Y52963D01*
X61259Y52999D01*
X61295Y53041D01*
X61324Y53088D01*
X61333Y53109D01*
X61420Y53196D01*
Y52947D01*
G37*
G36*
X51998Y35540D02*X53609D01*
X55740Y33410D01*
Y33373D01*
X55722Y33344D01*
X55689Y33266D01*
X55670Y33184D01*
X55663Y33100D01*
X55670Y33016D01*
X55689Y32934D01*
X55722Y32856D01*
X55766Y32785D01*
X55820Y32721D01*
X55884Y32666D01*
X55956Y32622D01*
X56034Y32590D01*
X56116Y32570D01*
X56200Y32563D01*
X56284Y32570D01*
X56366Y32590D01*
X56443Y32622D01*
X56515Y32666D01*
X56579Y32721D01*
X56634Y32785D01*
X56678Y32856D01*
X56710Y32934D01*
X56730Y33016D01*
X56735Y33100D01*
X56730Y33184D01*
X56710Y33266D01*
X56678Y33344D01*
X56660Y33373D01*
Y33582D01*
X56661Y33600D01*
X56656Y33672D01*
X56656Y33672D01*
X56639Y33743D01*
X56611Y33810D01*
X56573Y33871D01*
X56526Y33926D01*
X56512Y33938D01*
X54138Y36313D01*
X54126Y36326D01*
X54071Y36373D01*
X54009Y36411D01*
X53942Y36439D01*
X53872Y36456D01*
X53872Y36456D01*
X53800Y36462D01*
X53782Y36460D01*
X51998D01*
Y43224D01*
X52000Y43224D01*
X52163Y43237D01*
X52323Y43275D01*
X52475Y43338D01*
X52615Y43424D01*
X52740Y43530D01*
X52846Y43655D01*
X52932Y43795D01*
X52995Y43947D01*
X53033Y44106D01*
X53043Y44270D01*
X53033Y44434D01*
X52995Y44593D01*
X52932Y44745D01*
X52846Y44885D01*
X52740Y45010D01*
X52615Y45117D01*
X52475Y45202D01*
X52323Y45265D01*
X52163Y45303D01*
X52000Y45316D01*
X51998Y45316D01*
Y45764D01*
X52000Y45764D01*
X52163Y45777D01*
X52323Y45815D01*
X52475Y45878D01*
X52615Y45964D01*
X52740Y46070D01*
X52846Y46195D01*
X52932Y46335D01*
X52995Y46487D01*
X53033Y46646D01*
X53043Y46810D01*
X53033Y46974D01*
X52995Y47133D01*
X52932Y47285D01*
X52846Y47425D01*
X52740Y47550D01*
X52615Y47657D01*
X52475Y47742D01*
X52323Y47805D01*
X52163Y47843D01*
X52000Y47856D01*
X51998Y47856D01*
Y48204D01*
X52000Y48204D01*
X52179Y48218D01*
X52354Y48260D01*
X52520Y48329D01*
X52674Y48423D01*
X52811Y48539D01*
X52927Y48676D01*
X53021Y48830D01*
X53090Y48996D01*
X53132Y49171D01*
X53143Y49350D01*
X53132Y49529D01*
X53090Y49704D01*
X53021Y49871D01*
X52992Y49918D01*
X55421Y52347D01*
X61420D01*
Y50950D01*
X60116Y49647D01*
X58361D01*
X58319Y49716D01*
X58255Y49791D01*
X58180Y49855D01*
X58096Y49906D01*
X58005Y49944D01*
X57909Y49967D01*
X57811Y49975D01*
X57713Y49967D01*
X57617Y49944D01*
X57526Y49906D01*
X57442Y49855D01*
X57367Y49791D01*
X57304Y49716D01*
X57252Y49632D01*
X57250Y49627D01*
X57222Y49615D01*
X57181Y49590D01*
X57146Y49560D01*
X57138Y49551D01*
X55234Y47647D01*
X55202D01*
X55178Y47686D01*
X55119Y47755D01*
X55051Y47814D01*
X54973Y47861D01*
X54890Y47896D01*
X54802Y47917D01*
X54712Y47924D01*
X54621Y47917D01*
X54533Y47896D01*
X54450Y47861D01*
X54373Y47814D01*
X54304Y47755D01*
X54245Y47686D01*
X54198Y47609D01*
X54163Y47525D01*
X54142Y47437D01*
X54135Y47347D01*
X54142Y47257D01*
X54163Y47169D01*
X54198Y47085D01*
X54245Y47008D01*
X54304Y46939D01*
X54373Y46881D01*
X54450Y46833D01*
X54533Y46799D01*
X54621Y46778D01*
X54712Y46770D01*
X54802Y46778D01*
X54890Y46799D01*
X54973Y46833D01*
X55051Y46881D01*
X55119Y46939D01*
X55178Y47008D01*
X55202Y47047D01*
X55347D01*
X55359Y47046D01*
X55405Y47050D01*
X55406Y47050D01*
X55406Y47050D01*
X55406Y47050D01*
X55427Y47055D01*
X55451Y47061D01*
X55452Y47061D01*
X55452Y47061D01*
X55471Y47069D01*
X55495Y47079D01*
X55495Y47079D01*
X55495Y47079D01*
X55513Y47090D01*
X55535Y47104D01*
X55535Y47104D01*
X55535Y47104D01*
X55536Y47104D01*
X55571Y47134D01*
X55579Y47143D01*
X55602Y47166D01*
X55602Y47166D01*
X57354Y48919D01*
X57367Y48903D01*
X57442Y48839D01*
X57526Y48788D01*
X57617Y48750D01*
X57713Y48727D01*
X57811Y48719D01*
X57909Y48727D01*
X58005Y48750D01*
X58096Y48788D01*
X58180Y48839D01*
X58255Y48903D01*
X58319Y48978D01*
X58361Y49047D01*
X60004D01*
Y48648D01*
X60003Y48635D01*
X60007Y48587D01*
X60019Y48539D01*
X60037Y48494D01*
X60053Y48468D01*
X60063Y48453D01*
X60095Y48415D01*
X60104Y48408D01*
X61420Y47092D01*
Y30600D01*
X59461D01*
X59446Y30624D01*
X59390Y30690D01*
X59324Y30746D01*
X59250Y30792D01*
X59170Y30825D01*
X59086Y30845D01*
X59000Y30852D01*
X58913Y30845D01*
X58886Y30838D01*
X57721Y32004D01*
X57713Y32013D01*
X57677Y32044D01*
X57677Y32044D01*
X57677Y32044D01*
X57677Y32044D01*
X57642Y32065D01*
X57637Y32068D01*
X57637Y32068D01*
X57637Y32068D01*
X57609Y32080D01*
X57593Y32087D01*
X57593Y32087D01*
X57593Y32087D01*
X57565Y32093D01*
X57547Y32098D01*
X57547Y32098D01*
X57547Y32098D01*
X57547Y32098D01*
X57500Y32101D01*
X57488Y32100D01*
X56278D01*
X56248Y32107D01*
X56200Y32110D01*
X52282D01*
X52230Y32155D01*
X52155Y32201D01*
X52073Y32234D01*
X51998Y32252D01*
Y35540D01*
G37*
G36*
X61420Y4852D02*X51998D01*
Y29490D01*
X53533D01*
X53545Y29470D01*
X53603Y29403D01*
X53670Y29346D01*
X53745Y29300D01*
X53826Y29266D01*
X53912Y29245D01*
X54000Y29238D01*
X54088Y29245D01*
X54173Y29266D01*
X54255Y29300D01*
X54330Y29346D01*
X54397Y29403D01*
X54454Y29470D01*
X54500Y29545D01*
X54534Y29627D01*
X54555Y29712D01*
X54560Y29800D01*
X54555Y29888D01*
X54534Y29974D01*
X54500Y30055D01*
X54454Y30130D01*
X54397Y30197D01*
X54330Y30255D01*
X54255Y30301D01*
X54173Y30334D01*
X54088Y30355D01*
X54000Y30362D01*
X53912Y30355D01*
X53826Y30334D01*
X53745Y30301D01*
X53670Y30255D01*
X53603Y30197D01*
X53545Y30130D01*
X53533Y30110D01*
X51998D01*
Y30226D01*
X52030Y30246D01*
X52097Y30303D01*
X52154Y30370D01*
X52200Y30445D01*
X52234Y30527D01*
X52255Y30612D01*
X52260Y30700D01*
X52256Y30765D01*
X55700D01*
X55752Y30768D01*
X55780Y30775D01*
X57030D01*
X57552Y30252D01*
X57548Y30200D01*
X57555Y30114D01*
X57575Y30029D01*
X57608Y29949D01*
X57654Y29876D01*
X57710Y29810D01*
X57776Y29754D01*
X57849Y29708D01*
X57929Y29675D01*
X58014Y29655D01*
X58100Y29648D01*
X58152Y29652D01*
X58442Y29362D01*
X58451Y29352D01*
X58493Y29316D01*
X58493Y29316D01*
X58493Y29316D01*
X58493Y29316D01*
X58516Y29302D01*
X58540Y29287D01*
X58540Y29287D01*
X58540Y29287D01*
X58572Y29274D01*
X58591Y29266D01*
X58591Y29266D01*
X58591Y29266D01*
X58611Y29261D01*
X58645Y29253D01*
X58645D01*
X58645Y29253D01*
X58645Y29253D01*
X58700Y29249D01*
X58714Y29250D01*
X58920D01*
X59826Y28343D01*
X59823Y28300D01*
X59830Y28210D01*
X59832Y28200D01*
X57500D01*
Y23520D01*
X57473Y23536D01*
X57386Y23573D01*
X57294Y23595D01*
X57200Y23602D01*
X57106Y23595D01*
X57014Y23573D01*
X56926Y23536D01*
X56846Y23487D01*
X56774Y23426D01*
X56713Y23354D01*
X56663Y23273D01*
X56627Y23186D01*
X56605Y23094D01*
X56598Y23000D01*
X56605Y22906D01*
X56627Y22814D01*
X56663Y22727D01*
X56713Y22646D01*
X56775Y22576D01*
X57259Y22092D01*
X57274Y22074D01*
X57346Y22013D01*
X57346Y22013D01*
X57346Y22013D01*
X57398Y21981D01*
X57427Y21963D01*
X57427Y21963D01*
X57427Y21963D01*
X57482Y21941D01*
X57514Y21927D01*
X57514Y21927D01*
X57514Y21927D01*
X57573Y21913D01*
X57606Y21905D01*
X57606Y21905D01*
X57606Y21905D01*
X57700Y21898D01*
X57724Y21900D01*
X61420D01*
Y4852D01*
G37*
G36*
X51998Y30110D02*X51554D01*
X51555Y30112D01*
X51557Y30158D01*
X51612Y30145D01*
X51700Y30138D01*
X51788Y30145D01*
X51873Y30166D01*
X51955Y30200D01*
X51998Y30226D01*
Y30110D01*
G37*
G36*
Y47856D02*X51836Y47843D01*
X51677Y47805D01*
X51525Y47742D01*
X51385Y47657D01*
X51260Y47550D01*
X51153Y47425D01*
X51068Y47285D01*
X51020Y47170D01*
X49503D01*
Y48065D01*
X50478Y49040D01*
X50899D01*
X50909Y48996D01*
X50978Y48830D01*
X51072Y48676D01*
X51189Y48539D01*
X51326Y48423D01*
X51479Y48329D01*
X51646Y48260D01*
X51820Y48218D01*
X51998Y48204D01*
Y47856D01*
G37*
G36*
Y36460D02*X49918D01*
X49900Y36462D01*
X49828Y36456D01*
X49757Y36439D01*
X49690Y36411D01*
X49629Y36373D01*
X49629Y36373D01*
X49573Y36326D01*
X49562Y36313D01*
X49503Y36254D01*
Y46450D01*
X51020D01*
X51068Y46335D01*
X51153Y46195D01*
X51260Y46070D01*
X51385Y45964D01*
X51525Y45878D01*
X51677Y45815D01*
X51836Y45777D01*
X51998Y45764D01*
Y45316D01*
X51836Y45303D01*
X51677Y45265D01*
X51525Y45202D01*
X51385Y45117D01*
X51260Y45010D01*
X51153Y44885D01*
X51068Y44745D01*
X51005Y44593D01*
X50966Y44434D01*
X50954Y44270D01*
X50966Y44106D01*
X51005Y43947D01*
X51068Y43795D01*
X51153Y43655D01*
X51260Y43530D01*
X51385Y43424D01*
X51525Y43338D01*
X51677Y43275D01*
X51836Y43237D01*
X51998Y43224D01*
Y36460D01*
G37*
G36*
Y4852D02*X49503D01*
Y34953D01*
X50090Y35540D01*
X51998D01*
Y32252D01*
X51988Y32255D01*
X51900Y32262D01*
X51812Y32255D01*
X51726Y32234D01*
X51645Y32201D01*
X51570Y32155D01*
X51503Y32097D01*
X51445Y32030D01*
X51399Y31955D01*
X51366Y31874D01*
X51345Y31788D01*
X51338Y31700D01*
X51345Y31612D01*
X51366Y31527D01*
X51399Y31445D01*
X51445Y31370D01*
X51503Y31303D01*
X51570Y31246D01*
X51571Y31245D01*
X51526Y31234D01*
X51445Y31201D01*
X51370Y31155D01*
X51303Y31097D01*
X51245Y31030D01*
X51199Y30955D01*
X51166Y30874D01*
X51145Y30788D01*
X51141Y30742D01*
X51088Y30755D01*
X51000Y30762D01*
X50912Y30755D01*
X50826Y30734D01*
X50745Y30701D01*
X50670Y30655D01*
X50603Y30597D01*
X50545Y30530D01*
X50499Y30455D01*
X50466Y30374D01*
X50445Y30288D01*
X50438Y30200D01*
X50445Y30112D01*
X50466Y30027D01*
X50499Y29945D01*
X50545Y29870D01*
X50603Y29803D01*
X50670Y29746D01*
X50745Y29700D01*
X50826Y29666D01*
X50912Y29645D01*
X51000Y29638D01*
X51088Y29645D01*
X51111Y29651D01*
X51172Y29589D01*
X51180Y29580D01*
X51217Y29548D01*
X51233Y29539D01*
X51259Y29523D01*
X51304Y29504D01*
X51351Y29493D01*
X51400Y29489D01*
X51412Y29490D01*
X51998D01*
Y4852D01*
G37*
G36*
X52952Y93848D02*X61420D01*
Y60291D01*
X60598Y60290D01*
X60540Y60276D01*
X60484Y60253D01*
X60433Y60221D01*
X60388Y60182D01*
X60349Y60137D01*
X60317Y60086D01*
X60294Y60030D01*
X60280Y59972D01*
X60277Y59912D01*
X60280Y58328D01*
X60294Y58270D01*
X60317Y58215D01*
X60349Y58163D01*
X60388Y58118D01*
X60433Y58079D01*
X60484Y58048D01*
X60540Y58025D01*
X60598Y58011D01*
X60658Y58007D01*
X61420Y58009D01*
Y54115D01*
X60902Y53597D01*
X53370D01*
X53356Y53598D01*
X53302Y53594D01*
X53301Y53594D01*
X53301Y53594D01*
X53301Y53594D01*
X53270Y53586D01*
X53248Y53581D01*
X53248Y53581D01*
X53248Y53581D01*
X53219Y53569D01*
X53197Y53560D01*
X53197Y53560D01*
X53197Y53560D01*
X53169Y53543D01*
X53150Y53531D01*
X53150Y53531D01*
X53150Y53531D01*
X53150Y53531D01*
X53108Y53495D01*
X53099Y53485D01*
X52952Y53338D01*
Y53858D01*
X52982Y53860D01*
X53011Y53867D01*
X53039Y53879D01*
X53065Y53895D01*
X53087Y53914D01*
X53107Y53937D01*
X53123Y53962D01*
X53134Y53990D01*
X53141Y54019D01*
X53143Y54049D01*
Y54811D01*
X53141Y54841D01*
X53134Y54870D01*
X53123Y54898D01*
X53107Y54923D01*
X53087Y54946D01*
X53065Y54966D01*
X53039Y54981D01*
X53011Y54993D01*
X52982Y55000D01*
X52952Y55002D01*
Y93848D01*
G37*
G36*
X52000D02*X52952D01*
Y55002D01*
X52922Y55000D01*
X52893Y54993D01*
X52866Y54981D01*
X52840Y54966D01*
X52817Y54946D01*
X52798Y54923D01*
X52782Y54898D01*
X52771Y54870D01*
X52764Y54841D01*
X52762Y54811D01*
Y54049D01*
X52764Y54019D01*
X52771Y53990D01*
X52782Y53962D01*
X52798Y53937D01*
X52817Y53914D01*
X52840Y53895D01*
X52866Y53879D01*
X52893Y53867D01*
X52922Y53860D01*
X52952Y53858D01*
Y53338D01*
X52524Y52909D01*
X52520Y52912D01*
X52354Y52981D01*
X52179Y53023D01*
X52000Y53037D01*
Y53287D01*
X52381D01*
X52411Y53289D01*
X52440Y53296D01*
X52468Y53307D01*
X52493Y53323D01*
X52516Y53342D01*
X52535Y53365D01*
X52551Y53391D01*
X52563Y53419D01*
X52570Y53448D01*
X52572Y53478D01*
X52570Y53507D01*
X52563Y53537D01*
X52551Y53564D01*
X52535Y53590D01*
X52516Y53613D01*
X52493Y53632D01*
X52468Y53648D01*
X52440Y53659D01*
X52411Y53666D01*
X52381Y53668D01*
X52000D01*
Y55192D01*
X52381D01*
X52411Y55194D01*
X52440Y55201D01*
X52468Y55212D01*
X52493Y55228D01*
X52516Y55247D01*
X52535Y55270D01*
X52551Y55296D01*
X52563Y55324D01*
X52570Y55353D01*
X52572Y55383D01*
X52570Y55412D01*
X52563Y55442D01*
X52551Y55469D01*
X52535Y55495D01*
X52516Y55518D01*
X52493Y55537D01*
X52468Y55553D01*
X52440Y55564D01*
X52411Y55571D01*
X52381Y55573D01*
X52000D01*
Y93848D01*
G37*
G36*
X51047D02*X52000D01*
Y55573D01*
X51619D01*
X51589Y55571D01*
X51560Y55564D01*
X51532Y55553D01*
X51506Y55537D01*
X51484Y55518D01*
X51464Y55495D01*
X51449Y55469D01*
X51437Y55442D01*
X51430Y55412D01*
X51428Y55383D01*
X51430Y55353D01*
X51437Y55324D01*
X51449Y55296D01*
X51464Y55270D01*
X51484Y55247D01*
X51506Y55228D01*
X51532Y55212D01*
X51560Y55201D01*
X51589Y55194D01*
X51619Y55192D01*
X52000D01*
Y53668D01*
X51619D01*
X51589Y53666D01*
X51560Y53659D01*
X51532Y53648D01*
X51506Y53632D01*
X51484Y53613D01*
X51464Y53590D01*
X51449Y53564D01*
X51437Y53537D01*
X51430Y53507D01*
X51428Y53478D01*
X51430Y53448D01*
X51437Y53419D01*
X51449Y53391D01*
X51464Y53365D01*
X51484Y53342D01*
X51506Y53323D01*
X51532Y53307D01*
X51560Y53296D01*
X51589Y53289D01*
X51619Y53287D01*
X52000D01*
Y53037D01*
X52000D01*
X51820Y53023D01*
X51646Y52981D01*
X51479Y52912D01*
X51326Y52818D01*
X51189Y52701D01*
X51072Y52564D01*
X51047Y52523D01*
Y53858D01*
X51077Y53860D01*
X51106Y53867D01*
X51134Y53879D01*
X51160Y53895D01*
X51182Y53914D01*
X51202Y53937D01*
X51218Y53962D01*
X51229Y53990D01*
X51236Y54019D01*
X51238Y54049D01*
Y54811D01*
X51236Y54841D01*
X51229Y54870D01*
X51218Y54898D01*
X51202Y54923D01*
X51182Y54946D01*
X51160Y54966D01*
X51134Y54981D01*
X51106Y54993D01*
X51077Y55000D01*
X51047Y55002D01*
Y93848D01*
G37*
G36*
X49503D02*X51047D01*
Y55002D01*
X51017Y55000D01*
X50988Y54993D01*
X50961Y54981D01*
X50935Y54966D01*
X50912Y54946D01*
X50893Y54923D01*
X50877Y54898D01*
X50866Y54870D01*
X50859Y54841D01*
X50857Y54811D01*
Y54049D01*
X50859Y54019D01*
X50866Y53990D01*
X50877Y53962D01*
X50893Y53937D01*
X50912Y53914D01*
X50935Y53895D01*
X50961Y53879D01*
X50988Y53867D01*
X51017Y53860D01*
X51047Y53858D01*
Y52523D01*
X50978Y52411D01*
X50909Y52244D01*
X50867Y52069D01*
X50853Y51890D01*
X50867Y51711D01*
X50909Y51536D01*
X50978Y51370D01*
X51002Y51331D01*
X49503Y49832D01*
Y53953D01*
X49632Y54082D01*
X49666Y54090D01*
X49743Y54122D01*
X49815Y54166D01*
X49879Y54221D01*
X49934Y54285D01*
X49978Y54356D01*
X50010Y54434D01*
X50030Y54516D01*
X50035Y54600D01*
X50030Y54684D01*
X50010Y54766D01*
X49978Y54844D01*
X49934Y54916D01*
X49879Y54980D01*
X49815Y55034D01*
X49743Y55078D01*
X49666Y55110D01*
X49584Y55130D01*
X49503Y55136D01*
Y93848D01*
G37*
G36*
X34658Y87613D02*X34706Y87573D01*
X34840Y87490D01*
Y85800D01*
X34658D01*
Y87613D01*
G37*
G36*
Y32305D02*X34729Y32275D01*
X34813Y32255D01*
X34900Y32248D01*
X34986Y32255D01*
X35070Y32275D01*
X35150Y32308D01*
X35224Y32354D01*
X35290Y32410D01*
X35337Y32465D01*
X35461D01*
X35963Y31963D01*
X36002Y31928D01*
X36032Y31910D01*
X34658D01*
Y32305D01*
G37*
G36*
X45704Y93848D02*X49503D01*
Y55136D01*
X49500Y55137D01*
X49416Y55130D01*
X49334Y55110D01*
X49256Y55078D01*
X49184Y55034D01*
X49120Y54980D01*
X49066Y54916D01*
X49022Y54844D01*
X48989Y54766D01*
X48981Y54732D01*
X47001Y52752D01*
X46926Y52734D01*
X46845Y52701D01*
X46770Y52655D01*
X46703Y52597D01*
X46645Y52530D01*
X46599Y52455D01*
X46566Y52374D01*
X46545Y52288D01*
X46538Y52200D01*
X46545Y52112D01*
X46566Y52027D01*
X46599Y51945D01*
X46645Y51870D01*
X46703Y51803D01*
X46770Y51746D01*
X46845Y51700D01*
X46926Y51666D01*
X47012Y51645D01*
X47100Y51638D01*
X47188Y51645D01*
X47273Y51666D01*
X47355Y51700D01*
X47430Y51746D01*
X47497Y51803D01*
X47554Y51870D01*
X47600Y51945D01*
X47634Y52027D01*
X47652Y52102D01*
X49503Y53953D01*
Y49832D01*
X48381Y48710D01*
X46912D01*
X46900Y48711D01*
X46851Y48707D01*
X46804Y48696D01*
X46759Y48677D01*
X46717Y48652D01*
X46717Y48652D01*
X46680Y48620D01*
X46672Y48611D01*
X46089Y48028D01*
X46080Y48020D01*
X46048Y47983D01*
X46023Y47941D01*
X46004Y47896D01*
X45993Y47849D01*
X45993Y47849D01*
X45989Y47800D01*
X45990Y47788D01*
Y47412D01*
X45989Y47400D01*
X45993Y47351D01*
Y47351D01*
X46004Y47304D01*
X46023Y47259D01*
X46048Y47217D01*
X46080Y47180D01*
X46089Y47172D01*
X46672Y46589D01*
X46680Y46580D01*
X46717Y46548D01*
X46759Y46523D01*
X46804Y46504D01*
X46851Y46493D01*
X46851D01*
X46900Y46489D01*
X46912Y46490D01*
X47062D01*
X47066Y46485D01*
X47120Y46421D01*
X47184Y46366D01*
X47256Y46322D01*
X47334Y46290D01*
X47416Y46270D01*
X47500Y46263D01*
X47584Y46270D01*
X47666Y46290D01*
X47743Y46322D01*
X47815Y46366D01*
X47879Y46421D01*
X47934Y46485D01*
X47978Y46556D01*
X48010Y46634D01*
X48030Y46716D01*
X48035Y46800D01*
X48030Y46884D01*
X48010Y46966D01*
X47978Y47044D01*
X47934Y47116D01*
X47879Y47180D01*
X47815Y47234D01*
X47743Y47278D01*
X47715Y47290D01*
X48588D01*
X48600Y47289D01*
X48648Y47293D01*
X48648Y47293D01*
X48696Y47304D01*
X48741Y47323D01*
X48783Y47348D01*
X48820Y47380D01*
X48828Y47389D01*
X49503Y48065D01*
Y47170D01*
X49124D01*
X49110Y47171D01*
X49053Y47167D01*
X48998Y47154D01*
X48946Y47132D01*
X48897Y47102D01*
X48897Y47102D01*
X48854Y47066D01*
X48845Y47055D01*
X47651Y45860D01*
X46896D01*
X46879Y45880D01*
X46815Y45934D01*
X46743Y45978D01*
X46666Y46010D01*
X46584Y46030D01*
X46500Y46037D01*
X46416Y46030D01*
X46334Y46010D01*
X46256Y45978D01*
X46184Y45934D01*
X46120Y45880D01*
X46066Y45816D01*
X46022Y45744D01*
X45989Y45666D01*
X45970Y45584D01*
X45963Y45500D01*
X45970Y45416D01*
X45989Y45334D01*
X46022Y45256D01*
X46066Y45185D01*
X46120Y45121D01*
X46184Y45066D01*
X46256Y45022D01*
X46334Y44990D01*
X46416Y44970D01*
X46500Y44963D01*
X46584Y44970D01*
X46666Y44990D01*
X46743Y45022D01*
X46815Y45066D01*
X46879Y45121D01*
X46896Y45140D01*
X47786D01*
X47800Y45139D01*
X47856Y45143D01*
X47856Y45143D01*
X47911Y45157D01*
X47964Y45178D01*
X48012Y45208D01*
X48055Y45245D01*
X48064Y45255D01*
X49259Y46450D01*
X49503D01*
Y36254D01*
X48487Y35238D01*
X48473Y35226D01*
X48426Y35171D01*
X48389Y35110D01*
X48361Y35043D01*
X48347Y34985D01*
X48322Y34944D01*
X48289Y34866D01*
X48270Y34784D01*
X48263Y34700D01*
X48270Y34616D01*
X48289Y34534D01*
X48322Y34456D01*
X48366Y34385D01*
X48420Y34321D01*
X48484Y34266D01*
X48556Y34222D01*
X48634Y34190D01*
X48716Y34170D01*
X48800Y34163D01*
X48884Y34170D01*
X48966Y34190D01*
X49043Y34222D01*
X49115Y34266D01*
X49179Y34321D01*
X49234Y34385D01*
X49278Y34456D01*
X49310Y34534D01*
X49330Y34616D01*
X49335Y34700D01*
X49330Y34780D01*
X49503Y34953D01*
Y4852D01*
X45704D01*
Y19481D01*
X46843Y18342D01*
X46845Y18312D01*
X46866Y18227D01*
X46899Y18145D01*
X46945Y18070D01*
X47003Y18003D01*
X47070Y17946D01*
X47145Y17900D01*
X47226Y17866D01*
X47312Y17845D01*
X47400Y17838D01*
X47488Y17845D01*
X47573Y17866D01*
X47655Y17900D01*
X47730Y17946D01*
X47797Y18003D01*
X47854Y18070D01*
X47900Y18145D01*
X47934Y18227D01*
X47955Y18312D01*
X47960Y18400D01*
X47955Y18488D01*
X47934Y18574D01*
X47900Y18655D01*
X47854Y18730D01*
X47797Y18797D01*
X47730Y18855D01*
X47655Y18901D01*
X47573Y18934D01*
X47488Y18955D01*
X47458Y18957D01*
X45704Y20711D01*
Y52766D01*
X48110Y55172D01*
X48116Y55170D01*
X48200Y55163D01*
X48284Y55170D01*
X48366Y55190D01*
X48443Y55222D01*
X48515Y55266D01*
X48579Y55321D01*
X48634Y55385D01*
X48678Y55456D01*
X48710Y55534D01*
X48730Y55616D01*
X48735Y55700D01*
X48730Y55784D01*
X48710Y55866D01*
X48678Y55944D01*
X48634Y56016D01*
X48579Y56080D01*
X48515Y56134D01*
X48443Y56178D01*
X48366Y56210D01*
X48284Y56230D01*
X48200Y56237D01*
X48116Y56230D01*
X48034Y56210D01*
X47956Y56178D01*
X47884Y56134D01*
X47820Y56080D01*
X47766Y56016D01*
X47722Y55944D01*
X47689Y55866D01*
X47670Y55784D01*
X47663Y55700D01*
X47670Y55616D01*
X47671Y55610D01*
X45704Y53643D01*
Y93848D01*
G37*
G36*
X43299Y40927D02*X43493Y40733D01*
X43443Y40691D01*
X43386Y40624D01*
X43340Y40548D01*
X43306Y40467D01*
X43299Y40439D01*
Y40927D01*
G37*
G36*
Y50361D02*X45704Y52766D01*
Y20711D01*
X45019Y21396D01*
X45008Y21409D01*
X44956Y21453D01*
X44898Y21489D01*
X44835Y21515D01*
X44768Y21531D01*
X44700Y21536D01*
X44683Y21535D01*
X44338D01*
X44324Y21547D01*
X44250Y21592D01*
X44170Y21625D01*
X44086Y21645D01*
X44000Y21652D01*
X43913Y21645D01*
X43829Y21625D01*
X43749Y21592D01*
X43675Y21547D01*
X43610Y21490D01*
X43553Y21424D01*
X43508Y21351D01*
X43475Y21271D01*
X43455Y21186D01*
X43448Y21100D01*
X43455Y21014D01*
X43475Y20930D01*
X43508Y20850D01*
X43553Y20776D01*
X43610Y20710D01*
X43675Y20654D01*
X43749Y20608D01*
X43829Y20575D01*
X43913Y20555D01*
X44000Y20548D01*
X44086Y20555D01*
X44170Y20575D01*
X44250Y20608D01*
X44324Y20654D01*
X44338Y20665D01*
X44520D01*
X45704Y19481D01*
Y4852D01*
X43299D01*
Y23048D01*
X43300Y23048D01*
X43386Y23055D01*
X43470Y23075D01*
X43550Y23108D01*
X43624Y23154D01*
X43690Y23210D01*
X43746Y23276D01*
X43791Y23349D01*
X43825Y23429D01*
X43845Y23514D01*
X43850Y23600D01*
X43845Y23686D01*
X43825Y23771D01*
X43791Y23851D01*
X43746Y23924D01*
X43690Y23990D01*
X43624Y24046D01*
X43550Y24092D01*
X43470Y24125D01*
X43386Y24145D01*
X43300Y24152D01*
X43299Y24152D01*
Y30555D01*
X43323Y30565D01*
X43418Y30624D01*
X43503Y30696D01*
X43576Y30781D01*
X43634Y30877D01*
X43677Y30980D01*
X43703Y31089D01*
X43712Y31200D01*
X43703Y31312D01*
X43677Y31420D01*
X43634Y31523D01*
X43576Y31619D01*
X43503Y31704D01*
X43418Y31776D01*
X43323Y31835D01*
X43299Y31845D01*
Y40148D01*
X43306Y40120D01*
X43340Y40038D01*
X43386Y39963D01*
X43443Y39896D01*
X43510Y39839D01*
X43585Y39793D01*
X43666Y39759D01*
X43752Y39739D01*
X43840Y39732D01*
X43928Y39739D01*
X44014Y39759D01*
X44095Y39793D01*
X44170Y39839D01*
X44237Y39896D01*
X44294Y39963D01*
X44340Y40038D01*
X44374Y40120D01*
X44395Y40206D01*
X44400Y40293D01*
X44395Y40381D01*
X44374Y40467D01*
X44340Y40548D01*
X44294Y40624D01*
X44237Y40691D01*
X44175Y40744D01*
Y40847D01*
X44176Y40860D01*
X44172Y40912D01*
X44160Y40964D01*
X44139Y41012D01*
X44122Y41040D01*
X44112Y41057D01*
X44112Y41057D01*
X44078Y41098D01*
X44068Y41106D01*
X43344Y41830D01*
X44285D01*
X44338Y41768D01*
X44405Y41711D01*
X44480Y41665D01*
X44561Y41631D01*
X44647Y41610D01*
X44735Y41603D01*
X44823Y41610D01*
X44908Y41631D01*
X44990Y41665D01*
X45065Y41711D01*
X45132Y41768D01*
X45189Y41835D01*
X45235Y41910D01*
X45269Y41992D01*
X45290Y42077D01*
X45295Y42165D01*
X45290Y42253D01*
X45269Y42339D01*
X45235Y42420D01*
X45189Y42495D01*
X45132Y42562D01*
X45065Y42620D01*
X44990Y42666D01*
X44908Y42699D01*
X44823Y42720D01*
X44735Y42727D01*
X44647Y42720D01*
X44561Y42699D01*
X44480Y42666D01*
X44405Y42620D01*
X44338Y42562D01*
X44285Y42500D01*
X43299D01*
Y50361D01*
G37*
G36*
Y31845D02*X43220Y31878D01*
X43111Y31904D01*
X43000Y31910D01*
X41828D01*
X41800Y31912D01*
X41688Y31904D01*
X41580Y31878D01*
X41476Y31835D01*
X41381Y31776D01*
X41296Y31704D01*
X41278Y31683D01*
X41206Y31610D01*
X40774D01*
Y39340D01*
X40800Y39338D01*
X40888Y39345D01*
X40973Y39366D01*
X41055Y39400D01*
X41130Y39446D01*
X41197Y39503D01*
X41254Y39570D01*
X41286Y39622D01*
X41303Y39603D01*
X41370Y39546D01*
X41445Y39500D01*
X41526Y39466D01*
X41612Y39445D01*
X41700Y39438D01*
X41788Y39445D01*
X41873Y39466D01*
X41955Y39500D01*
X42030Y39546D01*
X42097Y39603D01*
X42154Y39670D01*
X42200Y39745D01*
X42234Y39827D01*
X42255Y39912D01*
X42260Y40000D01*
X42255Y40088D01*
X42234Y40174D01*
X42200Y40255D01*
X42154Y40330D01*
X42097Y40397D01*
X42030Y40455D01*
X41955Y40501D01*
X41873Y40534D01*
X41788Y40555D01*
X41700Y40562D01*
X41612Y40555D01*
X41589Y40549D01*
X41510Y40629D01*
Y42033D01*
X41530Y42046D01*
X41597Y42103D01*
X41654Y42170D01*
X41700Y42245D01*
X41734Y42327D01*
X41755Y42412D01*
X41758Y42468D01*
X43299Y40927D01*
Y40439D01*
X43285Y40381D01*
X43278Y40293D01*
X43285Y40206D01*
X43299Y40148D01*
Y31845D01*
G37*
G36*
Y4852D02*X40774D01*
Y23104D01*
X40850Y23098D01*
X40936Y23105D01*
X41020Y23125D01*
X41100Y23158D01*
X41174Y23204D01*
X41240Y23260D01*
X41296Y23326D01*
X41341Y23399D01*
X41375Y23479D01*
X41395Y23564D01*
X41400Y23650D01*
X41395Y23736D01*
X41375Y23821D01*
X41341Y23901D01*
X41296Y23974D01*
X41240Y24040D01*
X41174Y24096D01*
X41125Y24127D01*
Y25451D01*
X41146Y25476D01*
X41191Y25550D01*
X41225Y25630D01*
X41245Y25714D01*
X41250Y25800D01*
X41245Y25886D01*
X41225Y25971D01*
X41191Y26051D01*
X41146Y26124D01*
X41090Y26190D01*
X41024Y26247D01*
X40950Y26292D01*
X40870Y26325D01*
X40786Y26345D01*
X40774Y26346D01*
Y30190D01*
X41472D01*
X41500Y30188D01*
X41611Y30197D01*
X41611Y30197D01*
X41720Y30223D01*
X41823Y30265D01*
X41918Y30324D01*
X42003Y30396D01*
X42022Y30418D01*
X42094Y30490D01*
X43000D01*
X43111Y30497D01*
X43220Y30523D01*
X43299Y30555D01*
Y24152D01*
X43213Y24145D01*
X43129Y24125D01*
X43049Y24092D01*
X42975Y24046D01*
X42910Y23990D01*
X42853Y23924D01*
X42808Y23851D01*
X42775Y23771D01*
X42755Y23686D01*
X42748Y23600D01*
X42755Y23514D01*
X42775Y23429D01*
X42808Y23349D01*
X42853Y23276D01*
X42910Y23210D01*
X42975Y23154D01*
X43049Y23108D01*
X43129Y23075D01*
X43213Y23055D01*
X43299Y23048D01*
Y4852D01*
G37*
G36*
X40774Y48669D02*X40784Y48670D01*
X40866Y48690D01*
X40943Y48722D01*
X41015Y48766D01*
X41079Y48821D01*
X41134Y48885D01*
X41178Y48956D01*
X41210Y49034D01*
X41230Y49116D01*
X41235Y49200D01*
X41230Y49284D01*
X41228Y49290D01*
X41565Y49627D01*
X41563Y49600D01*
X41570Y49516D01*
X41589Y49434D01*
X41622Y49356D01*
X41666Y49285D01*
X41720Y49221D01*
X41784Y49166D01*
X41856Y49122D01*
X41934Y49090D01*
X42016Y49070D01*
X42100Y49063D01*
X42184Y49070D01*
X42266Y49090D01*
X42343Y49122D01*
X42415Y49166D01*
X42479Y49221D01*
X42534Y49285D01*
X42578Y49356D01*
X42610Y49434D01*
X42630Y49516D01*
X42635Y49600D01*
X42630Y49684D01*
X42628Y49690D01*
X43299Y50361D01*
Y42500D01*
X43274D01*
X41846Y43928D01*
X41837Y43938D01*
X41797Y43972D01*
X41752Y44000D01*
X41704Y44020D01*
X41652Y44032D01*
X41652Y44032D01*
X41600Y44036D01*
X41587Y44035D01*
X40774D01*
Y48669D01*
G37*
G36*
Y93848D02*X45704D01*
Y53643D01*
X45033Y52972D01*
X45035Y53000D01*
X45030Y53084D01*
X45010Y53166D01*
X44978Y53244D01*
X44934Y53316D01*
X44879Y53380D01*
X44815Y53434D01*
X44743Y53478D01*
X44666Y53510D01*
X44584Y53530D01*
X44500Y53537D01*
X44416Y53530D01*
X44334Y53510D01*
X44256Y53478D01*
X44184Y53434D01*
X44120Y53380D01*
X44066Y53316D01*
X44022Y53244D01*
X43989Y53166D01*
X43970Y53084D01*
X43963Y53000D01*
X43970Y52916D01*
X43971Y52910D01*
X40790Y49729D01*
X40784Y49730D01*
X40774Y49731D01*
Y93848D01*
G37*
G36*
Y31610D02*X38872D01*
Y31722D01*
X38924Y31754D01*
X38990Y31810D01*
X39046Y31876D01*
X39091Y31950D01*
X39125Y32030D01*
X39145Y32114D01*
X39150Y32200D01*
X39145Y32286D01*
X39125Y32371D01*
X39091Y32451D01*
X39046Y32524D01*
X38990Y32590D01*
X38924Y32647D01*
X38872Y32678D01*
Y43188D01*
X38926Y43166D01*
X39012Y43145D01*
X39100Y43138D01*
X39181Y43145D01*
X39354Y42972D01*
X39362Y42962D01*
X39402Y42928D01*
X39402Y42928D01*
X39430Y42911D01*
X39447Y42901D01*
X39496Y42880D01*
X39547Y42868D01*
X39547D01*
X39600Y42864D01*
X39613Y42865D01*
X39987D01*
X39970Y42855D01*
X39903Y42797D01*
X39845Y42730D01*
X39799Y42655D01*
X39766Y42574D01*
X39745Y42488D01*
X39738Y42400D01*
X39745Y42312D01*
X39766Y42227D01*
X39799Y42145D01*
X39845Y42070D01*
X39903Y42003D01*
X39970Y41946D01*
X40045Y41900D01*
X40126Y41866D01*
X40212Y41845D01*
X40300Y41838D01*
X40388Y41845D01*
X40390Y41846D01*
Y40282D01*
X40345Y40230D01*
X40299Y40155D01*
X40266Y40074D01*
X40245Y39988D01*
X40238Y39900D01*
X40245Y39812D01*
X40266Y39727D01*
X40299Y39645D01*
X40345Y39570D01*
X40403Y39503D01*
X40470Y39446D01*
X40545Y39400D01*
X40626Y39366D01*
X40712Y39345D01*
X40774Y39340D01*
Y31610D01*
G37*
G36*
Y4852D02*X38872D01*
Y28618D01*
X38892Y28650D01*
X38925Y28730D01*
X38945Y28814D01*
X38950Y28900D01*
X38945Y28987D01*
X38925Y29071D01*
X38892Y29151D01*
X38872Y29182D01*
Y30190D01*
X40774D01*
Y26346D01*
X40700Y26352D01*
X40613Y26345D01*
X40529Y26325D01*
X40449Y26292D01*
X40375Y26247D01*
X40310Y26190D01*
X40253Y26124D01*
X40208Y26051D01*
X40175Y25971D01*
X40155Y25886D01*
X40148Y25800D01*
X40155Y25714D01*
X40175Y25630D01*
X40208Y25550D01*
X40253Y25476D01*
X40310Y25410D01*
X40375Y25354D01*
X40449Y25308D01*
X40474Y25298D01*
Y24053D01*
X40459Y24040D01*
X40403Y23974D01*
X40358Y23901D01*
X40325Y23821D01*
X40305Y23736D01*
X40298Y23650D01*
X40305Y23564D01*
X40325Y23479D01*
X40358Y23399D01*
X40403Y23326D01*
X40459Y23260D01*
X40525Y23204D01*
X40599Y23158D01*
X40679Y23125D01*
X40763Y23105D01*
X40774Y23104D01*
Y4852D01*
G37*
G36*
X38872Y93848D02*X40774D01*
Y49731D01*
X40700Y49737D01*
X40616Y49730D01*
X40534Y49710D01*
X40456Y49678D01*
X40384Y49634D01*
X40320Y49580D01*
X40266Y49516D01*
X40222Y49444D01*
X40189Y49366D01*
X40170Y49284D01*
X40163Y49200D01*
X40170Y49116D01*
X40189Y49034D01*
X40222Y48956D01*
X40266Y48885D01*
X40320Y48821D01*
X40384Y48766D01*
X40456Y48722D01*
X40534Y48690D01*
X40616Y48670D01*
X40700Y48663D01*
X40774Y48669D01*
Y44035D01*
X40739D01*
X40155Y44619D01*
X40160Y44700D01*
X40155Y44788D01*
X40134Y44874D01*
X40100Y44955D01*
X40054Y45030D01*
X39997Y45097D01*
X39930Y45155D01*
X39855Y45201D01*
X39773Y45234D01*
X39688Y45255D01*
X39600Y45262D01*
X39512Y45255D01*
X39426Y45234D01*
X39345Y45201D01*
X39270Y45155D01*
X39203Y45097D01*
X39145Y45030D01*
X39099Y44955D01*
X39066Y44874D01*
X39045Y44788D01*
X39038Y44700D01*
X39045Y44612D01*
X39066Y44527D01*
X39099Y44445D01*
X39145Y44370D01*
X39203Y44303D01*
X39270Y44246D01*
X39319Y44215D01*
X39273Y44234D01*
X39188Y44255D01*
X39100Y44262D01*
X39012Y44255D01*
X38926Y44234D01*
X38872Y44212D01*
Y60100D01*
X40500D01*
Y85800D01*
X38872D01*
Y87928D01*
X38902Y87930D01*
X38931Y87937D01*
X38959Y87949D01*
X38985Y87965D01*
X39007Y87984D01*
X39027Y88007D01*
X39043Y88032D01*
X39054Y88060D01*
X39061Y88089D01*
X39063Y88119D01*
Y88881D01*
X39061Y88911D01*
X39054Y88940D01*
X39043Y88968D01*
X39027Y88993D01*
X39007Y89016D01*
X38985Y89036D01*
X38959Y89051D01*
X38931Y89063D01*
X38902Y89070D01*
X38872Y89072D01*
Y93848D01*
G37*
G36*
Y32678D02*X38850Y32692D01*
X38770Y32725D01*
X38686Y32745D01*
X38600Y32752D01*
X38513Y32745D01*
X38429Y32725D01*
X38349Y32692D01*
X38275Y32647D01*
X38210Y32590D01*
X38153Y32524D01*
X38139Y32500D01*
X37920D01*
Y46912D01*
X38011Y46989D01*
X38127Y47126D01*
X38221Y47280D01*
X38290Y47446D01*
X38332Y47621D01*
X38343Y47800D01*
X38332Y47979D01*
X38290Y48154D01*
X38221Y48321D01*
X38127Y48474D01*
X38011Y48611D01*
X37920Y48688D01*
Y60100D01*
X38872D01*
Y44212D01*
X38845Y44201D01*
X38770Y44155D01*
X38703Y44097D01*
X38645Y44030D01*
X38599Y43955D01*
X38566Y43874D01*
X38545Y43788D01*
X38538Y43700D01*
X38545Y43612D01*
X38566Y43527D01*
X38599Y43445D01*
X38645Y43370D01*
X38703Y43303D01*
X38770Y43246D01*
X38845Y43200D01*
X38872Y43188D01*
Y32678D01*
G37*
G36*
Y31610D02*X38494D01*
X38429Y31676D01*
X38429Y31675D01*
X38513Y31655D01*
X38600Y31648D01*
X38686Y31655D01*
X38770Y31675D01*
X38850Y31708D01*
X38872Y31722D01*
Y31610D01*
G37*
G36*
Y29182D02*X38846Y29225D01*
X38790Y29290D01*
X38724Y29347D01*
X38650Y29392D01*
X38570Y29425D01*
X38486Y29445D01*
X38400Y29452D01*
X38314Y29445D01*
X38229Y29425D01*
X38149Y29392D01*
X38076Y29347D01*
X38010Y29290D01*
X37954Y29225D01*
X37920D01*
Y30247D01*
X37980Y30223D01*
X38088Y30197D01*
X38088D01*
X38200Y30188D01*
X38228Y30190D01*
X38872D01*
Y29182D01*
G37*
G36*
Y4852D02*X37920D01*
Y28575D01*
X37954D01*
X38010Y28510D01*
X38076Y28454D01*
X38149Y28409D01*
X38229Y28375D01*
X38314Y28355D01*
X38400Y28348D01*
X38486Y28355D01*
X38570Y28375D01*
X38650Y28409D01*
X38724Y28454D01*
X38790Y28510D01*
X38846Y28576D01*
X38872Y28618D01*
Y4852D01*
G37*
G36*
X37920Y93848D02*X38872D01*
Y89072D01*
X38842Y89070D01*
X38813Y89063D01*
X38786Y89051D01*
X38760Y89036D01*
X38737Y89016D01*
X38718Y88993D01*
X38702Y88968D01*
X38691Y88940D01*
X38684Y88911D01*
X38682Y88881D01*
Y88119D01*
X38684Y88089D01*
X38691Y88060D01*
X38702Y88032D01*
X38718Y88007D01*
X38737Y87984D01*
X38760Y87965D01*
X38786Y87949D01*
X38813Y87937D01*
X38842Y87930D01*
X38872Y87928D01*
Y85800D01*
X37920D01*
Y87357D01*
X38301D01*
X38331Y87359D01*
X38360Y87366D01*
X38388Y87377D01*
X38413Y87393D01*
X38436Y87412D01*
X38455Y87435D01*
X38471Y87461D01*
X38483Y87489D01*
X38490Y87518D01*
X38492Y87548D01*
X38490Y87577D01*
X38483Y87607D01*
X38471Y87634D01*
X38455Y87660D01*
X38436Y87683D01*
X38413Y87702D01*
X38388Y87718D01*
X38360Y87729D01*
X38331Y87736D01*
X38301Y87738D01*
X37920D01*
Y89262D01*
X38301D01*
X38331Y89264D01*
X38360Y89271D01*
X38388Y89282D01*
X38413Y89298D01*
X38436Y89317D01*
X38455Y89340D01*
X38471Y89366D01*
X38483Y89394D01*
X38490Y89423D01*
X38492Y89453D01*
X38490Y89482D01*
X38483Y89512D01*
X38471Y89539D01*
X38455Y89565D01*
X38436Y89588D01*
X38413Y89607D01*
X38388Y89623D01*
X38360Y89634D01*
X38331Y89641D01*
X38301Y89643D01*
X37920D01*
Y93848D01*
G37*
G36*
Y48688D02*X37874Y48728D01*
X37720Y48822D01*
X37554Y48891D01*
X37379Y48933D01*
X37200Y48947D01*
X37198Y48946D01*
Y60100D01*
X37920D01*
Y48688D01*
G37*
G36*
Y32500D02*X37198D01*
Y46654D01*
X37200Y46654D01*
X37379Y46668D01*
X37554Y46710D01*
X37720Y46779D01*
X37874Y46873D01*
X37920Y46912D01*
Y32500D01*
G37*
G36*
Y29225D02*X37198D01*
Y30490D01*
X37606D01*
X37678Y30418D01*
X37696Y30396D01*
X37781Y30324D01*
X37876Y30265D01*
X37920Y30247D01*
Y29225D01*
G37*
G36*
Y4852D02*X37198D01*
Y28575D01*
X37920D01*
Y4852D01*
G37*
G36*
X37198Y93848D02*X37920D01*
Y89643D01*
X37539D01*
X37509Y89641D01*
X37480Y89634D01*
X37452Y89623D01*
X37426Y89607D01*
X37404Y89588D01*
X37384Y89565D01*
X37369Y89539D01*
X37357Y89512D01*
X37350Y89482D01*
X37348Y89453D01*
X37350Y89423D01*
X37357Y89394D01*
X37369Y89366D01*
X37384Y89340D01*
X37404Y89317D01*
X37426Y89298D01*
X37452Y89282D01*
X37480Y89271D01*
X37509Y89264D01*
X37539Y89262D01*
X37920D01*
Y87738D01*
X37539D01*
X37509Y87736D01*
X37480Y87729D01*
X37452Y87718D01*
X37426Y87702D01*
X37404Y87683D01*
X37384Y87660D01*
X37369Y87634D01*
X37357Y87607D01*
X37350Y87577D01*
X37348Y87548D01*
X37350Y87518D01*
X37357Y87489D01*
X37369Y87461D01*
X37384Y87435D01*
X37404Y87412D01*
X37426Y87393D01*
X37452Y87377D01*
X37480Y87366D01*
X37509Y87359D01*
X37539Y87357D01*
X37920D01*
Y85800D01*
X37198D01*
Y93848D01*
G37*
G36*
Y32500D02*X36373D01*
X35846Y33028D01*
X35837Y33038D01*
X35797Y33072D01*
X35752Y33100D01*
X35704Y33120D01*
X35652Y33132D01*
X35652Y33132D01*
X35600Y33136D01*
X35587Y33135D01*
X35337D01*
X35290Y33190D01*
X35224Y33247D01*
X35150Y33292D01*
X35070Y33325D01*
X34986Y33345D01*
X34900Y33352D01*
X34813Y33345D01*
X34729Y33325D01*
X34658Y33295D01*
Y46654D01*
X34660Y46654D01*
X34839Y46668D01*
X35014Y46710D01*
X35180Y46779D01*
X35334Y46873D01*
X35471Y46989D01*
X35587Y47126D01*
X35681Y47280D01*
X35750Y47446D01*
X35792Y47621D01*
X35803Y47800D01*
X35792Y47979D01*
X35750Y48154D01*
X35681Y48321D01*
X35587Y48474D01*
X35471Y48611D01*
X35334Y48728D01*
X35180Y48822D01*
X35014Y48891D01*
X34839Y48933D01*
X34660Y48947D01*
X34658Y48946D01*
Y60100D01*
X37198D01*
Y48946D01*
X37020Y48933D01*
X36846Y48891D01*
X36679Y48822D01*
X36526Y48728D01*
X36389Y48611D01*
X36272Y48474D01*
X36178Y48321D01*
X36109Y48154D01*
X36067Y47979D01*
X36053Y47800D01*
X36067Y47621D01*
X36109Y47446D01*
X36178Y47280D01*
X36272Y47126D01*
X36389Y46989D01*
X36526Y46873D01*
X36679Y46779D01*
X36846Y46710D01*
X37020Y46668D01*
X37198Y46654D01*
Y32500D01*
G37*
G36*
Y29225D02*X34658D01*
Y30490D01*
X37198D01*
Y29225D01*
G37*
G36*
Y4852D02*X34658D01*
Y28575D01*
X37198D01*
Y4852D01*
G37*
G36*
X36967Y93848D02*X37198D01*
Y85800D01*
X36967D01*
Y87928D01*
X36997Y87930D01*
X37026Y87937D01*
X37054Y87949D01*
X37080Y87965D01*
X37102Y87984D01*
X37122Y88007D01*
X37138Y88032D01*
X37149Y88060D01*
X37156Y88089D01*
X37158Y88119D01*
Y88881D01*
X37156Y88911D01*
X37149Y88940D01*
X37138Y88968D01*
X37122Y88993D01*
X37102Y89016D01*
X37080Y89036D01*
X37054Y89051D01*
X37026Y89063D01*
X36997Y89070D01*
X36967Y89072D01*
Y93848D01*
G37*
G36*
X34658D02*X36967D01*
Y89072D01*
X36937Y89070D01*
X36908Y89063D01*
X36881Y89051D01*
X36855Y89036D01*
X36832Y89016D01*
X36813Y88993D01*
X36797Y88968D01*
X36786Y88940D01*
X36779Y88911D01*
X36777Y88881D01*
Y88119D01*
X36779Y88089D01*
X36786Y88060D01*
X36797Y88032D01*
X36813Y88007D01*
X36832Y87984D01*
X36855Y87965D01*
X36881Y87949D01*
X36908Y87937D01*
X36937Y87930D01*
X36967Y87928D01*
Y85800D01*
X35760D01*
Y87420D01*
X35900Y87479D01*
X36054Y87573D01*
X36191Y87689D01*
X36307Y87826D01*
X36401Y87980D01*
X36470Y88146D01*
X36512Y88321D01*
X36523Y88500D01*
X36512Y88679D01*
X36470Y88854D01*
X36401Y89021D01*
X36307Y89174D01*
X36191Y89311D01*
X36054Y89428D01*
X35900Y89522D01*
X35734Y89591D01*
X35559Y89633D01*
X35380Y89647D01*
X35200Y89633D01*
X35026Y89591D01*
X34859Y89522D01*
X34706Y89428D01*
X34658Y89387D01*
Y93848D01*
G37*
G36*
Y33295D02*X34649Y33292D01*
X34575Y33247D01*
X34510Y33190D01*
X34453Y33124D01*
X34408Y33051D01*
X34375Y32971D01*
X34355Y32886D01*
X34348Y32800D01*
X34355Y32714D01*
X34375Y32630D01*
X34408Y32550D01*
X34453Y32476D01*
X34510Y32410D01*
X34575Y32354D01*
X34649Y32308D01*
X34658Y32305D01*
Y31910D01*
X33794D01*
X33302Y32402D01*
X33218Y32476D01*
X33123Y32535D01*
X33020Y32578D01*
X33018Y32578D01*
Y41854D01*
X33020Y41854D01*
X33199Y41868D01*
X33374Y41910D01*
X33540Y41979D01*
X33694Y42073D01*
X33831Y42189D01*
X33947Y42326D01*
X34041Y42480D01*
X34110Y42646D01*
X34152Y42821D01*
X34163Y43000D01*
X34152Y43179D01*
X34110Y43354D01*
X34041Y43521D01*
X33947Y43674D01*
X33831Y43811D01*
X33694Y43928D01*
X33540Y44022D01*
X33374Y44091D01*
X33199Y44133D01*
X33020Y44147D01*
X33018Y44146D01*
Y47092D01*
X33047Y47126D01*
X33141Y47280D01*
X33210Y47446D01*
X33252Y47621D01*
X33263Y47800D01*
X33252Y47979D01*
X33210Y48154D01*
X33141Y48321D01*
X33047Y48474D01*
X33018Y48508D01*
Y60100D01*
X34658D01*
Y48946D01*
X34480Y48933D01*
X34306Y48891D01*
X34139Y48822D01*
X33986Y48728D01*
X33849Y48611D01*
X33732Y48474D01*
X33638Y48321D01*
X33569Y48154D01*
X33527Y47979D01*
X33513Y47800D01*
X33527Y47621D01*
X33569Y47446D01*
X33638Y47280D01*
X33732Y47126D01*
X33849Y46989D01*
X33986Y46873D01*
X34139Y46779D01*
X34306Y46710D01*
X34480Y46668D01*
X34658Y46654D01*
Y33295D01*
G37*
G36*
Y4852D02*X33018D01*
Y21390D01*
X33756D01*
X33784Y21366D01*
X33856Y21322D01*
X33934Y21290D01*
X34016Y21270D01*
X34100Y21263D01*
X34184Y21270D01*
X34266Y21290D01*
X34343Y21322D01*
X34415Y21366D01*
X34479Y21421D01*
X34534Y21485D01*
X34578Y21556D01*
X34610Y21634D01*
X34630Y21716D01*
X34635Y21800D01*
X34630Y21884D01*
X34610Y21966D01*
X34578Y22044D01*
X34534Y22116D01*
X34479Y22180D01*
X34415Y22234D01*
X34343Y22278D01*
X34266Y22310D01*
X34184Y22330D01*
X34100Y22337D01*
X34016Y22330D01*
X33934Y22310D01*
X33856Y22278D01*
X33784Y22234D01*
X33756Y22210D01*
X33018D01*
Y30678D01*
X33081Y30624D01*
X33176Y30565D01*
X33280Y30523D01*
X33388Y30497D01*
X33388D01*
X33500Y30488D01*
X33528Y30490D01*
X34658D01*
Y29225D01*
X34645D01*
X34590Y29290D01*
X34524Y29347D01*
X34450Y29392D01*
X34370Y29425D01*
X34286Y29445D01*
X34200Y29452D01*
X34113Y29445D01*
X34029Y29425D01*
X33949Y29392D01*
X33875Y29347D01*
X33809Y29290D01*
X33753Y29225D01*
X33708Y29151D01*
X33675Y29071D01*
X33655Y28987D01*
X33648Y28900D01*
X33655Y28814D01*
X33675Y28730D01*
X33708Y28650D01*
X33753Y28576D01*
X33809Y28510D01*
X33875Y28454D01*
X33949Y28409D01*
X34029Y28375D01*
X34113Y28355D01*
X34200Y28348D01*
X34286Y28355D01*
X34370Y28375D01*
X34450Y28409D01*
X34524Y28454D01*
X34590Y28510D01*
X34645Y28575D01*
X34658D01*
Y4852D01*
G37*
G36*
X33018Y93848D02*X34658D01*
Y89387D01*
X34569Y89311D01*
X34452Y89174D01*
X34358Y89021D01*
X34289Y88854D01*
X34247Y88679D01*
X34233Y88500D01*
X34247Y88321D01*
X34289Y88146D01*
X34358Y87980D01*
X34452Y87826D01*
X34569Y87689D01*
X34658Y87613D01*
Y85800D01*
X33220D01*
Y87420D01*
X33360Y87479D01*
X33514Y87573D01*
X33651Y87689D01*
X33767Y87826D01*
X33861Y87980D01*
X33930Y88146D01*
X33972Y88321D01*
X33983Y88500D01*
X33972Y88679D01*
X33930Y88854D01*
X33861Y89021D01*
X33767Y89174D01*
X33651Y89311D01*
X33514Y89428D01*
X33360Y89522D01*
X33194Y89591D01*
X33019Y89633D01*
X33018Y89633D01*
Y93848D01*
G37*
G36*
X30478Y29178D02*X30550Y29208D01*
X30624Y29254D01*
X30690Y29310D01*
X30746Y29376D01*
X30792Y29449D01*
X30825Y29529D01*
X30845Y29614D01*
X30850Y29700D01*
X30845Y29786D01*
X30825Y29871D01*
X30792Y29951D01*
X30746Y30024D01*
X30690Y30090D01*
X30624Y30146D01*
X30550Y30192D01*
X30478Y30222D01*
Y41854D01*
X30480Y41854D01*
X30659Y41868D01*
X30834Y41910D01*
X31000Y41979D01*
X31154Y42073D01*
X31291Y42189D01*
X31407Y42326D01*
X31501Y42480D01*
X31570Y42646D01*
X31612Y42821D01*
X31623Y43000D01*
X31612Y43179D01*
X31570Y43354D01*
X31501Y43521D01*
X31407Y43674D01*
X31291Y43811D01*
X31154Y43928D01*
X31000Y44022D01*
X30834Y44091D01*
X30659Y44133D01*
X30480Y44147D01*
X30478Y44146D01*
Y47092D01*
X30507Y47126D01*
X30601Y47280D01*
X30670Y47446D01*
X30712Y47621D01*
X30723Y47800D01*
X30712Y47979D01*
X30670Y48154D01*
X30601Y48321D01*
X30507Y48474D01*
X30478Y48508D01*
Y60100D01*
X33018D01*
Y48508D01*
X32931Y48611D01*
X32794Y48728D01*
X32640Y48822D01*
X32474Y48891D01*
X32299Y48933D01*
X32120Y48947D01*
X31940Y48933D01*
X31766Y48891D01*
X31599Y48822D01*
X31446Y48728D01*
X31309Y48611D01*
X31192Y48474D01*
X31098Y48321D01*
X31029Y48154D01*
X30987Y47979D01*
X30973Y47800D01*
X30987Y47621D01*
X31029Y47446D01*
X31098Y47280D01*
X31192Y47126D01*
X31309Y46989D01*
X31446Y46873D01*
X31599Y46779D01*
X31766Y46710D01*
X31940Y46668D01*
X32120Y46654D01*
X32299Y46668D01*
X32474Y46710D01*
X32640Y46779D01*
X32794Y46873D01*
X32931Y46989D01*
X33018Y47092D01*
Y44146D01*
X32840Y44133D01*
X32666Y44091D01*
X32499Y44022D01*
X32346Y43928D01*
X32209Y43811D01*
X32092Y43674D01*
X31998Y43521D01*
X31929Y43354D01*
X31887Y43179D01*
X31873Y43000D01*
X31887Y42821D01*
X31929Y42646D01*
X31998Y42480D01*
X32092Y42326D01*
X32209Y42189D01*
X32346Y42073D01*
X32499Y41979D01*
X32666Y41910D01*
X32840Y41868D01*
X33018Y41854D01*
Y32578D01*
X32911Y32604D01*
X32800Y32612D01*
X32688Y32604D01*
X32580Y32578D01*
X32476Y32535D01*
X32381Y32476D01*
X32296Y32404D01*
X32224Y32319D01*
X32165Y32223D01*
X32122Y32120D01*
X32096Y32012D01*
X32088Y31900D01*
X32096Y31789D01*
X32122Y31680D01*
X32165Y31577D01*
X32224Y31481D01*
X32298Y31398D01*
X32978Y30718D01*
X32996Y30696D01*
X33018Y30678D01*
Y22210D01*
X31916D01*
X31900Y22211D01*
X31836Y22206D01*
X31773Y22191D01*
X31713Y22167D01*
X31658Y22133D01*
X31658Y22133D01*
X31609Y22091D01*
X31599Y22079D01*
X30780Y21260D01*
X30712Y21255D01*
X30626Y21234D01*
X30545Y21201D01*
X30478Y21160D01*
Y29178D01*
G37*
G36*
X33018Y4852D02*X30478D01*
Y20241D01*
X30545Y20200D01*
X30626Y20166D01*
X30712Y20145D01*
X30800Y20138D01*
X30888Y20145D01*
X30973Y20166D01*
X31055Y20200D01*
X31130Y20246D01*
X31197Y20303D01*
X31254Y20370D01*
X31300Y20445D01*
X31334Y20527D01*
X31355Y20612D01*
X31359Y20679D01*
X32070Y21390D01*
X33018D01*
Y4852D01*
G37*
G36*
X30478Y48508D02*X30391Y48611D01*
X30254Y48728D01*
X30100Y48822D01*
X29934Y48891D01*
X29759Y48933D01*
X29580Y48947D01*
X29400Y48933D01*
X29226Y48891D01*
X29059Y48822D01*
X28906Y48728D01*
X28858Y48686D01*
Y60100D01*
X30478D01*
Y48508D01*
G37*
G36*
Y30222D02*X30470Y30225D01*
X30386Y30245D01*
X30300Y30252D01*
X30292Y30251D01*
X30325Y30330D01*
X30345Y30414D01*
X30350Y30500D01*
X30345Y30586D01*
X30325Y30671D01*
X30291Y30751D01*
X30246Y30824D01*
X30190Y30890D01*
X30124Y30947D01*
X30050Y30992D01*
X29970Y31025D01*
X29886Y31045D01*
X29800Y31052D01*
X29713Y31045D01*
X29629Y31025D01*
X29549Y30992D01*
X29475Y30947D01*
X29410Y30890D01*
X29356Y30828D01*
X29354Y30830D01*
X29297Y30897D01*
X29230Y30955D01*
X29155Y31001D01*
X29073Y31034D01*
X28988Y31055D01*
X28900Y31062D01*
X28858Y31058D01*
Y42455D01*
X28868Y42457D01*
X28897Y42466D01*
X28923Y42480D01*
X28948Y42498D01*
X28969Y42519D01*
X28986Y42543D01*
X28999Y42570D01*
X29037Y42674D01*
X29063Y42781D01*
X29079Y42890D01*
X29084Y43000D01*
X29079Y43110D01*
X29063Y43219D01*
X29037Y43326D01*
X29000Y43430D01*
X28987Y43457D01*
X28969Y43482D01*
X28948Y43503D01*
X28924Y43521D01*
X28897Y43535D01*
X28869Y43545D01*
X28858Y43546D01*
Y46914D01*
X28906Y46873D01*
X29059Y46779D01*
X29226Y46710D01*
X29400Y46668D01*
X29580Y46654D01*
X29759Y46668D01*
X29934Y46710D01*
X30100Y46779D01*
X30254Y46873D01*
X30391Y46989D01*
X30478Y47092D01*
Y44146D01*
X30300Y44133D01*
X30126Y44091D01*
X29959Y44022D01*
X29806Y43928D01*
X29669Y43811D01*
X29552Y43674D01*
X29458Y43521D01*
X29389Y43354D01*
X29347Y43179D01*
X29333Y43000D01*
X29347Y42821D01*
X29389Y42646D01*
X29458Y42480D01*
X29552Y42326D01*
X29669Y42189D01*
X29806Y42073D01*
X29959Y41979D01*
X30126Y41910D01*
X30300Y41868D01*
X30478Y41854D01*
Y30222D01*
G37*
G36*
Y4852D02*X28858D01*
Y28790D01*
X29688D01*
X29700Y28789D01*
X29749Y28793D01*
X29749Y28793D01*
X29796Y28804D01*
X29841Y28823D01*
X29883Y28848D01*
X29920Y28880D01*
X29928Y28889D01*
X30197Y29159D01*
X30214Y29155D01*
X30300Y29148D01*
X30386Y29155D01*
X30470Y29175D01*
X30478Y29178D01*
Y21160D01*
X30470Y21155D01*
X30403Y21097D01*
X30345Y21030D01*
X30299Y20955D01*
X30266Y20874D01*
X30245Y20788D01*
X30238Y20700D01*
X30245Y20612D01*
X30266Y20527D01*
X30299Y20445D01*
X30345Y20370D01*
X30403Y20303D01*
X30470Y20246D01*
X30478Y20241D01*
Y4852D01*
G37*
G36*
X30298Y93848D02*X33018D01*
Y89633D01*
X32840Y89647D01*
X32660Y89633D01*
X32486Y89591D01*
X32319Y89522D01*
X32166Y89428D01*
X32029Y89311D01*
X31912Y89174D01*
X31818Y89021D01*
X31749Y88854D01*
X31707Y88679D01*
X31693Y88500D01*
X31707Y88321D01*
X31749Y88146D01*
X31818Y87980D01*
X31912Y87826D01*
X32029Y87689D01*
X32166Y87573D01*
X32300Y87490D01*
Y85800D01*
X30298D01*
Y87354D01*
X30300Y87354D01*
X30479Y87368D01*
X30654Y87410D01*
X30820Y87479D01*
X30974Y87573D01*
X31111Y87689D01*
X31227Y87826D01*
X31321Y87980D01*
X31390Y88146D01*
X31432Y88321D01*
X31443Y88500D01*
X31432Y88679D01*
X31390Y88854D01*
X31321Y89021D01*
X31227Y89174D01*
X31111Y89311D01*
X30974Y89428D01*
X30820Y89522D01*
X30654Y89591D01*
X30479Y89633D01*
X30300Y89647D01*
X30298Y89646D01*
Y93848D01*
G37*
G36*
X28858D02*X30298D01*
Y89646D01*
X30120Y89633D01*
X29946Y89591D01*
X29779Y89522D01*
X29626Y89428D01*
X29489Y89311D01*
X29372Y89174D01*
X29278Y89021D01*
X29209Y88854D01*
X29167Y88679D01*
X29153Y88500D01*
X29167Y88321D01*
X29209Y88146D01*
X29278Y87980D01*
X29372Y87826D01*
X29489Y87689D01*
X29626Y87573D01*
X29779Y87479D01*
X29946Y87410D01*
X30120Y87368D01*
X30298Y87354D01*
Y85800D01*
X28858D01*
Y88176D01*
X28892Y88321D01*
X28903Y88500D01*
X28892Y88679D01*
X28858Y88824D01*
Y93848D01*
G37*
G36*
Y85800D02*X27700D01*
Y87358D01*
X27760Y87354D01*
X27939Y87368D01*
X28114Y87410D01*
X28280Y87479D01*
X28434Y87573D01*
X28571Y87689D01*
X28687Y87826D01*
X28781Y87980D01*
X28850Y88146D01*
X28858Y88176D01*
Y85800D01*
G37*
G36*
Y31058D02*X28812Y31055D01*
X28726Y31034D01*
X28645Y31001D01*
X28570Y30955D01*
X28503Y30897D01*
X28445Y30830D01*
X28399Y30755D01*
X28366Y30674D01*
X28345Y30588D01*
X28338Y30500D01*
X28345Y30419D01*
X28211Y30285D01*
X27992D01*
Y41858D01*
X28050Y41861D01*
X28159Y41877D01*
X28266Y41903D01*
X28370Y41940D01*
X28397Y41953D01*
X28421Y41971D01*
X28443Y41992D01*
X28461Y42016D01*
X28475Y42043D01*
X28484Y42071D01*
X28489Y42101D01*
X28489Y42131D01*
X28485Y42161D01*
X28476Y42190D01*
X28462Y42217D01*
X28445Y42241D01*
X28424Y42263D01*
X28399Y42280D01*
X28373Y42294D01*
X28344Y42304D01*
X28314Y42309D01*
X28284Y42309D01*
X28254Y42304D01*
X28226Y42295D01*
X28157Y42270D01*
X28086Y42252D01*
X28013Y42242D01*
X27992Y42241D01*
Y43760D01*
X28013Y43759D01*
X28086Y43748D01*
X28157Y43730D01*
X28226Y43706D01*
X28255Y43697D01*
X28284Y43692D01*
X28314Y43692D01*
X28344Y43697D01*
X28372Y43707D01*
X28399Y43721D01*
X28423Y43738D01*
X28444Y43760D01*
X28462Y43784D01*
X28475Y43811D01*
X28484Y43839D01*
X28488Y43869D01*
X28488Y43899D01*
X28483Y43929D01*
X28474Y43957D01*
X28460Y43984D01*
X28442Y44008D01*
X28421Y44029D01*
X28397Y44046D01*
X28369Y44059D01*
X28266Y44097D01*
X28159Y44123D01*
X28050Y44139D01*
X27992Y44142D01*
Y47228D01*
X28022Y47230D01*
X28051Y47237D01*
X28079Y47249D01*
X28105Y47265D01*
X28127Y47284D01*
X28147Y47307D01*
X28163Y47332D01*
X28174Y47360D01*
X28181Y47389D01*
X28183Y47419D01*
Y48181D01*
X28181Y48211D01*
X28174Y48240D01*
X28163Y48268D01*
X28147Y48293D01*
X28127Y48316D01*
X28105Y48336D01*
X28079Y48351D01*
X28051Y48363D01*
X28022Y48370D01*
X27992Y48372D01*
Y60100D01*
X28858D01*
Y48686D01*
X28769Y48611D01*
X28652Y48474D01*
X28558Y48321D01*
X28489Y48154D01*
X28447Y47979D01*
X28433Y47800D01*
X28447Y47621D01*
X28489Y47446D01*
X28558Y47280D01*
X28652Y47126D01*
X28769Y46989D01*
X28858Y46914D01*
Y43546D01*
X28839Y43549D01*
X28809Y43550D01*
X28779Y43545D01*
X28750Y43536D01*
X28723Y43523D01*
X28699Y43505D01*
X28677Y43484D01*
X28659Y43460D01*
X28646Y43433D01*
X28636Y43404D01*
X28631Y43375D01*
X28631Y43345D01*
X28635Y43315D01*
X28645Y43286D01*
X28670Y43217D01*
X28688Y43146D01*
X28698Y43073D01*
X28702Y43000D01*
X28698Y42927D01*
X28688Y42854D01*
X28670Y42783D01*
X28646Y42714D01*
X28636Y42685D01*
X28632Y42656D01*
X28632Y42626D01*
X28637Y42596D01*
X28646Y42568D01*
X28660Y42541D01*
X28678Y42517D01*
X28699Y42496D01*
X28724Y42478D01*
X28751Y42465D01*
X28779Y42456D01*
X28809Y42451D01*
X28839Y42452D01*
X28858Y42455D01*
Y31058D01*
G37*
G36*
X27992Y44142D02*X27940Y44144D01*
X27830Y44139D01*
X27721Y44123D01*
X27700Y44118D01*
Y60100D01*
X27992D01*
Y48372D01*
X27962Y48370D01*
X27933Y48363D01*
X27906Y48351D01*
X27880Y48336D01*
X27857Y48316D01*
X27838Y48293D01*
X27822Y48268D01*
X27811Y48240D01*
X27804Y48211D01*
X27802Y48181D01*
Y47419D01*
X27804Y47389D01*
X27811Y47360D01*
X27822Y47332D01*
X27838Y47307D01*
X27857Y47284D01*
X27880Y47265D01*
X27906Y47249D01*
X27933Y47237D01*
X27962Y47230D01*
X27992Y47228D01*
Y44142D01*
G37*
G36*
Y42241D02*X27940Y42238D01*
X27866Y42242D01*
X27794Y42252D01*
X27723Y42270D01*
X27700Y42278D01*
Y43722D01*
X27723Y43730D01*
X27794Y43748D01*
X27866Y43759D01*
X27940Y43762D01*
X27992Y43760D01*
Y42241D01*
G37*
G36*
Y30285D02*X27700D01*
Y41882D01*
X27721Y41877D01*
X27830Y41861D01*
X27940Y41856D01*
X27992Y41858D01*
Y30285D01*
G37*
G36*
X28858Y4852D02*X27700D01*
Y28575D01*
X27914Y28790D01*
X28858D01*
Y4852D01*
G37*
G36*
X27700Y93848D02*X28858D01*
Y88824D01*
X28850Y88854D01*
X28781Y89021D01*
X28687Y89174D01*
X28571Y89311D01*
X28434Y89428D01*
X28280Y89522D01*
X28114Y89591D01*
X27939Y89633D01*
X27760Y89647D01*
X27700Y89642D01*
Y93848D01*
G37*
G36*
X25400Y25852D02*X25426Y25874D01*
X25487Y25946D01*
X25536Y26027D01*
X25572Y26114D01*
X25595Y26206D01*
X25600Y26300D01*
X25595Y26394D01*
X25580Y26455D01*
X27700Y28575D01*
Y4852D01*
X25400D01*
Y25852D01*
G37*
G36*
X27022Y60100D02*X27700D01*
Y44118D01*
X27614Y44097D01*
X27510Y44060D01*
X27483Y44047D01*
X27458Y44030D01*
X27437Y44008D01*
X27419Y43984D01*
X27405Y43957D01*
X27395Y43929D01*
X27390Y43899D01*
X27390Y43869D01*
X27395Y43839D01*
X27404Y43811D01*
X27417Y43784D01*
X27435Y43759D01*
X27456Y43738D01*
X27480Y43720D01*
X27507Y43706D01*
X27536Y43696D01*
X27565Y43691D01*
X27595Y43691D01*
X27625Y43696D01*
X27654Y43705D01*
X27700Y43722D01*
Y42278D01*
X27653Y42294D01*
X27625Y42304D01*
X27595Y42308D01*
X27565Y42308D01*
X27536Y42303D01*
X27507Y42293D01*
X27481Y42280D01*
X27457Y42262D01*
X27436Y42241D01*
X27418Y42216D01*
X27405Y42189D01*
X27396Y42161D01*
X27391Y42131D01*
X27391Y42101D01*
X27396Y42072D01*
X27406Y42043D01*
X27420Y42016D01*
X27437Y41992D01*
X27459Y41971D01*
X27483Y41954D01*
X27510Y41941D01*
X27614Y41903D01*
X27700Y41882D01*
Y30285D01*
X27022D01*
Y42454D01*
X27041Y42451D01*
X27071Y42451D01*
X27101Y42455D01*
X27129Y42464D01*
X27156Y42478D01*
X27181Y42495D01*
X27202Y42516D01*
X27220Y42541D01*
X27234Y42567D01*
X27244Y42596D01*
X27248Y42626D01*
X27249Y42656D01*
X27244Y42685D01*
X27235Y42714D01*
X27209Y42783D01*
X27192Y42854D01*
X27181Y42927D01*
X27178Y43000D01*
X27181Y43073D01*
X27192Y43146D01*
X27209Y43217D01*
X27234Y43287D01*
X27243Y43315D01*
X27248Y43345D01*
X27248Y43375D01*
X27243Y43404D01*
X27233Y43433D01*
X27219Y43459D01*
X27202Y43483D01*
X27180Y43504D01*
X27156Y43522D01*
X27129Y43535D01*
X27100Y43544D01*
X27071Y43549D01*
X27041Y43549D01*
X27022Y43545D01*
Y46657D01*
X27421D01*
X27451Y46659D01*
X27480Y46666D01*
X27508Y46677D01*
X27533Y46693D01*
X27556Y46712D01*
X27575Y46735D01*
X27591Y46761D01*
X27603Y46789D01*
X27610Y46818D01*
X27612Y46848D01*
X27610Y46877D01*
X27603Y46907D01*
X27591Y46934D01*
X27575Y46960D01*
X27556Y46983D01*
X27533Y47002D01*
X27508Y47018D01*
X27480Y47029D01*
X27451Y47036D01*
X27421Y47038D01*
X27022D01*
Y48562D01*
X27421D01*
X27451Y48564D01*
X27480Y48571D01*
X27508Y48582D01*
X27533Y48598D01*
X27556Y48617D01*
X27575Y48640D01*
X27591Y48666D01*
X27603Y48694D01*
X27610Y48723D01*
X27612Y48753D01*
X27610Y48782D01*
X27603Y48812D01*
X27591Y48839D01*
X27575Y48865D01*
X27556Y48888D01*
X27533Y48907D01*
X27508Y48923D01*
X27480Y48934D01*
X27451Y48941D01*
X27421Y48943D01*
X27022D01*
Y60100D01*
G37*
G36*
X26087D02*X27022D01*
Y48943D01*
X26659D01*
X26629Y48941D01*
X26600Y48934D01*
X26572Y48923D01*
X26546Y48907D01*
X26524Y48888D01*
X26504Y48865D01*
X26489Y48839D01*
X26477Y48812D01*
X26470Y48782D01*
X26468Y48753D01*
X26470Y48723D01*
X26477Y48694D01*
X26489Y48666D01*
X26504Y48640D01*
X26524Y48617D01*
X26546Y48598D01*
X26572Y48582D01*
X26600Y48571D01*
X26629Y48564D01*
X26659Y48562D01*
X27022D01*
Y47038D01*
X26659D01*
X26629Y47036D01*
X26600Y47029D01*
X26572Y47018D01*
X26546Y47002D01*
X26524Y46983D01*
X26504Y46960D01*
X26489Y46934D01*
X26477Y46907D01*
X26470Y46877D01*
X26468Y46848D01*
X26470Y46818D01*
X26477Y46789D01*
X26489Y46761D01*
X26504Y46735D01*
X26524Y46712D01*
X26546Y46693D01*
X26572Y46677D01*
X26600Y46666D01*
X26629Y46659D01*
X26659Y46657D01*
X27022D01*
Y43545D01*
X27011Y43544D01*
X26983Y43534D01*
X26956Y43520D01*
X26932Y43503D01*
X26911Y43481D01*
X26894Y43457D01*
X26881Y43430D01*
X26843Y43326D01*
X26817Y43219D01*
X26801Y43110D01*
X26795Y43000D01*
X26801Y42890D01*
X26817Y42781D01*
X26843Y42674D01*
X26879Y42570D01*
X26893Y42543D01*
X26910Y42518D01*
X26931Y42497D01*
X26956Y42479D01*
X26982Y42465D01*
X27011Y42456D01*
X27022Y42454D01*
Y30285D01*
X26900D01*
X26839Y30281D01*
X26780Y30267D01*
X26724Y30244D01*
X26673Y30212D01*
X26627Y30173D01*
X26587Y30127D01*
X26573Y30104D01*
X26087Y29618D01*
Y41860D01*
X26222Y41861D01*
X26280Y41875D01*
X26335Y41898D01*
X26386Y41929D01*
X26432Y41968D01*
X26471Y42013D01*
X26502Y42065D01*
X26525Y42120D01*
X26539Y42178D01*
X26543Y42238D01*
X26539Y43822D01*
X26525Y43880D01*
X26502Y43936D01*
X26471Y43987D01*
X26432Y44032D01*
X26386Y44071D01*
X26335Y44103D01*
X26280Y44126D01*
X26222Y44140D01*
X26162Y44143D01*
X26087Y44143D01*
Y47228D01*
X26117Y47230D01*
X26146Y47237D01*
X26174Y47249D01*
X26200Y47265D01*
X26222Y47284D01*
X26242Y47307D01*
X26258Y47332D01*
X26269Y47360D01*
X26276Y47389D01*
X26278Y47419D01*
Y48181D01*
X26276Y48211D01*
X26269Y48240D01*
X26258Y48268D01*
X26242Y48293D01*
X26222Y48316D01*
X26200Y48336D01*
X26174Y48351D01*
X26146Y48363D01*
X26117Y48370D01*
X26087Y48372D01*
Y60100D01*
G37*
G36*
Y29618D02*X25400Y28931D01*
Y41859D01*
X26087Y41860D01*
Y29618D01*
G37*
G36*
X25400Y60100D02*X26087D01*
Y48372D01*
X26057Y48370D01*
X26028Y48363D01*
X26001Y48351D01*
X25975Y48336D01*
X25952Y48316D01*
X25933Y48293D01*
X25917Y48268D01*
X25906Y48240D01*
X25899Y48211D01*
X25897Y48181D01*
Y47419D01*
X25899Y47389D01*
X25906Y47360D01*
X25917Y47332D01*
X25933Y47307D01*
X25952Y47284D01*
X25975Y47265D01*
X26001Y47249D01*
X26028Y47237D01*
X26057Y47230D01*
X26087Y47228D01*
Y44143D01*
X25400Y44141D01*
Y60100D01*
G37*
G36*
Y93848D02*X27700D01*
Y89642D01*
X27580Y89633D01*
X27406Y89591D01*
X27239Y89522D01*
X27086Y89428D01*
X26949Y89311D01*
X26832Y89174D01*
X26738Y89021D01*
X26669Y88854D01*
X26627Y88679D01*
X26613Y88500D01*
X26627Y88321D01*
X26669Y88146D01*
X26738Y87980D01*
X26832Y87826D01*
X26949Y87689D01*
X27086Y87573D01*
X27239Y87479D01*
X27406Y87410D01*
X27580Y87368D01*
X27700Y87358D01*
Y85800D01*
X25400D01*
Y93848D01*
G37*
G36*
X19799Y25475D02*X23487D01*
X23500Y25474D01*
X23551Y25478D01*
X23551Y25478D01*
X23601Y25490D01*
X23648Y25509D01*
X23691Y25536D01*
X23730Y25569D01*
X23739Y25579D01*
X24402Y26243D01*
X24405Y26206D01*
X24427Y26114D01*
X24463Y26027D01*
X24513Y25946D01*
X24574Y25874D01*
X24646Y25813D01*
X24727Y25764D01*
X24814Y25727D01*
X24906Y25705D01*
X25000Y25698D01*
X25094Y25705D01*
X25186Y25727D01*
X25273Y25764D01*
X25354Y25813D01*
X25400Y25852D01*
Y4852D01*
X19799D01*
Y25475D01*
G37*
G36*
Y60100D02*X25400D01*
Y44141D01*
X24578Y44140D01*
X24520Y44126D01*
X24464Y44103D01*
X24413Y44071D01*
X24368Y44032D01*
X24329Y43987D01*
X24297Y43936D01*
X24274Y43880D01*
X24260Y43822D01*
X24257Y43762D01*
X24260Y42178D01*
X24274Y42120D01*
X24297Y42065D01*
X24329Y42013D01*
X24368Y41968D01*
X24413Y41929D01*
X24464Y41898D01*
X24520Y41875D01*
X24578Y41861D01*
X24638Y41857D01*
X25400Y41859D01*
Y28931D01*
X23119Y26650D01*
X19799D01*
Y28420D01*
X19846Y28476D01*
X19891Y28550D01*
X19925Y28630D01*
X19945Y28714D01*
X19950Y28800D01*
X19945Y28886D01*
X19925Y28971D01*
X19891Y29051D01*
X19852Y29115D01*
X19852Y30385D01*
X19891Y30449D01*
X19925Y30529D01*
X19945Y30614D01*
X19950Y30700D01*
X19945Y30786D01*
X19925Y30871D01*
X19891Y30951D01*
X19846Y31024D01*
X19799Y31080D01*
Y34148D01*
X19800Y34148D01*
X19886Y34155D01*
X19970Y34175D01*
X20050Y34208D01*
X20124Y34254D01*
X20190Y34310D01*
X20246Y34376D01*
X20292Y34449D01*
X20325Y34529D01*
X20345Y34614D01*
X20350Y34700D01*
X20345Y34786D01*
X20325Y34871D01*
X20292Y34951D01*
X20246Y35024D01*
X20228Y35045D01*
Y36255D01*
X20246Y36276D01*
X20292Y36350D01*
X20325Y36430D01*
X20345Y36514D01*
X20350Y36600D01*
X20345Y36687D01*
X20325Y36771D01*
X20292Y36851D01*
X20246Y36925D01*
X20190Y36990D01*
X20124Y37047D01*
X20050Y37092D01*
X19970Y37125D01*
X19886Y37145D01*
X19800Y37152D01*
X19799Y37152D01*
Y40148D01*
X19800Y40148D01*
X19886Y40155D01*
X19970Y40175D01*
X20050Y40208D01*
X20124Y40254D01*
X20190Y40310D01*
X20246Y40376D01*
X20292Y40449D01*
X20325Y40529D01*
X20345Y40614D01*
X20350Y40700D01*
X20345Y40786D01*
X20325Y40871D01*
X20292Y40951D01*
X20246Y41024D01*
X20228Y41045D01*
Y42255D01*
X20246Y42276D01*
X20292Y42350D01*
X20325Y42430D01*
X20345Y42514D01*
X20350Y42600D01*
X20345Y42687D01*
X20325Y42771D01*
X20292Y42851D01*
X20246Y42925D01*
X20190Y42990D01*
X20124Y43047D01*
X20050Y43092D01*
X19970Y43125D01*
X19886Y43145D01*
X19800Y43152D01*
X19799Y43152D01*
Y60100D01*
G37*
G36*
Y93848D02*X25400D01*
Y85800D01*
X19799D01*
Y93848D01*
G37*
G36*
X15147Y95348D02*Y94110D01*
X15147Y94100D01*
X15150Y94060D01*
X15159Y94022D01*
X15174Y93985D01*
X15195Y93951D01*
X15221Y93921D01*
X15251Y93895D01*
X15285Y93875D01*
X15322Y93859D01*
X15360Y93850D01*
X15400Y93847D01*
X15410Y93848D01*
X19799D01*
Y85800D01*
X14900D01*
Y60100D01*
X19799D01*
Y43152D01*
X19714Y43145D01*
X19629Y43125D01*
X19549Y43092D01*
X19476Y43047D01*
X19410Y42990D01*
X19353Y42925D01*
X19308Y42851D01*
X19275Y42771D01*
X19255Y42687D01*
X19248Y42600D01*
X19255Y42514D01*
X19275Y42430D01*
X19308Y42350D01*
X19353Y42276D01*
X19371Y42255D01*
Y41045D01*
X19353Y41024D01*
X19308Y40951D01*
X19275Y40871D01*
X19255Y40786D01*
X19248Y40700D01*
X19255Y40614D01*
X19275Y40529D01*
X19308Y40449D01*
X19353Y40376D01*
X19410Y40310D01*
X19476Y40254D01*
X19549Y40208D01*
X19629Y40175D01*
X19714Y40155D01*
X19799Y40148D01*
Y37152D01*
X19714Y37145D01*
X19629Y37125D01*
X19549Y37092D01*
X19476Y37047D01*
X19410Y36990D01*
X19353Y36925D01*
X19308Y36851D01*
X19275Y36771D01*
X19255Y36687D01*
X19248Y36600D01*
X19255Y36514D01*
X19275Y36430D01*
X19308Y36350D01*
X19353Y36276D01*
X19371Y36255D01*
Y35045D01*
X19353Y35024D01*
X19308Y34951D01*
X19275Y34871D01*
X19255Y34786D01*
X19248Y34700D01*
X19255Y34614D01*
X19275Y34529D01*
X19308Y34449D01*
X19353Y34376D01*
X19410Y34310D01*
X19476Y34254D01*
X19549Y34208D01*
X19629Y34175D01*
X19714Y34155D01*
X19799Y34148D01*
Y31080D01*
X19790Y31090D01*
X19724Y31146D01*
X19650Y31192D01*
X19570Y31225D01*
X19486Y31245D01*
X19400Y31252D01*
X19313Y31245D01*
X19229Y31225D01*
X19149Y31192D01*
X19075Y31146D01*
X19010Y31090D01*
X18953Y31024D01*
X18908Y30951D01*
X18875Y30871D01*
X18855Y30786D01*
X18848Y30700D01*
X18855Y30614D01*
X18875Y30529D01*
X18908Y30449D01*
X18947Y30385D01*
X18948Y29115D01*
X18908Y29051D01*
X18875Y28971D01*
X18855Y28886D01*
X18848Y28800D01*
X18855Y28714D01*
X18875Y28630D01*
X18908Y28550D01*
X18953Y28476D01*
X19010Y28410D01*
X19075Y28354D01*
X19149Y28308D01*
X19229Y28275D01*
X19313Y28255D01*
X19400Y28248D01*
X19486Y28255D01*
X19570Y28275D01*
X19650Y28308D01*
X19724Y28354D01*
X19790Y28410D01*
X19799Y28420D01*
Y26650D01*
X19689D01*
X19664Y26692D01*
X19630Y26731D01*
X19591Y26764D01*
X19548Y26791D01*
X19501Y26810D01*
X19451Y26822D01*
X19400Y26825D01*
X18112D01*
X18100Y26826D01*
X18049Y26822D01*
X17999Y26810D01*
X17952Y26791D01*
X17908Y26764D01*
X17908Y26764D01*
X17869Y26731D01*
X17861Y26721D01*
X17506Y26366D01*
X17490Y26370D01*
X17400Y26377D01*
X17309Y26370D01*
X17221Y26349D01*
X17138Y26314D01*
X17061Y26267D01*
X16992Y26208D01*
X16933Y26139D01*
X16886Y26062D01*
X16851Y25978D01*
X16830Y25890D01*
X16823Y25800D01*
X16830Y25710D01*
X16851Y25622D01*
X16886Y25538D01*
X16933Y25461D01*
X16992Y25392D01*
X17061Y25333D01*
X17138Y25286D01*
X17221Y25251D01*
X17309Y25230D01*
X17400Y25223D01*
X17490Y25230D01*
X17578Y25251D01*
X17662Y25286D01*
X17739Y25333D01*
X17808Y25392D01*
X17866Y25461D01*
X17914Y25538D01*
X17948Y25622D01*
X17970Y25710D01*
X17975Y25800D01*
X17970Y25890D01*
X17966Y25906D01*
X18234Y26175D01*
X18564D01*
X18533Y26139D01*
X18486Y26062D01*
X18451Y25978D01*
X18430Y25890D01*
X18423Y25800D01*
X18430Y25710D01*
X18451Y25622D01*
X18486Y25538D01*
X18533Y25461D01*
X18592Y25392D01*
X18661Y25333D01*
X18738Y25286D01*
X18822Y25251D01*
X18910Y25230D01*
X19000Y25223D01*
X19090Y25230D01*
X19178Y25251D01*
X19262Y25286D01*
X19339Y25333D01*
X19408Y25392D01*
X19467Y25461D01*
X19475Y25475D01*
X19799D01*
Y4852D01*
X15410D01*
X15400Y4853D01*
X15360Y4850D01*
X15322Y4841D01*
X15285Y4826D01*
X15251Y4805D01*
X15221Y4779D01*
X15195Y4749D01*
X15174Y4715D01*
X15159Y4678D01*
X15150Y4640D01*
X15150Y4640D01*
X15147Y4600D01*
X15147Y4590D01*
Y3352D01*
X14675D01*
Y33794D01*
X14726Y33879D01*
X14782Y34013D01*
X14816Y34155D01*
X14825Y34300D01*
X14816Y34445D01*
X14782Y34587D01*
X14726Y34721D01*
X14675Y34806D01*
Y35794D01*
X14726Y35879D01*
X14782Y36013D01*
X14816Y36155D01*
X14825Y36300D01*
X14816Y36445D01*
X14782Y36587D01*
X14726Y36721D01*
X14675Y36806D01*
Y37629D01*
X14732Y37696D01*
X14816Y37833D01*
X14878Y37982D01*
X14915Y38139D01*
X14925Y38300D01*
X14915Y38461D01*
X14878Y38618D01*
X14816Y38767D01*
X14732Y38904D01*
X14675Y38971D01*
Y40354D01*
X14686Y40355D01*
X14770Y40375D01*
X14850Y40408D01*
X14924Y40454D01*
X14990Y40510D01*
X15046Y40576D01*
X15091Y40650D01*
X15125Y40730D01*
X15145Y40814D01*
X15150Y40900D01*
X15145Y40986D01*
X15125Y41071D01*
X15091Y41151D01*
X15046Y41224D01*
X14990Y41290D01*
X14924Y41347D01*
X14850Y41392D01*
X14770Y41425D01*
X14686Y41445D01*
X14675Y41446D01*
Y46821D01*
X15475Y46021D01*
Y37893D01*
X15456Y37818D01*
X15450Y37700D01*
Y34300D01*
X15450Y34298D01*
X15450Y31700D01*
X15456Y31582D01*
X15484Y31468D01*
X15529Y31358D01*
X15591Y31258D01*
X15668Y31168D01*
X15757Y31091D01*
X15858Y31030D01*
X15967Y30984D01*
X16082Y30957D01*
X16200Y30947D01*
X16318Y30957D01*
X16432Y30984D01*
X16541Y31030D01*
X16642Y31091D01*
X16732Y31168D01*
X16809Y31258D01*
X16870Y31358D01*
X16916Y31468D01*
X16943Y31582D01*
X16950Y31700D01*
X16950Y34300D01*
X16950Y34302D01*
Y37700D01*
X16943Y37818D01*
X16925Y37893D01*
Y46300D01*
X16918Y46414D01*
X16892Y46525D01*
X16848Y46630D01*
X16788Y46728D01*
X16714Y46815D01*
X16627Y46889D01*
X16597Y46908D01*
X14818Y48686D01*
X14825Y48800D01*
X14816Y48945D01*
X14812Y48962D01*
X17232Y51382D01*
X17266Y51390D01*
X17343Y51422D01*
X17415Y51466D01*
X17479Y51521D01*
X17534Y51585D01*
X17578Y51656D01*
X17610Y51734D01*
X17630Y51816D01*
X17635Y51900D01*
X17630Y51984D01*
X17610Y52066D01*
X17578Y52144D01*
X17534Y52216D01*
X17479Y52280D01*
X17415Y52334D01*
X17343Y52378D01*
X17266Y52410D01*
X17184Y52430D01*
X17100Y52437D01*
X17016Y52430D01*
X16934Y52410D01*
X16856Y52378D01*
X16784Y52334D01*
X16720Y52280D01*
X16666Y52216D01*
X16622Y52144D01*
X16589Y52066D01*
X16581Y52032D01*
X14675Y50126D01*
Y50294D01*
X14726Y50379D01*
X14782Y50513D01*
X14816Y50655D01*
X14825Y50800D01*
X14816Y50945D01*
X14782Y51087D01*
X14726Y51221D01*
X14675Y51306D01*
Y52225D01*
X14690Y52226D01*
X14706Y52230D01*
X14720Y52236D01*
X14734Y52244D01*
X14746Y52254D01*
X14756Y52266D01*
X14764Y52279D01*
X14770Y52294D01*
X14774Y52309D01*
X14775Y52325D01*
Y53275D01*
X14774Y53291D01*
X14770Y53306D01*
X14764Y53321D01*
X14756Y53334D01*
X14746Y53346D01*
X14734Y53356D01*
X14720Y53365D01*
X14706Y53371D01*
X14690Y53374D01*
X14675Y53375D01*
Y95348D01*
X15147D01*
G37*
G36*
X14675Y51306D02*X14650Y51345D01*
X14556Y51456D01*
X14445Y51551D01*
X14321Y51627D01*
X14303Y51634D01*
Y51925D01*
X14375D01*
X14391Y51926D01*
X14406Y51930D01*
X14420Y51936D01*
X14434Y51944D01*
X14446Y51954D01*
X14456Y51966D01*
X14464Y51980D01*
X14470Y51994D01*
X14474Y52009D01*
X14475Y52025D01*
X14474Y52041D01*
X14470Y52056D01*
X14464Y52071D01*
X14456Y52084D01*
X14446Y52096D01*
X14434Y52106D01*
X14420Y52114D01*
X14406Y52120D01*
X14391Y52124D01*
X14375Y52125D01*
X14303D01*
Y53475D01*
X14375D01*
X14391Y53476D01*
X14406Y53480D01*
X14420Y53486D01*
X14434Y53494D01*
X14446Y53504D01*
X14456Y53516D01*
X14464Y53530D01*
X14470Y53544D01*
X14474Y53559D01*
X14475Y53575D01*
X14474Y53591D01*
X14470Y53606D01*
X14464Y53621D01*
X14456Y53634D01*
X14446Y53646D01*
X14434Y53656D01*
X14420Y53664D01*
X14406Y53670D01*
X14391Y53674D01*
X14375Y53675D01*
X14303D01*
Y95348D01*
X14675D01*
Y53375D01*
X14659Y53374D01*
X14644Y53371D01*
X14629Y53365D01*
X14616Y53356D01*
X14604Y53346D01*
X14594Y53334D01*
X14585Y53321D01*
X14579Y53306D01*
X14576Y53291D01*
X14575Y53275D01*
Y52325D01*
X14576Y52309D01*
X14579Y52294D01*
X14585Y52279D01*
X14594Y52266D01*
X14604Y52254D01*
X14616Y52244D01*
X14629Y52236D01*
X14644Y52230D01*
X14659Y52226D01*
X14675Y52225D01*
Y51306D01*
G37*
G36*
Y50126D02*X14303Y49754D01*
Y49966D01*
X14321Y49973D01*
X14445Y50049D01*
X14556Y50144D01*
X14650Y50255D01*
X14675Y50294D01*
Y50126D01*
G37*
G36*
Y41446D02*X14600Y41452D01*
X14513Y41445D01*
X14429Y41425D01*
X14349Y41392D01*
X14303Y41364D01*
Y47192D01*
X14675Y46821D01*
Y41446D01*
G37*
G36*
Y38971D02*X14627Y39027D01*
X14504Y39132D01*
X14367Y39216D01*
X14303Y39242D01*
Y40003D01*
X14653Y40352D01*
X14675Y40354D01*
Y38971D01*
G37*
G36*
Y36806D02*X14650Y36845D01*
X14556Y36956D01*
X14445Y37051D01*
X14321Y37127D01*
X14303Y37134D01*
Y37358D01*
X14367Y37384D01*
X14504Y37468D01*
X14627Y37573D01*
X14675Y37629D01*
Y36806D01*
G37*
G36*
Y34806D02*X14650Y34845D01*
X14556Y34956D01*
X14445Y35051D01*
X14321Y35127D01*
X14303Y35134D01*
Y35466D01*
X14321Y35473D01*
X14445Y35549D01*
X14556Y35644D01*
X14650Y35755D01*
X14675Y35794D01*
Y34806D01*
G37*
G36*
Y3352D02*X14303D01*
Y33466D01*
X14321Y33473D01*
X14445Y33549D01*
X14556Y33644D01*
X14650Y33755D01*
X14675Y33794D01*
Y3352D01*
G37*
G36*
X14303Y39242D02*X14217Y39278D01*
X14061Y39316D01*
X13900Y39328D01*
X13739Y39316D01*
X13582Y39278D01*
X13576Y39275D01*
X14303Y40003D01*
Y39242D01*
G37*
G36*
Y37134D02*X14187Y37182D01*
X14045Y37216D01*
X13900Y37228D01*
X13755Y37216D01*
X13613Y37182D01*
X13479Y37127D01*
X13354Y37051D01*
X13244Y36956D01*
X13149Y36845D01*
X13073Y36721D01*
X13017Y36587D01*
X12990Y36471D01*
X12990Y36473D01*
X12949Y36641D01*
X12883Y36801D01*
X12792Y36949D01*
X12680Y37080D01*
X12548Y37193D01*
X12420Y37271D01*
X12423Y37272D01*
X12578Y37367D01*
X12715Y37484D01*
X12833Y37622D01*
X12928Y37776D01*
X12967Y37873D01*
X12984Y37833D01*
X13068Y37696D01*
X13173Y37573D01*
X13296Y37468D01*
X13433Y37384D01*
X13582Y37322D01*
X13739Y37285D01*
X13900Y37272D01*
X14061Y37285D01*
X14217Y37322D01*
X14303Y37358D01*
Y37134D01*
G37*
G36*
X13125Y35794D02*X13149Y35755D01*
X13244Y35644D01*
X13354Y35549D01*
X13479Y35473D01*
X13613Y35418D01*
X13755Y35384D01*
X13900Y35372D01*
X14045Y35384D01*
X14187Y35418D01*
X14303Y35466D01*
Y35134D01*
X14187Y35182D01*
X14045Y35216D01*
X13900Y35228D01*
X13755Y35216D01*
X13613Y35182D01*
X13479Y35127D01*
X13354Y35051D01*
X13244Y34956D01*
X13149Y34845D01*
X13125Y34806D01*
Y35794D01*
G37*
G36*
Y48090D02*X13307D01*
X13354Y48049D01*
X13479Y47973D01*
X13553Y47943D01*
X14303Y47192D01*
Y41364D01*
X14275Y41347D01*
X14210Y41290D01*
X14153Y41224D01*
X14108Y41151D01*
X14075Y41071D01*
X14055Y40986D01*
X14052Y40954D01*
X13125Y40026D01*
Y48090D01*
G37*
G36*
Y50294D02*X13149Y50255D01*
X13244Y50144D01*
X13354Y50049D01*
X13479Y49973D01*
X13613Y49918D01*
X13755Y49884D01*
X13900Y49872D01*
X14045Y49884D01*
X14187Y49918D01*
X14303Y49966D01*
Y49754D01*
X14218Y49669D01*
X14187Y49682D01*
X14045Y49716D01*
X13900Y49728D01*
X13755Y49716D01*
X13613Y49682D01*
X13479Y49627D01*
X13354Y49551D01*
X13307Y49510D01*
X13125D01*
Y50294D01*
G37*
G36*
Y95348D02*X14303D01*
Y53675D01*
X13425D01*
X13409Y53674D01*
X13394Y53670D01*
X13379Y53664D01*
X13366Y53656D01*
X13354Y53646D01*
X13344Y53634D01*
X13335Y53621D01*
X13329Y53606D01*
X13326Y53591D01*
X13324Y53575D01*
X13326Y53559D01*
X13329Y53544D01*
X13335Y53530D01*
X13344Y53516D01*
X13354Y53504D01*
X13366Y53494D01*
X13379Y53486D01*
X13394Y53480D01*
X13409Y53476D01*
X13425Y53475D01*
X14303D01*
Y52125D01*
X13425D01*
X13409Y52124D01*
X13394Y52120D01*
X13379Y52114D01*
X13366Y52106D01*
X13354Y52096D01*
X13344Y52084D01*
X13335Y52071D01*
X13329Y52056D01*
X13326Y52041D01*
X13324Y52025D01*
X13326Y52009D01*
X13329Y51994D01*
X13335Y51980D01*
X13344Y51966D01*
X13354Y51954D01*
X13366Y51944D01*
X13379Y51936D01*
X13394Y51930D01*
X13409Y51926D01*
X13425Y51925D01*
X14303D01*
Y51634D01*
X14187Y51682D01*
X14045Y51716D01*
X13900Y51728D01*
X13755Y51716D01*
X13613Y51682D01*
X13479Y51627D01*
X13354Y51551D01*
X13244Y51456D01*
X13149Y51345D01*
X13125Y51306D01*
Y52225D01*
X13141Y52226D01*
X13156Y52230D01*
X13170Y52236D01*
X13184Y52244D01*
X13196Y52254D01*
X13206Y52266D01*
X13214Y52279D01*
X13220Y52294D01*
X13224Y52309D01*
X13225Y52325D01*
Y53275D01*
X13224Y53291D01*
X13220Y53306D01*
X13214Y53321D01*
X13206Y53334D01*
X13196Y53346D01*
X13184Y53356D01*
X13170Y53365D01*
X13156Y53371D01*
X13141Y53374D01*
X13125Y53375D01*
Y95348D01*
G37*
G36*
X14303Y3352D02*X13125D01*
Y33794D01*
X13149Y33755D01*
X13244Y33644D01*
X13354Y33549D01*
X13479Y33473D01*
X13613Y33418D01*
X13755Y33384D01*
X13900Y33372D01*
X14045Y33384D01*
X14187Y33418D01*
X14303Y33466D01*
Y3352D01*
G37*
G36*
X11900Y47872D02*X12045Y47884D01*
X12187Y47918D01*
X12321Y47973D01*
X12445Y48049D01*
X12493Y48090D01*
X13125D01*
Y40026D01*
X12425Y39327D01*
X12423Y39328D01*
X12256Y39397D01*
X12080Y39439D01*
X11900Y39454D01*
Y47872D01*
G37*
G36*
X12622Y95348D02*X13125D01*
Y53375D01*
X13109Y53374D01*
X13094Y53371D01*
X13079Y53365D01*
X13066Y53356D01*
X13054Y53346D01*
X13044Y53334D01*
X13036Y53321D01*
X13029Y53306D01*
X13026Y53291D01*
X13025Y53275D01*
Y52325D01*
X13026Y52309D01*
X13029Y52294D01*
X13036Y52279D01*
X13044Y52266D01*
X13054Y52254D01*
X13066Y52244D01*
X13079Y52236D01*
X13094Y52230D01*
X13109Y52226D01*
X13125Y52225D01*
Y51306D01*
X13073Y51221D01*
X13017Y51087D01*
X12983Y50945D01*
X12972Y50800D01*
X12983Y50655D01*
X13017Y50513D01*
X13073Y50379D01*
X13125Y50294D01*
Y49510D01*
X12622D01*
Y50222D01*
X12650Y50255D01*
X12726Y50379D01*
X12782Y50513D01*
X12816Y50655D01*
X12825Y50800D01*
X12816Y50945D01*
X12782Y51087D01*
X12726Y51221D01*
X12650Y51345D01*
X12622Y51379D01*
Y52325D01*
X12624Y52326D01*
X12636Y52335D01*
X12647Y52347D01*
X12656Y52360D01*
X12692Y52427D01*
X12722Y52498D01*
X12745Y52572D01*
X12762Y52647D01*
X12772Y52723D01*
X12776Y52800D01*
X12772Y52877D01*
X12762Y52953D01*
X12745Y53028D01*
X12722Y53102D01*
X12692Y53173D01*
X12657Y53241D01*
X12648Y53254D01*
X12637Y53265D01*
X12624Y53275D01*
X12622Y53276D01*
Y95348D01*
G37*
G36*
Y49510D02*X12493D01*
X12445Y49551D01*
X12321Y49627D01*
X12187Y49682D01*
X12045Y49716D01*
X11900Y49728D01*
Y49872D01*
X12045Y49884D01*
X12187Y49918D01*
X12321Y49973D01*
X12445Y50049D01*
X12556Y50144D01*
X12622Y50222D01*
Y49510D01*
G37*
G36*
X11900Y95348D02*X12622D01*
Y53276D01*
X12610Y53283D01*
X12595Y53288D01*
X12580Y53291D01*
X12564Y53291D01*
X12548Y53289D01*
X12533Y53284D01*
X12519Y53277D01*
X12506Y53268D01*
X12494Y53257D01*
X12485Y53245D01*
X12477Y53231D01*
X12472Y53216D01*
X12469Y53200D01*
X12469Y53184D01*
X12471Y53169D01*
X12475Y53154D01*
X12483Y53140D01*
X12511Y53087D01*
X12534Y53033D01*
X12551Y52976D01*
X12564Y52918D01*
X12572Y52859D01*
X12575Y52800D01*
X12572Y52741D01*
X12564Y52682D01*
X12551Y52624D01*
X12534Y52568D01*
X12511Y52513D01*
X12483Y52460D01*
X12476Y52446D01*
X12471Y52431D01*
X12469Y52416D01*
X12470Y52400D01*
X12472Y52384D01*
X12478Y52370D01*
X12485Y52356D01*
X12495Y52343D01*
X12506Y52332D01*
X12519Y52323D01*
X12533Y52317D01*
X12548Y52312D01*
X12564Y52310D01*
X12580Y52310D01*
X12595Y52313D01*
X12610Y52318D01*
X12622Y52325D01*
Y51379D01*
X12556Y51456D01*
X12445Y51551D01*
X12321Y51627D01*
X12187Y51682D01*
X12045Y51716D01*
X11900Y51728D01*
Y51924D01*
X11977Y51928D01*
X12053Y51938D01*
X12128Y51955D01*
X12201Y51978D01*
X12272Y52008D01*
X12341Y52043D01*
X12354Y52052D01*
X12365Y52063D01*
X12375Y52076D01*
X12382Y52090D01*
X12387Y52105D01*
X12390Y52120D01*
X12391Y52136D01*
X12388Y52152D01*
X12384Y52167D01*
X12377Y52181D01*
X12368Y52194D01*
X12357Y52206D01*
X12344Y52215D01*
X12331Y52223D01*
X12316Y52228D01*
X12300Y52231D01*
X12284Y52231D01*
X12268Y52229D01*
X12253Y52225D01*
X12239Y52217D01*
X12187Y52189D01*
X12132Y52166D01*
X12076Y52148D01*
X12018Y52136D01*
X11959Y52128D01*
X11900Y52125D01*
Y53475D01*
X11959Y53472D01*
X12018Y53465D01*
X12076Y53452D01*
X12132Y53434D01*
X12187Y53411D01*
X12240Y53383D01*
X12254Y53376D01*
X12269Y53372D01*
X12284Y53370D01*
X12300Y53370D01*
X12315Y53373D01*
X12330Y53378D01*
X12344Y53385D01*
X12357Y53395D01*
X12368Y53406D01*
X12376Y53419D01*
X12383Y53433D01*
X12388Y53449D01*
X12390Y53464D01*
X12390Y53480D01*
X12387Y53495D01*
X12382Y53510D01*
X12374Y53524D01*
X12365Y53537D01*
X12353Y53547D01*
X12340Y53556D01*
X12272Y53593D01*
X12201Y53622D01*
X12128Y53646D01*
X12053Y53662D01*
X11977Y53672D01*
X11900Y53676D01*
Y95348D01*
G37*
G36*
X13125Y3352D02*X11900D01*
Y33277D01*
X12630Y33278D01*
X12683Y33291D01*
X12734Y33312D01*
X12781Y33341D01*
X12823Y33377D01*
X12859Y33419D01*
X12888Y33466D01*
X12909Y33517D01*
X12921Y33570D01*
X12925Y33625D01*
X12921Y35030D01*
X12909Y35084D01*
X12888Y35134D01*
X12859Y35181D01*
X12823Y35223D01*
X12781Y35259D01*
X12734Y35288D01*
X12683Y35309D01*
X12630Y35322D01*
X12575Y35325D01*
X12413Y35325D01*
X12548Y35408D01*
X12680Y35520D01*
X12792Y35652D01*
X12883Y35799D01*
X12949Y35959D01*
X12990Y36128D01*
X12990Y36129D01*
X13017Y36013D01*
X13073Y35879D01*
X13125Y35794D01*
Y34806D01*
X13073Y34721D01*
X13017Y34587D01*
X12983Y34445D01*
X12972Y34300D01*
X12983Y34155D01*
X13017Y34013D01*
X13073Y33879D01*
X13125Y33794D01*
Y3352D01*
G37*
G36*
X11177Y35471D02*X11251Y35408D01*
X11390Y35322D01*
X11177Y35322D01*
Y35471D01*
G37*
G36*
Y37405D02*X11222Y37367D01*
X11376Y37272D01*
X11379Y37271D01*
X11251Y37193D01*
X11177Y37130D01*
Y37405D01*
G37*
G36*
Y48222D02*X11244Y48144D01*
X11354Y48049D01*
X11479Y47973D01*
X11613Y47918D01*
X11755Y47884D01*
X11900Y47872D01*
X11900Y47872D01*
Y39454D01*
X11900Y39454D01*
X11719Y39439D01*
X11543Y39397D01*
X11376Y39328D01*
X11222Y39233D01*
X11177Y39195D01*
Y48222D01*
G37*
G36*
Y50222D02*X11244Y50144D01*
X11354Y50049D01*
X11479Y49973D01*
X11613Y49918D01*
X11755Y49884D01*
X11900Y49872D01*
X11900Y49872D01*
Y49728D01*
X11900Y49728D01*
X11755Y49716D01*
X11613Y49682D01*
X11479Y49627D01*
X11354Y49551D01*
X11244Y49456D01*
X11177Y49379D01*
Y50222D01*
G37*
G36*
Y95348D02*X11900D01*
Y53676D01*
X11900Y53676D01*
X11823Y53672D01*
X11747Y53662D01*
X11672Y53646D01*
X11598Y53622D01*
X11527Y53593D01*
X11459Y53557D01*
X11446Y53548D01*
X11434Y53537D01*
X11425Y53524D01*
X11417Y53510D01*
X11412Y53495D01*
X11409Y53480D01*
X11409Y53464D01*
X11411Y53448D01*
X11416Y53433D01*
X11423Y53419D01*
X11432Y53406D01*
X11443Y53394D01*
X11455Y53385D01*
X11469Y53377D01*
X11484Y53372D01*
X11500Y53369D01*
X11515Y53369D01*
X11531Y53371D01*
X11546Y53376D01*
X11560Y53383D01*
X11613Y53411D01*
X11667Y53434D01*
X11724Y53452D01*
X11782Y53465D01*
X11841Y53472D01*
X11900Y53475D01*
X11900Y53475D01*
Y52125D01*
X11900Y52125D01*
X11841Y52128D01*
X11782Y52136D01*
X11724Y52148D01*
X11667Y52166D01*
X11613Y52189D01*
X11560Y52217D01*
X11546Y52224D01*
X11531Y52228D01*
X11515Y52231D01*
X11500Y52230D01*
X11484Y52227D01*
X11469Y52222D01*
X11455Y52215D01*
X11443Y52205D01*
X11432Y52194D01*
X11423Y52181D01*
X11416Y52167D01*
X11412Y52152D01*
X11410Y52136D01*
X11410Y52120D01*
X11413Y52105D01*
X11418Y52090D01*
X11425Y52076D01*
X11435Y52064D01*
X11446Y52053D01*
X11459Y52044D01*
X11527Y52008D01*
X11598Y51978D01*
X11672Y51955D01*
X11747Y51938D01*
X11823Y51928D01*
X11900Y51924D01*
X11900Y51924D01*
Y51728D01*
X11900Y51728D01*
X11755Y51716D01*
X11613Y51682D01*
X11479Y51627D01*
X11354Y51551D01*
X11244Y51456D01*
X11177Y51379D01*
Y52324D01*
X11189Y52318D01*
X11204Y52312D01*
X11220Y52310D01*
X11236Y52309D01*
X11252Y52311D01*
X11267Y52316D01*
X11281Y52323D01*
X11294Y52332D01*
X11305Y52343D01*
X11315Y52355D01*
X11323Y52369D01*
X11328Y52384D01*
X11331Y52400D01*
X11331Y52416D01*
X11329Y52431D01*
X11324Y52447D01*
X11317Y52461D01*
X11289Y52513D01*
X11266Y52568D01*
X11248Y52624D01*
X11235Y52682D01*
X11227Y52741D01*
X11225Y52800D01*
X11227Y52859D01*
X11235Y52918D01*
X11248Y52976D01*
X11266Y53033D01*
X11289Y53087D01*
X11317Y53140D01*
X11324Y53154D01*
X11328Y53169D01*
X11330Y53185D01*
X11330Y53200D01*
X11327Y53216D01*
X11322Y53231D01*
X11314Y53244D01*
X11305Y53257D01*
X11294Y53268D01*
X11281Y53277D01*
X11266Y53284D01*
X11251Y53288D01*
X11236Y53290D01*
X11220Y53290D01*
X11205Y53287D01*
X11190Y53282D01*
X11177Y53275D01*
Y95348D01*
G37*
G36*
X11900Y3352D02*X11177D01*
Y33278D01*
X11225Y33275D01*
X11900Y33277D01*
Y3352D01*
G37*
G36*
X11177D02*X4152D01*
Y14348D01*
X5390D01*
X5400Y14347D01*
X5439Y14350D01*
X5439Y14350D01*
X5478Y14359D01*
X5515Y14375D01*
X5549Y14395D01*
X5579Y14421D01*
X5605Y14451D01*
X5625Y14485D01*
X5641Y14522D01*
X5650Y14560D01*
X5653Y14600D01*
X5652Y14610D01*
Y84090D01*
X5653Y84100D01*
X5650Y84140D01*
X5641Y84178D01*
X5625Y84215D01*
X5605Y84249D01*
X5579Y84279D01*
X5549Y84305D01*
X5515Y84326D01*
X5478Y84341D01*
X5439Y84350D01*
X5400Y84353D01*
X5390Y84352D01*
X4152D01*
Y95348D01*
X11177D01*
Y53275D01*
X11176Y53274D01*
X11163Y53265D01*
X11152Y53254D01*
X11144Y53240D01*
X11107Y53173D01*
X11078Y53102D01*
X11054Y53028D01*
X11038Y52953D01*
X11027Y52877D01*
X11024Y52800D01*
X11027Y52723D01*
X11038Y52647D01*
X11054Y52572D01*
X11078Y52498D01*
X11107Y52427D01*
X11143Y52359D01*
X11152Y52346D01*
X11163Y52335D01*
X11176Y52325D01*
X11177Y52324D01*
Y51379D01*
X11149Y51345D01*
X11073Y51221D01*
X11017Y51087D01*
X10983Y50945D01*
X10972Y50800D01*
X10983Y50655D01*
X11017Y50513D01*
X11073Y50379D01*
X11149Y50255D01*
X11177Y50222D01*
Y49379D01*
X11149Y49345D01*
X11073Y49221D01*
X11017Y49087D01*
X10983Y48945D01*
X10972Y48800D01*
X10983Y48655D01*
X11017Y48513D01*
X11073Y48379D01*
X11149Y48255D01*
X11177Y48222D01*
Y39195D01*
X11084Y39116D01*
X10967Y38978D01*
X10872Y38824D01*
X10803Y38657D01*
X10761Y38481D01*
X10746Y38300D01*
X10761Y38120D01*
X10803Y37944D01*
X10872Y37776D01*
X10967Y37622D01*
X11084Y37484D01*
X11177Y37405D01*
Y37130D01*
X11120Y37080D01*
X11007Y36949D01*
X10917Y36801D01*
X10851Y36641D01*
X10810Y36473D01*
X10797Y36300D01*
X10810Y36128D01*
X10851Y35959D01*
X10917Y35799D01*
X11007Y35652D01*
X11120Y35520D01*
X11177Y35471D01*
Y35322D01*
X11170Y35322D01*
X11116Y35309D01*
X11065Y35288D01*
X11019Y35259D01*
X10977Y35223D01*
X10941Y35181D01*
X10912Y35134D01*
X10891Y35084D01*
X10878Y35030D01*
X10875Y34975D01*
X10878Y33570D01*
X10891Y33517D01*
X10912Y33466D01*
X10941Y33419D01*
X10977Y33377D01*
X11019Y33341D01*
X11065Y33312D01*
X11116Y33291D01*
X11170Y33278D01*
X11177Y33278D01*
Y3352D01*
G37*
G36*
X30218Y86200D02*X32300D01*
Y85291D01*
X32170Y85212D01*
X32051Y85109D01*
X31948Y84990D01*
X31866Y84855D01*
X31806Y84710D01*
X31769Y84557D01*
X31757Y84400D01*
X31769Y84243D01*
X31806Y84090D01*
X31866Y83945D01*
X31948Y83810D01*
X32051Y83691D01*
X32170Y83588D01*
X32304Y83506D01*
X32450Y83446D01*
X32603Y83409D01*
X32760Y83397D01*
X32917Y83409D01*
X33070Y83446D01*
X33165Y83485D01*
X33750Y82900D01*
X30218D01*
Y83397D01*
X30220Y83397D01*
X30377Y83409D01*
X30530Y83446D01*
X30675Y83506D01*
X30809Y83588D01*
X30929Y83691D01*
X31031Y83810D01*
X31114Y83945D01*
X31174Y84090D01*
X31211Y84243D01*
X31220Y84400D01*
X31211Y84557D01*
X31174Y84710D01*
X31114Y84855D01*
X31031Y84990D01*
X30929Y85109D01*
X30809Y85212D01*
X30675Y85294D01*
X30530Y85354D01*
X30377Y85391D01*
X30220Y85403D01*
X30218Y85403D01*
Y86200D01*
G37*
G36*
X27678D02*X30218D01*
Y85403D01*
X30063Y85391D01*
X29910Y85354D01*
X29764Y85294D01*
X29630Y85212D01*
X29511Y85109D01*
X29408Y84990D01*
X29326Y84855D01*
X29266Y84710D01*
X29229Y84557D01*
X29217Y84400D01*
X29229Y84243D01*
X29266Y84090D01*
X29326Y83945D01*
X29408Y83810D01*
X29511Y83691D01*
X29630Y83588D01*
X29764Y83506D01*
X29910Y83446D01*
X30063Y83409D01*
X30218Y83397D01*
Y82900D01*
X27678D01*
Y83397D01*
X27680Y83397D01*
X27837Y83409D01*
X27990Y83446D01*
X28135Y83506D01*
X28269Y83588D01*
X28389Y83691D01*
X28491Y83810D01*
X28574Y83945D01*
X28634Y84090D01*
X28671Y84243D01*
X28680Y84400D01*
X28671Y84557D01*
X28634Y84710D01*
X28574Y84855D01*
X28491Y84990D01*
X28389Y85109D01*
X28269Y85212D01*
X28135Y85294D01*
X27990Y85354D01*
X27837Y85391D01*
X27680Y85403D01*
X27678Y85403D01*
Y86200D01*
G37*
G36*
X25138D02*X27678D01*
Y85403D01*
X27523Y85391D01*
X27370Y85354D01*
X27224Y85294D01*
X27090Y85212D01*
X26971Y85109D01*
X26868Y84990D01*
X26786Y84855D01*
X26726Y84710D01*
X26689Y84557D01*
X26677Y84400D01*
X26689Y84243D01*
X26726Y84090D01*
X26786Y83945D01*
X26868Y83810D01*
X26971Y83691D01*
X27090Y83588D01*
X27224Y83506D01*
X27370Y83446D01*
X27523Y83409D01*
X27678Y83397D01*
Y82900D01*
X25138D01*
Y83397D01*
X25140Y83397D01*
X25297Y83409D01*
X25450Y83446D01*
X25595Y83506D01*
X25729Y83588D01*
X25849Y83691D01*
X25951Y83810D01*
X26034Y83945D01*
X26094Y84090D01*
X26131Y84243D01*
X26140Y84400D01*
X26131Y84557D01*
X26094Y84710D01*
X26034Y84855D01*
X25951Y84990D01*
X25849Y85109D01*
X25729Y85212D01*
X25595Y85294D01*
X25450Y85354D01*
X25297Y85391D01*
X25140Y85403D01*
X25138Y85403D01*
Y86200D01*
G37*
G36*
X22598D02*X25138D01*
Y85403D01*
X24983Y85391D01*
X24830Y85354D01*
X24684Y85294D01*
X24550Y85212D01*
X24431Y85109D01*
X24328Y84990D01*
X24246Y84855D01*
X24186Y84710D01*
X24149Y84557D01*
X24137Y84400D01*
X24149Y84243D01*
X24186Y84090D01*
X24246Y83945D01*
X24328Y83810D01*
X24431Y83691D01*
X24550Y83588D01*
X24684Y83506D01*
X24830Y83446D01*
X24983Y83409D01*
X25138Y83397D01*
Y82900D01*
X22598D01*
Y83397D01*
X22600Y83397D01*
X22757Y83409D01*
X22910Y83446D01*
X23055Y83506D01*
X23189Y83588D01*
X23309Y83691D01*
X23411Y83810D01*
X23494Y83945D01*
X23554Y84090D01*
X23591Y84243D01*
X23600Y84400D01*
X23591Y84557D01*
X23554Y84710D01*
X23494Y84855D01*
X23411Y84990D01*
X23309Y85109D01*
X23189Y85212D01*
X23055Y85294D01*
X22910Y85354D01*
X22757Y85391D01*
X22600Y85403D01*
X22598Y85403D01*
Y86200D01*
G37*
G36*
X20847D02*X22598D01*
Y85403D01*
X22443Y85391D01*
X22290Y85354D01*
X22144Y85294D01*
X22010Y85212D01*
X21891Y85109D01*
X21788Y84990D01*
X21706Y84855D01*
X21646Y84710D01*
X21609Y84557D01*
X21597Y84400D01*
X21609Y84243D01*
X21646Y84090D01*
X21706Y83945D01*
X21788Y83810D01*
X21891Y83691D01*
X22010Y83588D01*
X22144Y83506D01*
X22290Y83446D01*
X22443Y83409D01*
X22598Y83397D01*
Y82900D01*
X20847D01*
Y83878D01*
X20849Y83879D01*
X20861Y83890D01*
X20870Y83903D01*
X20913Y83979D01*
X20947Y84059D01*
X20975Y84142D01*
X20995Y84227D01*
X21007Y84313D01*
X21011Y84400D01*
X21007Y84487D01*
X20995Y84573D01*
X20975Y84658D01*
X20947Y84741D01*
X20913Y84821D01*
X20870Y84897D01*
X20861Y84910D01*
X20850Y84921D01*
X20847Y84923D01*
Y86200D01*
G37*
G36*
X20060D02*X20847D01*
Y84923D01*
X20837Y84931D01*
X20823Y84938D01*
X20808Y84943D01*
X20792Y84945D01*
X20776Y84945D01*
X20761Y84943D01*
X20746Y84938D01*
X20732Y84931D01*
X20719Y84921D01*
X20707Y84910D01*
X20698Y84897D01*
X20691Y84883D01*
X20686Y84868D01*
X20684Y84852D01*
X20684Y84836D01*
X20686Y84821D01*
X20691Y84806D01*
X20698Y84792D01*
X20732Y84732D01*
X20760Y84669D01*
X20782Y84604D01*
X20797Y84537D01*
X20807Y84469D01*
X20810Y84400D01*
X20807Y84331D01*
X20797Y84263D01*
X20782Y84196D01*
X20760Y84131D01*
X20732Y84068D01*
X20699Y84008D01*
X20692Y83994D01*
X20687Y83979D01*
X20684Y83963D01*
X20684Y83948D01*
X20687Y83932D01*
X20692Y83917D01*
X20699Y83903D01*
X20708Y83890D01*
X20719Y83879D01*
X20732Y83870D01*
X20746Y83863D01*
X20761Y83858D01*
X20776Y83856D01*
X20792Y83856D01*
X20808Y83858D01*
X20823Y83863D01*
X20837Y83870D01*
X20847Y83878D01*
Y82900D01*
X20060D01*
Y83449D01*
X20147Y83453D01*
X20233Y83465D01*
X20318Y83485D01*
X20401Y83512D01*
X20481Y83547D01*
X20557Y83589D01*
X20570Y83599D01*
X20581Y83610D01*
X20590Y83623D01*
X20598Y83637D01*
X20603Y83652D01*
X20605Y83668D01*
X20605Y83683D01*
X20602Y83699D01*
X20598Y83714D01*
X20590Y83728D01*
X20581Y83741D01*
X20570Y83752D01*
X20557Y83762D01*
X20543Y83769D01*
X20528Y83774D01*
X20512Y83776D01*
X20496Y83776D01*
X20481Y83774D01*
X20466Y83769D01*
X20452Y83761D01*
X20392Y83727D01*
X20329Y83700D01*
X20264Y83678D01*
X20197Y83663D01*
X20128Y83653D01*
X20060Y83650D01*
Y85150D01*
X20128Y85147D01*
X20197Y85137D01*
X20264Y85122D01*
X20329Y85100D01*
X20392Y85073D01*
X20452Y85039D01*
X20466Y85032D01*
X20481Y85027D01*
X20496Y85025D01*
X20512Y85025D01*
X20528Y85027D01*
X20543Y85032D01*
X20557Y85039D01*
X20569Y85048D01*
X20580Y85059D01*
X20590Y85072D01*
X20597Y85086D01*
X20602Y85101D01*
X20604Y85117D01*
X20604Y85132D01*
X20602Y85148D01*
X20597Y85163D01*
X20590Y85177D01*
X20581Y85190D01*
X20569Y85201D01*
X20557Y85210D01*
X20481Y85253D01*
X20401Y85288D01*
X20318Y85315D01*
X20233Y85335D01*
X20147Y85347D01*
X20060Y85351D01*
Y86200D01*
G37*
G36*
X19272D02*X20060D01*
Y85351D01*
X20060Y85351D01*
X19973Y85347D01*
X19886Y85335D01*
X19801Y85315D01*
X19719Y85288D01*
X19639Y85253D01*
X19563Y85211D01*
X19550Y85201D01*
X19538Y85190D01*
X19529Y85177D01*
X19522Y85163D01*
X19517Y85148D01*
X19515Y85132D01*
X19515Y85117D01*
X19517Y85101D01*
X19522Y85086D01*
X19529Y85072D01*
X19539Y85059D01*
X19550Y85048D01*
X19563Y85038D01*
X19577Y85031D01*
X19592Y85026D01*
X19607Y85024D01*
X19623Y85024D01*
X19639Y85026D01*
X19654Y85031D01*
X19668Y85039D01*
X19728Y85073D01*
X19791Y85100D01*
X19856Y85122D01*
X19923Y85137D01*
X19991Y85147D01*
X20060Y85150D01*
X20060Y85150D01*
Y83650D01*
X20060Y83650D01*
X19991Y83653D01*
X19923Y83663D01*
X19856Y83678D01*
X19791Y83700D01*
X19728Y83727D01*
X19668Y83761D01*
X19654Y83768D01*
X19639Y83773D01*
X19623Y83775D01*
X19608Y83775D01*
X19592Y83773D01*
X19577Y83768D01*
X19563Y83761D01*
X19550Y83752D01*
X19539Y83741D01*
X19530Y83728D01*
X19523Y83714D01*
X19518Y83699D01*
X19515Y83683D01*
X19515Y83668D01*
X19518Y83652D01*
X19523Y83637D01*
X19530Y83623D01*
X19539Y83610D01*
X19550Y83599D01*
X19563Y83590D01*
X19639Y83547D01*
X19719Y83512D01*
X19801Y83485D01*
X19886Y83465D01*
X19973Y83453D01*
X20060Y83449D01*
X20060Y83449D01*
Y82900D01*
X19272D01*
Y83877D01*
X19282Y83869D01*
X19297Y83862D01*
X19312Y83857D01*
X19327Y83855D01*
X19343Y83855D01*
X19359Y83857D01*
X19374Y83862D01*
X19388Y83869D01*
X19401Y83879D01*
X19412Y83890D01*
X19421Y83903D01*
X19429Y83917D01*
X19434Y83932D01*
X19436Y83948D01*
X19436Y83964D01*
X19433Y83979D01*
X19429Y83994D01*
X19421Y84008D01*
X19387Y84068D01*
X19360Y84131D01*
X19338Y84196D01*
X19322Y84263D01*
X19313Y84331D01*
X19310Y84400D01*
X19313Y84469D01*
X19322Y84537D01*
X19338Y84604D01*
X19360Y84669D01*
X19387Y84732D01*
X19420Y84792D01*
X19428Y84806D01*
X19433Y84821D01*
X19435Y84837D01*
X19435Y84852D01*
X19433Y84868D01*
X19428Y84883D01*
X19421Y84897D01*
X19412Y84910D01*
X19400Y84921D01*
X19388Y84930D01*
X19374Y84937D01*
X19359Y84942D01*
X19343Y84944D01*
X19327Y84944D01*
X19312Y84942D01*
X19297Y84937D01*
X19283Y84930D01*
X19272Y84922D01*
Y86200D01*
G37*
G36*
X14300D02*X19272D01*
Y84922D01*
X19270Y84921D01*
X19259Y84910D01*
X19250Y84897D01*
X19207Y84821D01*
X19172Y84741D01*
X19145Y84658D01*
X19125Y84573D01*
X19113Y84487D01*
X19109Y84400D01*
X19113Y84313D01*
X19125Y84227D01*
X19145Y84142D01*
X19172Y84059D01*
X19207Y83979D01*
X19249Y83903D01*
X19258Y83890D01*
X19270Y83879D01*
X19272Y83877D01*
Y82900D01*
X14300D01*
Y86200D01*
G37*
G36*
X36233Y62800D02*X41600D01*
Y58100D01*
X36233D01*
Y60964D01*
X36266Y60971D01*
X36297Y60983D01*
X36326Y60999D01*
X36352Y61020D01*
X36375Y61045D01*
X36393Y61073D01*
X36406Y61104D01*
X36441Y61214D01*
X36463Y61327D01*
X36475Y61442D01*
Y61558D01*
X36463Y61673D01*
X36441Y61786D01*
X36407Y61897D01*
X36394Y61927D01*
X36375Y61956D01*
X36353Y61980D01*
X36327Y62001D01*
X36297Y62018D01*
X36266Y62030D01*
X36233Y62037D01*
Y62800D01*
G37*
G36*
X35300D02*X36233D01*
Y62037D01*
X36233Y62037D01*
X36200Y62039D01*
X36166Y62035D01*
X36134Y62026D01*
X36103Y62012D01*
X36075Y61994D01*
X36050Y61971D01*
X36029Y61945D01*
X36012Y61916D01*
X36001Y61885D01*
X35994Y61852D01*
X35992Y61818D01*
X35996Y61785D01*
X36005Y61753D01*
X36027Y61683D01*
X36042Y61610D01*
X36049Y61537D01*
Y61463D01*
X36042Y61390D01*
X36027Y61318D01*
X36006Y61247D01*
X35997Y61215D01*
X35993Y61182D01*
X35995Y61149D01*
X36001Y61116D01*
X36013Y61085D01*
X36030Y61055D01*
X36051Y61029D01*
X36076Y61007D01*
X36104Y60989D01*
X36134Y60975D01*
X36166Y60966D01*
X36200Y60963D01*
X36233Y60964D01*
X36233Y60964D01*
Y58100D01*
X35300D01*
Y60325D01*
X35358D01*
X35473Y60336D01*
X35586Y60359D01*
X35696Y60393D01*
X35727Y60406D01*
X35755Y60425D01*
X35780Y60447D01*
X35801Y60473D01*
X35818Y60503D01*
X35830Y60534D01*
X35837Y60567D01*
X35838Y60600D01*
X35835Y60634D01*
X35826Y60666D01*
X35812Y60697D01*
X35794Y60725D01*
X35771Y60750D01*
X35745Y60771D01*
X35716Y60787D01*
X35684Y60799D01*
X35652Y60806D01*
X35618Y60808D01*
X35585Y60804D01*
X35552Y60795D01*
X35482Y60773D01*
X35410Y60758D01*
X35337Y60751D01*
X35300D01*
Y62249D01*
X35337D01*
X35410Y62242D01*
X35482Y62228D01*
X35553Y62206D01*
X35585Y62197D01*
X35618Y62193D01*
X35651Y62195D01*
X35684Y62202D01*
X35715Y62214D01*
X35744Y62230D01*
X35770Y62251D01*
X35793Y62276D01*
X35811Y62304D01*
X35825Y62334D01*
X35834Y62367D01*
X35837Y62400D01*
X35836Y62433D01*
X35829Y62466D01*
X35817Y62497D01*
X35800Y62526D01*
X35779Y62552D01*
X35755Y62575D01*
X35727Y62593D01*
X35696Y62606D01*
X35586Y62641D01*
X35473Y62664D01*
X35358Y62675D01*
X35300D01*
Y62800D01*
G37*
G36*
X34366D02*X35300D01*
Y62675D01*
X35242D01*
X35127Y62664D01*
X35014Y62641D01*
X34903Y62608D01*
X34872Y62594D01*
X34844Y62576D01*
X34819Y62553D01*
X34798Y62527D01*
X34782Y62498D01*
X34770Y62466D01*
X34763Y62433D01*
X34761Y62400D01*
X34765Y62366D01*
X34774Y62334D01*
X34788Y62303D01*
X34806Y62275D01*
X34828Y62250D01*
X34855Y62229D01*
X34884Y62213D01*
X34915Y62201D01*
X34948Y62194D01*
X34982Y62192D01*
X35015Y62196D01*
X35047Y62205D01*
X35117Y62228D01*
X35190Y62242D01*
X35263Y62249D01*
X35300D01*
Y60751D01*
X35263D01*
X35190Y60758D01*
X35117Y60773D01*
X35047Y60794D01*
X35015Y60803D01*
X34982Y60807D01*
X34948Y60805D01*
X34915Y60799D01*
X34884Y60787D01*
X34855Y60770D01*
X34829Y60749D01*
X34807Y60724D01*
X34788Y60696D01*
X34775Y60666D01*
X34766Y60634D01*
X34762Y60600D01*
X34764Y60567D01*
X34771Y60534D01*
X34783Y60503D01*
X34799Y60474D01*
X34820Y60448D01*
X34845Y60425D01*
X34873Y60407D01*
X34904Y60394D01*
X35014Y60359D01*
X35127Y60336D01*
X35242Y60325D01*
X35300D01*
Y58100D01*
X34366D01*
Y60963D01*
X34366Y60963D01*
X34400Y60962D01*
X34433Y60965D01*
X34466Y60974D01*
X34496Y60988D01*
X34525Y61006D01*
X34549Y61029D01*
X34570Y61055D01*
X34587Y61084D01*
X34599Y61116D01*
X34606Y61148D01*
X34608Y61182D01*
X34604Y61215D01*
X34595Y61248D01*
X34572Y61318D01*
X34558Y61390D01*
X34551Y61463D01*
Y61537D01*
X34558Y61610D01*
X34572Y61683D01*
X34594Y61753D01*
X34603Y61785D01*
X34607Y61818D01*
X34605Y61852D01*
X34598Y61884D01*
X34586Y61916D01*
X34570Y61945D01*
X34549Y61971D01*
X34524Y61993D01*
X34496Y62012D01*
X34466Y62025D01*
X34433Y62034D01*
X34400Y62038D01*
X34367Y62036D01*
X34366Y62036D01*
Y62800D01*
G37*
G36*
X32758D02*X34366D01*
Y62036D01*
X34334Y62029D01*
X34303Y62017D01*
X34274Y62001D01*
X34248Y61980D01*
X34225Y61955D01*
X34207Y61927D01*
X34194Y61896D01*
X34159Y61786D01*
X34136Y61673D01*
X34125Y61558D01*
Y61442D01*
X34136Y61327D01*
X34159Y61214D01*
X34192Y61103D01*
X34206Y61073D01*
X34224Y61045D01*
X34247Y61020D01*
X34273Y60999D01*
X34302Y60982D01*
X34334Y60970D01*
X34366Y60963D01*
Y58100D01*
X32758D01*
Y60472D01*
X32760Y60472D01*
X32921Y60485D01*
X33078Y60522D01*
X33227Y60584D01*
X33364Y60668D01*
X33487Y60773D01*
X33592Y60896D01*
X33676Y61033D01*
X33738Y61182D01*
X33775Y61339D01*
X33785Y61500D01*
X33775Y61661D01*
X33738Y61818D01*
X33676Y61967D01*
X33592Y62104D01*
X33487Y62227D01*
X33364Y62332D01*
X33227Y62416D01*
X33078Y62478D01*
X32921Y62516D01*
X32760Y62528D01*
X32758Y62528D01*
Y62800D01*
G37*
G36*
X27678D02*X30869D01*
X30563Y62494D01*
X30545Y62502D01*
X30385Y62540D01*
X30220Y62553D01*
X30055Y62540D01*
X29894Y62502D01*
X29742Y62438D01*
X29601Y62352D01*
X29475Y62245D01*
X29368Y62119D01*
X29281Y61978D01*
X29218Y61826D01*
X29180Y61665D01*
X29167Y61500D01*
X29180Y61335D01*
X29218Y61175D01*
X29281Y61022D01*
X29368Y60881D01*
X29475Y60755D01*
X29601Y60648D01*
X29742Y60562D01*
X29894Y60499D01*
X30055Y60460D01*
X30220Y60447D01*
X30385Y60460D01*
X30545Y60499D01*
X30698Y60562D01*
X30839Y60648D01*
X30964Y60755D01*
X31072Y60881D01*
X31158Y61022D01*
X31221Y61175D01*
X31260Y61335D01*
X31270Y61500D01*
X31260Y61665D01*
X31221Y61826D01*
X31214Y61844D01*
X32170Y62800D01*
X32758D01*
Y62528D01*
X32599Y62516D01*
X32442Y62478D01*
X32293Y62416D01*
X32155Y62332D01*
X32033Y62227D01*
X31928Y62104D01*
X31844Y61967D01*
X31782Y61818D01*
X31744Y61661D01*
X31732Y61500D01*
X31744Y61339D01*
X31782Y61182D01*
X31844Y61033D01*
X31928Y60896D01*
X32033Y60773D01*
X32155Y60668D01*
X32293Y60584D01*
X32442Y60522D01*
X32599Y60485D01*
X32758Y60472D01*
Y58100D01*
X27678D01*
Y60497D01*
X27680Y60497D01*
X27837Y60509D01*
X27990Y60546D01*
X28135Y60606D01*
X28269Y60689D01*
X28389Y60791D01*
X28491Y60911D01*
X28574Y61045D01*
X28634Y61190D01*
X28671Y61343D01*
X28680Y61500D01*
X28671Y61657D01*
X28634Y61810D01*
X28574Y61956D01*
X28491Y62090D01*
X28389Y62209D01*
X28269Y62312D01*
X28135Y62394D01*
X27990Y62454D01*
X27837Y62491D01*
X27680Y62503D01*
X27678Y62503D01*
Y62800D01*
G37*
G36*
X25138D02*X27678D01*
Y62503D01*
X27523Y62491D01*
X27370Y62454D01*
X27224Y62394D01*
X27090Y62312D01*
X26971Y62209D01*
X26868Y62090D01*
X26786Y61956D01*
X26726Y61810D01*
X26689Y61657D01*
X26677Y61500D01*
X26689Y61343D01*
X26726Y61190D01*
X26786Y61045D01*
X26868Y60911D01*
X26971Y60791D01*
X27090Y60689D01*
X27224Y60606D01*
X27370Y60546D01*
X27523Y60509D01*
X27678Y60497D01*
Y58100D01*
X25138D01*
Y60497D01*
X25140Y60497D01*
X25297Y60509D01*
X25450Y60546D01*
X25595Y60606D01*
X25729Y60689D01*
X25849Y60791D01*
X25951Y60911D01*
X26034Y61045D01*
X26094Y61190D01*
X26131Y61343D01*
X26140Y61500D01*
X26131Y61657D01*
X26094Y61810D01*
X26034Y61956D01*
X25951Y62090D01*
X25849Y62209D01*
X25729Y62312D01*
X25595Y62394D01*
X25450Y62454D01*
X25297Y62491D01*
X25140Y62503D01*
X25138Y62503D01*
Y62800D01*
G37*
G36*
X22598D02*X25138D01*
Y62503D01*
X24983Y62491D01*
X24830Y62454D01*
X24684Y62394D01*
X24550Y62312D01*
X24431Y62209D01*
X24328Y62090D01*
X24246Y61956D01*
X24186Y61810D01*
X24149Y61657D01*
X24137Y61500D01*
X24149Y61343D01*
X24186Y61190D01*
X24246Y61045D01*
X24328Y60911D01*
X24431Y60791D01*
X24550Y60689D01*
X24684Y60606D01*
X24830Y60546D01*
X24983Y60509D01*
X25138Y60497D01*
Y58100D01*
X22598D01*
Y60497D01*
X22600Y60497D01*
X22757Y60509D01*
X22910Y60546D01*
X23055Y60606D01*
X23189Y60689D01*
X23309Y60791D01*
X23411Y60911D01*
X23494Y61045D01*
X23554Y61190D01*
X23591Y61343D01*
X23600Y61500D01*
X23591Y61657D01*
X23554Y61810D01*
X23494Y61956D01*
X23411Y62090D01*
X23309Y62209D01*
X23189Y62312D01*
X23055Y62394D01*
X22910Y62454D01*
X22757Y62491D01*
X22600Y62503D01*
X22598Y62503D01*
Y62800D01*
G37*
G36*
X20058D02*X22598D01*
Y62503D01*
X22443Y62491D01*
X22290Y62454D01*
X22144Y62394D01*
X22010Y62312D01*
X21891Y62209D01*
X21788Y62090D01*
X21706Y61956D01*
X21646Y61810D01*
X21609Y61657D01*
X21597Y61500D01*
X21609Y61343D01*
X21646Y61190D01*
X21706Y61045D01*
X21788Y60911D01*
X21891Y60791D01*
X22010Y60689D01*
X22144Y60606D01*
X22290Y60546D01*
X22443Y60509D01*
X22598Y60497D01*
Y58100D01*
X20058D01*
Y60497D01*
X20060Y60497D01*
X20217Y60509D01*
X20370Y60546D01*
X20515Y60606D01*
X20649Y60689D01*
X20769Y60791D01*
X20871Y60911D01*
X20954Y61045D01*
X21014Y61190D01*
X21051Y61343D01*
X21060Y61500D01*
X21051Y61657D01*
X21014Y61810D01*
X20954Y61956D01*
X20871Y62090D01*
X20769Y62209D01*
X20649Y62312D01*
X20515Y62394D01*
X20370Y62454D01*
X20217Y62491D01*
X20060Y62503D01*
X20058Y62503D01*
Y62800D01*
G37*
G36*
X13800D02*X20058D01*
Y62503D01*
X19903Y62491D01*
X19750Y62454D01*
X19604Y62394D01*
X19470Y62312D01*
X19351Y62209D01*
X19248Y62090D01*
X19166Y61956D01*
X19106Y61810D01*
X19069Y61657D01*
X19057Y61500D01*
X19069Y61343D01*
X19106Y61190D01*
X19166Y61045D01*
X19248Y60911D01*
X19351Y60791D01*
X19470Y60689D01*
X19604Y60606D01*
X19750Y60546D01*
X19903Y60509D01*
X20058Y60497D01*
Y58100D01*
X13800D01*
Y62800D01*
G37*
G54D69*X84900Y3100D02*X96400D01*
Y14600D01*
G54D70*X94900D02*X96400D01*
G54D69*X94900D02*Y84100D01*
X96400D01*
Y95600D01*
X84900D01*
Y94100D01*
G54D72*X80200Y80700D02*X80500D01*
G54D70*X83600Y80800D02*X84100D01*
G54D72*X81300Y79900D02*X80500Y80700D01*
G54D70*X82300Y80300D02*Y78200D01*
X82200Y78100D02*X82300Y78200D01*
X83000Y80200D02*X83600Y80800D01*
G54D72*X81300Y79900D02*Y75900D01*
G54D73*X76600Y74000D02*X80100D01*
G54D72*X82300Y74900D02*X81300Y75900D01*
G54D74*X82300Y77000D02*X83000Y77700D01*
G54D70*Y80200D02*Y77700D01*
X75500Y79700D02*X74200Y81000D01*
X75500Y79700D02*Y78200D01*
G54D75*X71800Y82600D02*Y79400D01*
G54D73*X75600Y73000D02*X76600Y74000D01*
G54D69*X84900Y94100D02*X15400D01*
Y95600D01*
G54D75*X32760Y84400D02*Y88420D01*
X32840Y88500D01*
X35300Y84400D02*Y88420D01*
X35380Y88500D01*
G54D70*X35310Y84410D02*X35300Y84400D01*
X34060Y83100D02*X32760Y84400D01*
X36600Y83100D02*X34060D01*
X75700Y71500D02*Y69300D01*
G54D73*X75600Y73000D02*X74400Y71800D01*
Y68700D01*
G54D74*X68511Y53547D02*Y49547D01*
G54D70*X64050Y52450D02*X65600D01*
X67900Y54750D01*
G54D76*X75700Y49350D02*Y54300D01*
X73000Y57000D01*
G54D74*X67861Y48897D02*X68511Y49547D01*
X70012Y50097D02*Y50947D01*
X67861Y48897D02*X67362D01*
X67861Y47947D02*X70012Y50097D01*
X67312Y47947D02*X67861D01*
X66612Y47647D02*Y48797D01*
X64811Y50597D01*
G54D70*X67458Y46800D02*X69600D01*
X69951Y46449D01*
X70014D01*
X83200Y47700D02*X82000Y46500D01*
X79150D01*
G54D76*X81100Y47250D02*X79450D01*
X79200Y47000D01*
X77900D01*
G54D70*X83700Y47600D02*X82150Y46050D01*
X84150Y50850D02*Y47450D01*
X82300Y45600D01*
X84600Y51000D02*Y47300D01*
X82450Y45150D01*
G54D76*X82300Y49600D02*X82250Y49650D01*
G54D70*X82150Y46050D02*X79350D01*
X82300Y45600D02*X79500D01*
X79350Y46050D02*X77600Y44300D01*
X79500Y45600D02*X78050Y44150D01*
G54D76*X77900Y47000D02*X76300Y45400D01*
X75600D01*
X74300Y46500D02*Y44300D01*
X74304Y45409D02*X73100D01*
G54D70*X77250Y50550D02*X78250D01*
X80150Y52450D01*
X82550D01*
X84150Y50850D01*
X82700Y52900D02*X84600Y51000D01*
G54D76*X82250Y49650D02*X81100D01*
G54D74*X66612Y47647D02*X67011Y47247D01*
X70011Y46447D02*X70012D01*
G54D70*X65611Y47288D02*X66600Y46300D01*
X67250Y46000D02*X68650D01*
X68800Y45850D01*
G54D74*X64811Y48947D02*X65111D01*
G54D70*X61200Y49500D02*Y48400D01*
X62610Y48750D02*Y47640D01*
X63500Y48600D02*Y47450D01*
X61860Y49150D02*X62110Y49400D01*
G54D74*X65111Y48947D02*X65611Y48447D01*
Y47447D01*
G54D70*X61200Y48400D02*X65500Y44100D01*
X65611Y47462D02*Y47288D01*
X66700Y45450D02*X67250Y46000D01*
X66900Y45050D02*X67450Y45600D01*
G54D76*X77250Y49350D02*X75700D01*
D03*
X74400D02*X73400D01*
X74400D02*Y50450D01*
Y49350D02*Y48200D01*
X77250Y48750D02*X77250Y48750D01*
X79000Y47550D02*X77250D01*
X77250Y47550D01*
X76400Y46950D02*X76650D01*
X77250Y47550D02*X76650Y46950D01*
X76400Y47850D02*X76700Y48150D01*
X77250D01*
X78950Y48450D02*X78650Y48150D01*
X77250D01*
X77250Y48150D01*
X78450Y48750D02*X77250D01*
G54D70*X77250Y49950D02*X78250D01*
X77250Y51150D02*X78250D01*
G54D76*X79300Y47850D02*X79000Y47550D01*
G54D70*X82450Y45150D02*X79750D01*
X78500Y43900D01*
X79150Y46500D02*X77150Y44500D01*
G54D76*X81100Y47850D02*X79300D01*
X81100Y48450D02*X78950D01*
X81100Y49050D02*X78750D01*
X78450Y48750D01*
G54D70*X81100Y50250D02*X82850D01*
X83200Y49900D01*
Y47700D01*
X83700Y50700D02*Y47600D01*
X78250Y49950D02*X80300Y52000D01*
X78250Y51150D02*X80000Y52900D01*
X80300Y52000D02*X82400D01*
X80000Y52900D02*X82700D01*
X82400Y52000D02*X83700Y50700D01*
G54D74*X62911Y52647D02*X55296D01*
X61011Y53247D02*X53356D01*
X62911Y54347D02*X62111D01*
X61011Y53247D01*
X60311Y49347D02*X62511Y51547D01*
X64411D01*
G54D70*X62830Y50920D02*X62620D01*
X61200Y49500D01*
G54D74*X55390Y47378D02*X57358Y49347D01*
X60311D02*X57358D01*
G54D70*X68650Y45000D02*Y44900D01*
X70000Y42400D02*X70800Y41600D01*
X68750Y41800D02*Y41950D01*
X68450Y43050D02*X70350Y41150D01*
X70800Y41600D02*X76150D01*
X70350Y41150D02*X76300D01*
X76450Y40700D02*X68950D01*
X68400Y40250D02*X76650D01*
X68950Y40700D02*X67850Y41800D01*
X67100Y41550D02*X68400Y40250D01*
X68750Y41950D02*X68150Y42550D01*
X67650D01*
X66500Y42450D02*X66850D01*
X67450Y43050D02*X68450D01*
X67650Y42550D02*X67100Y42000D01*
Y41550D01*
X66850Y42450D02*X67450Y43050D01*
X78050Y44150D02*Y42300D01*
X76450Y40700D01*
X78500Y43900D02*Y42100D01*
X76650Y40250D01*
X77150Y44500D02*Y42600D01*
X76150Y41600D02*X77150Y42600D01*
X77600Y44300D02*Y42450D01*
X76300Y41150D01*
G54D75*X30800Y20700D02*X31900Y21800D01*
X34100D01*
G54D77*X32800Y31900D02*X33500Y31200D01*
X37900D01*
X38200Y30900D01*
X41500D01*
X41800Y31200D01*
X43000D01*
G54D78*X35300Y62060D02*Y61500D01*
G54D75*X38600Y64900D02*X33620D01*
X30220Y61500D01*
G54D79*X47100Y52200D02*X49500Y54600D01*
G54D70*X44500Y53000D02*X40700Y49200D01*
X42100Y49600D02*X48200Y55700D01*
X62110Y49400D02*X63800D01*
X64150Y49050D01*
Y47400D01*
X60314Y49350D02*Y48635D01*
X62750Y46200D01*
X64150Y47400D02*X66100Y45450D01*
X63500Y47450D02*X65900Y45050D01*
X62610Y47640D02*X65650Y44600D01*
X62750Y46200D02*Y45300D01*
X65500Y44100D02*X65700Y43900D01*
X66650D01*
X66100Y45450D02*X66700D01*
X65900Y45050D02*X66900D01*
X67450Y45600D02*X68050D01*
X68650Y45000D01*
X67004Y47254D02*X67458Y46800D01*
X67750Y44900D02*X67450Y44600D01*
X65650D01*
X47200Y47500D02*X47100Y47600D01*
G54D76*X46500Y45500D02*X47800D01*
X49110Y46810D01*
X52000D01*
G54D70*X48510Y48400D02*X52000Y51890D01*
X48600Y47600D02*X50350Y49350D01*
X52000D01*
X47700Y46800D02*X46900D01*
X46300Y47400D01*
Y47800D01*
X46900Y48400D01*
X48510D01*
X47100Y47600D02*X48600D01*
X39100Y43700D02*X39600Y43200D01*
X41500D01*
X39600Y44700D02*X40600Y43700D01*
X41600D01*
X41500Y43200D02*X43840Y40860D01*
Y40293D01*
X41600Y43700D02*X43135Y42165D01*
X44735D01*
X40800Y23600D02*Y25700D01*
X23300Y26300D02*X26900Y29900D01*
X38400Y28900D02*X34200D01*
X25000Y26300D02*X27800Y29100D01*
X23500Y25800D02*X27200Y29500D01*
X19000Y25800D02*X23500D01*
X17400D02*X18100Y26500D01*
X19400D01*
X19600Y26300D01*
X23300D01*
X36200Y32200D02*X38600D01*
X34900Y32800D02*X35600D01*
X26900Y29900D02*X28300D01*
X28900Y30500D01*
X3900Y95600D02*X3900Y95600D01*
G54D69*Y84100D01*
X5400D01*
Y14600D02*X3900D01*
Y3100D01*
X5400Y84100D02*Y14600D01*
X15400Y95600D02*X3900D01*
G54D80*X19800Y40700D02*Y42600D01*
Y34700D02*Y36600D01*
G54D81*X14600Y40900D02*X12000Y38300D01*
G54D77*X11900Y48800D02*X13900D01*
Y48600D01*
X16200Y46300D01*
G54D79*X13900Y48800D02*X14000D01*
X17100Y51900D01*
G54D81*X12000Y38300D02*X11900D01*
G54D69*X3900Y3100D02*X15400D01*
G54D77*X16200Y46300D02*Y37600D01*
Y34300D02*Y37700D01*
X16200Y34300D02*X16200Y31700D01*
G54D70*X35600Y32800D02*X36200Y32200D01*
X40300Y42400D02*X40700Y42000D01*
Y40000D01*
X41700D02*X41200Y40500D01*
Y42500D01*
G54D82*X19400Y28800D02*X19400Y30700D01*
G54D70*X27800Y29100D02*X29700D01*
X30300Y29700D01*
X27200Y29500D02*X29300D01*
X29700Y29900D01*
Y30400D01*
X29800Y30500D01*
G54D79*X48800Y34700D02*Y34900D01*
X49900Y36000D01*
G54D70*X51000Y30200D02*X51400Y29800D01*
X54000D01*
G54D79*X49900Y36000D02*X53800D01*
X56200Y33600D01*
Y33100D01*
G54D74*X55296Y52647D02*X52000Y49350D01*
X53356Y53247D02*X52000Y51890D01*
X54712Y47347D02*X55358D01*
X55435Y47424D01*
G54D69*X15400Y3100D02*Y4600D01*
X84900D01*
Y3100D01*
G54D70*X79250Y20450D02*X79200Y20500D01*
G54D75*X44000Y21100D02*X44700D01*
X47400Y18400D01*
G54D70*X60400Y28500D02*X61700Y29800D01*
X58700Y29600D02*X59100D01*
X60400Y28300D01*
G54D78*X57700Y22500D02*X62800D01*
X57700D02*X57200Y23000D01*
G54D70*X61700Y29800D02*X64500D01*
X65200Y29100D01*
G54D78*X63600Y28500D02*X63900Y28200D01*
G54D70*X56200Y31800D02*X57500D01*
X59000Y30300D01*
X55700Y31100D02*X57200D01*
X58700Y29600D01*
X59000Y30300D02*X65100D01*
X66000Y29400D01*
Y28400D01*
X65900Y28300D01*
G54D78*X63900Y28200D02*Y23600D01*
X62800Y22500D01*
G54D70*X51900Y31700D02*X52000Y31800D01*
X56200D01*
X51700Y30700D02*X52100Y31100D01*
X55700D01*
X78300Y17200D02*Y20200D01*
X79250Y19150D02*Y20450D01*
G54D71*G36*
X87725Y32875D02*Y31525D01*
X89075D01*
Y32875D01*
X87725D01*
G37*
G54D83*X86400Y32200D03*
X88400Y30200D03*
X86400D03*
G54D71*G36*
X87725Y23375D02*Y22025D01*
X89075D01*
Y23375D01*
X87725D01*
G37*
G54D83*X86400Y22700D03*
X88400Y20700D03*
X86400D03*
X74800Y85600D03*
G54D71*G36*
X74125Y88275D02*Y86925D01*
X75475D01*
Y88275D01*
X74125D01*
G37*
G54D83*X76800Y85600D03*
Y87600D03*
X78800Y85600D03*
Y87600D03*
X80800Y85600D03*
Y87600D03*
X82800Y85600D03*
Y87600D03*
G54D71*G36*
X24638Y43762D02*Y42238D01*
X26162D01*
Y43762D01*
X24638D01*
G37*
G54D84*X27940Y43000D03*
G54D71*G36*
X26278Y48562D02*Y47038D01*
X27802D01*
Y48562D01*
X26278D01*
G37*
G54D84*X33020Y43000D03*
X30480D03*
X29580Y47800D03*
X32120D03*
X34660D03*
X37200D03*
G54D78*X17700Y29800D03*
Y30600D03*
Y35800D03*
Y36600D03*
Y41800D03*
Y42600D03*
G54D71*G36*
X11225Y34975D02*Y33625D01*
X12575D01*
Y34975D01*
X11225D01*
G37*
G54D83*X13900Y34300D03*
X11900Y36300D03*
X13900D03*
X11900Y38300D03*
X13900D03*
G54D71*G36*
X13225Y53475D02*Y52125D01*
X14575D01*
Y53475D01*
X13225D01*
G37*
G54D83*X11900Y52800D03*
X13900Y50800D03*
X11900D03*
X13900Y48800D03*
X11900D03*
G54D71*G36*
X34550Y85150D02*Y83650D01*
X36050D01*
Y85150D01*
X34550D01*
G37*
G36*
X37158Y89262D02*Y87738D01*
X38682D01*
Y89262D01*
X37158D01*
G37*
G54D84*X35380Y88500D03*
G54D85*X32760Y84400D03*
G54D84*X32840Y88500D03*
G54D85*X30220Y84400D03*
G54D84*X30300Y88500D03*
X27760D03*
G54D85*X27680Y84400D03*
X25140D03*
X22600D03*
X20060D03*
Y61500D03*
X22600D03*
X25140D03*
X27680D03*
X30220D03*
X32760D03*
X35300D03*
G54D71*G36*
X60658Y59912D02*Y58388D01*
X62182D01*
Y59912D01*
X60658D01*
G37*
G36*
X51238Y55192D02*Y53668D01*
X52762D01*
Y55192D01*
X51238D01*
G37*
G54D84*X52000Y51890D03*
Y49350D03*
Y46810D03*
Y44270D03*
X63960Y59150D03*
X66500D03*
X69040D03*
G54D86*X74400Y49475D02*Y49225D01*
X75700Y45525D02*Y45275D01*
X74400Y45525D02*Y45275D01*
G54D87*X80625Y47250D02*X81575D01*
X80625Y47850D02*X81575D01*
X80625Y48450D02*X81575D01*
X80625Y49050D02*X81575D01*
X80625Y49650D02*X81575D01*
X80625Y50250D02*X81575D01*
X80625Y50850D02*X81575D01*
X80625Y51450D02*X81575D01*
G54D86*X75700Y49475D02*Y49225D01*
G54D87*X77075Y47550D02*X77425D01*
X77075Y48150D02*X77425D01*
X77075Y48750D02*X77425D01*
X77075Y49350D02*X77425D01*
X77075Y49950D02*X77425D01*
X77075Y50550D02*X77425D01*
X77075Y51150D02*X77425D01*
G54D88*X8650Y90850D03*
G54D89*X36600Y83100D03*
X35600Y16300D03*
X41300Y18300D03*
X44300D03*
X44000Y21100D03*
X47400Y18400D03*
X43300Y23600D03*
X33100Y23200D03*
X59000Y30300D03*
X58100Y30200D03*
X60400Y28300D03*
X65400Y23600D03*
X63900D03*
X57200Y23000D03*
X62000Y22500D03*
X34100Y21800D03*
X47500Y46800D03*
X62750Y45300D03*
X60800Y44500D03*
X46500Y45500D03*
X17700Y37900D03*
X20400Y39000D03*
X19800Y34700D03*
Y36600D03*
X17700Y40600D03*
Y43900D03*
X19800Y40700D03*
Y42600D03*
X20400Y45000D03*
X14600Y40900D03*
X16200Y40300D03*
Y43700D03*
Y46300D03*
Y37700D03*
X37100Y26600D03*
X37200Y25400D03*
X34200Y28900D03*
X33500Y31200D03*
X32800Y31900D03*
X25000Y26300D03*
X17700Y28800D03*
X19400D03*
Y30700D03*
X17700Y31900D03*
Y34600D03*
X20400Y33000D03*
X16200Y34300D03*
Y31700D03*
X30300Y29700D03*
X29800Y30500D03*
X28900D03*
X30800Y20700D03*
X18500Y23300D03*
X21000Y28600D03*
X19000Y25800D03*
X17400D03*
G54D90*X6100Y12020D03*
G54D91*X8650Y7850D03*
G54D89*X51400Y34700D03*
Y33200D03*
X48678Y24409D03*
X37700Y38100D03*
X43840Y40293D03*
X44735Y42165D03*
X39100Y43700D03*
X39600Y44700D03*
X34900Y32800D03*
X51900Y31700D03*
X51700Y30700D03*
X40850Y23650D03*
X40700Y25800D03*
X38400Y28900D03*
X38600Y32200D03*
X42000Y31200D03*
X43000D03*
G54D92*X91650Y90850D03*
G54D90*X94200Y86680D03*
G54D89*X75500Y78200D03*
X76800Y72100D03*
X75600Y73000D03*
X75700Y69300D03*
Y71500D03*
X74400Y68700D03*
X82300Y80300D03*
X71800Y79400D03*
X82200Y78100D03*
X82300Y77000D03*
X80300Y72900D03*
X80100Y74000D03*
X82300Y74900D03*
X80200Y80700D03*
X76434Y83642D03*
X76900Y80600D03*
X74200Y81000D03*
X84100Y80800D03*
X71800Y82600D03*
X65900Y28300D03*
X63600Y28500D03*
X65300Y29000D03*
X70500Y25400D03*
G54D88*X91650Y7850D03*
G54D89*X78300Y17200D03*
G54D90*X94200Y12020D03*
G54D89*X79200Y19100D03*
Y20500D03*
X78300Y20200D03*
X56200Y33100D03*
X51000Y30200D03*
X54000Y29800D03*
X38600Y64900D03*
X42000Y46400D03*
X49500Y54600D03*
X44500Y53000D03*
X42100Y49600D03*
X48200Y55700D03*
X47100Y47600D03*
X42000Y47800D03*
X17100Y51900D03*
X47100Y52200D03*
X40700Y49200D03*
X38300Y40900D03*
X40300Y42400D03*
X40800Y39900D03*
X41200Y42500D03*
X41700Y40000D03*
X48800Y34700D03*
X15800Y25800D03*
G54D93*X68511Y53547D03*
X70012Y50947D03*
G54D89*X68550Y47650D03*
G54D93*X62911Y54347D03*
G54D94*X81112Y55847D03*
G54D89*X67900Y54750D03*
X73000Y57000D03*
G54D93*X75350Y46850D03*
G54D89*X76400Y46950D03*
Y47850D03*
X78300Y49000D03*
X82300Y49600D03*
X63500Y48600D03*
X64050Y52450D03*
G54D94*X81112Y42747D03*
G54D89*X67850Y41800D03*
G54D93*X64811Y50597D03*
X62911Y52647D03*
X64411Y51547D03*
X67362Y48897D03*
X67312Y47947D03*
X64811Y48947D03*
G54D89*X62610Y48750D03*
X62830Y50920D03*
X70000Y42400D03*
X70014Y46449D03*
X68650Y44900D03*
X67750D03*
X66500Y43900D03*
X66600Y46300D03*
X68800Y45850D03*
X68750Y41800D03*
X66500Y42450D03*
G54D93*X57811Y49347D03*
G54D89*X61860Y49150D03*
G54D93*X54712Y47347D03*
G54D94*X55312Y42747D03*
G54D89*X56700Y51200D03*
X58800Y54500D03*
G54D95*G54D96*G54D95*G54D96*G54D95*G54D96*G54D95*G54D96*G54D95*G54D96*G54D97*G54D96*G54D97*G54D98*G54D96*G54D97*G54D96*G54D98*G54D96*G54D97*G54D96*G54D97*G54D96*G54D97*G54D98*G54D96*G54D78*G54D99*G54D97*G54D78*G54D93*G54D99*G54D93*G54D99*G54D93*G54D99*G54D93*G54D99*M02*
