M48
METRIC,000.000
T8C2.000
T7C0.250
T6C3.100
T5C0.700
T4C0.300
T3C0.965
T2C0.800
%
T7
X014600Y040900
X015800Y025800
X016200Y046300
X016200Y043700
X016200Y040300
X016200Y037700
X016200Y034300
X016200Y031700
X017100Y051900
X017400Y025800
X017700Y043900
X017700Y040600
X017700Y037900
X017700Y034600
X017700Y031900
X017700Y028800
X018500Y023300
X019000Y025800
X019400Y030700
X019400Y028800
X019800Y042600
X019800Y040700
X019800Y036600
X019800Y034700
X020400Y045000
X020400Y039000
X020400Y033000
X021000Y028600
X025000Y026300
X028900Y030500
X029800Y030500
X030300Y029700
X030800Y020700
X032800Y031900
X033100Y023200
X033500Y031200
X034100Y021800
X034200Y028900
X034900Y032800
X035600Y016300
X036600Y083100
X037100Y026600
X037200Y025400
X037700Y038100
X038300Y040900
X038400Y028900
X038600Y064900
X038600Y032200
X039100Y043700
X039600Y044700
X040300Y042400
X040700Y049200
X040700Y025800
X040800Y039900
X040850Y023650
X041200Y042500
X041300Y018300
X041700Y040000
X042000Y047800
X042000Y046400
X042000Y031200
X042100Y049600
X043000Y031200
X043300Y023600
X043840Y040293
X044000Y021100
X044300Y018300
X044500Y053000
X044735Y042165
X046500Y045500
X047100Y052200
X047100Y047600
X047400Y018400
X047500Y046800
X048200Y055700
X048678Y024409
X048800Y034700
X049500Y054600
X051000Y030200
X051400Y034700
X051400Y033200
X051700Y030700
X051900Y031700
X054000Y029800
X056200Y033100
X056700Y051200
X057200Y023000
X058100Y030200
X058800Y054500
X059000Y030300
X060400Y028300
X060800Y044500
X061860Y049150
X062000Y022500
X062610Y048750
X062750Y045300
X062830Y050920
X063500Y048600
X063600Y028500
X063900Y023600
X064050Y052450
X065300Y029000
X065400Y023600
X065900Y028300
X066500Y043900
X066500Y042450
X066600Y046300
X067750Y044900
X067850Y041800
X067900Y054750
X068550Y047650
X068650Y044900
X068750Y041800
X068800Y045850
X070000Y042400
X070014Y046449
X070500Y025400
X071800Y082600
X071800Y079400
X073000Y057000
X074200Y081000
X074400Y068700
X075500Y078200
X075600Y073000
X075700Y071500
X075700Y069300
X076400Y047850
X076400Y046950
X076434Y083642
X076800Y072100
X076900Y080600
X078300Y049000
X078300Y020200
X078300Y017200
X079200Y020500
X079200Y019100
X080100Y074000
X080200Y080700
X080300Y072900
X082200Y078100
X082300Y074900
X082300Y049600
X082300Y080300
X082300Y077000
X084100Y080800
T4
X017700Y042600
X017700Y041800
X017700Y036600
X017700Y035800
X017700Y030600
X017700Y029800
X054712Y047347
X057811Y049347
X062911Y054347
X062911Y052647
X064411Y051547
X064811Y050597
X064811Y048947
X067312Y047947
X067362Y048897
X068511Y053547
X070012Y050947
X075350Y046850
T5
X020060Y084400
X020060Y061500
X022600Y084400
X022600Y061500
X025140Y084400
X025140Y061500
X027680Y084400
X027680Y061500
X030220Y084400
X030220Y061500
X032760Y084400
X032760Y061500
X035300Y084400
X035300Y061500
T2
X011900Y052800
X011900Y050800
X011900Y048800
X011900Y038300
X011900Y036300
X011900Y034300
X013900Y052800
X013900Y050800
X013900Y048800
X013900Y038300
X013900Y036300
X013900Y034300
X074800Y087600
X074800Y085600
X076800Y087600
X076800Y085600
X078800Y087600
X078800Y085600
X080800Y087600
X080800Y085600
X082800Y087600
X082800Y085600
X086400Y032200
X086400Y030200
X086400Y022700
X086400Y020700
X088400Y032200
X088400Y030200
X088400Y022700
X088400Y020700
T3
X025400Y043000
X027040Y047800
X027760Y088500
X027940Y043000
X029580Y047800
X030300Y088500
X030480Y043000
X032120Y047800
X032840Y088500
X033020Y043000
X034660Y047800
X035380Y088500
X037200Y047800
X037920Y088500
X052000Y054430
X052000Y051890
X052000Y049350
X052000Y046810
X052000Y044270
X061420Y059150
X063960Y059150
X066500Y059150
X069040Y059150
T8
X055312Y042747
X081112Y055847
X081112Y042747
T6
X006100Y012020
X008650Y007850
X008650Y090850
X091650Y090850
X091650Y007850
X094200Y086680
X094200Y012020
M30
