G04 start of page 7 for group -4062 idx -4062 *
G04 Title: (unknown), soldermask *
G04 Creator: pcb 20140316 *
G04 CreationDate: Δευ 14 Μάρ 2016 08:13:14 μμ GMT UTC *
G04 For: mobintu *
G04 Format: Gerber/RS-274X *
G04 PCB-Dimensions (mm): 100.00 100.00 *
G04 PCB-Coordinate-Origin: lower left *
%MOMM*%
%FSLAX43Y43*%
%LNBOTTOMMASK*%
%ADD147R,0.500X0.500*%
%ADD146R,0.902X0.902*%
%ADD145C,1.653*%
%ADD144C,0.953*%
%ADD143C,1.676*%
%ADD142C,1.502*%
%ADD141C,0.002*%
%ADD140C,0.200*%
%ADD139C,0.200*%
G54D139*X3900Y84100D02*X5400D01*
X15400Y95600D02*Y94100D01*
X84900D01*
X3900Y84100D02*Y95600D01*
X15400D01*
X84900Y94100D02*Y95600D01*
X94900Y84100D02*Y14600D01*
Y84100D02*X96400D01*
G54D140*Y14600D02*X94900D01*
G54D139*X84900Y95600D02*X96400D01*
Y84100D01*
X5400Y14600D02*X3900D01*
X15400Y3100D02*Y4600D01*
X3900Y3100D02*X15400D01*
X3900D02*Y14600D01*
X5400Y84100D02*Y14600D01*
X15400Y4600D02*X84900D01*
Y3100D01*
X96400D01*
Y14600D01*
G54D141*G36*
X87649Y32951D02*Y31449D01*
X89151D01*
Y32951D01*
X87649D01*
G37*
G54D142*X86400Y32200D03*
X88400Y30200D03*
X86400D03*
G54D141*G36*
X87649Y23451D02*Y21949D01*
X89151D01*
Y23451D01*
X87649D01*
G37*
G54D142*X86400Y22700D03*
X88400Y20700D03*
X86400D03*
X74800Y85600D03*
G54D141*G36*
X74049Y88351D02*Y86849D01*
X75551D01*
Y88351D01*
X74049D01*
G37*
G54D142*X76800Y85600D03*
Y87600D03*
X78800Y85600D03*
Y87600D03*
X80800Y85600D03*
Y87600D03*
X82800Y85600D03*
Y87600D03*
G54D141*G36*
X24562Y43838D02*Y42162D01*
X26238D01*
Y43838D01*
X24562D01*
G37*
G54D143*X27940Y43000D03*
G54D141*G36*
X26202Y48638D02*Y46962D01*
X27878D01*
Y48638D01*
X26202D01*
G37*
G54D143*X33020Y43000D03*
X30480D03*
X29580Y47800D03*
X32120D03*
X34660D03*
X37200D03*
G54D144*X17700Y29800D03*
Y30600D03*
Y35800D03*
Y36600D03*
Y41800D03*
Y42600D03*
G54D141*G36*
X11149Y35051D02*Y33549D01*
X12651D01*
Y35051D01*
X11149D01*
G37*
G54D142*X13900Y34300D03*
X11900Y36300D03*
X13900D03*
X11900Y38300D03*
X13900D03*
G54D141*G36*
X13149Y53551D02*Y52049D01*
X14651D01*
Y53551D01*
X13149D01*
G37*
G54D142*X11900Y52800D03*
X13900Y50800D03*
X11900D03*
X13900Y48800D03*
X11900D03*
G54D141*G36*
X34474Y85226D02*Y83574D01*
X36126D01*
Y85226D01*
X34474D01*
G37*
G36*
X37082Y89338D02*Y87662D01*
X38758D01*
Y89338D01*
X37082D01*
G37*
G54D143*X35380Y88500D03*
G54D145*X32760Y84400D03*
G54D143*X32840Y88500D03*
G54D145*X30220Y84400D03*
G54D143*X30300Y88500D03*
X27760D03*
G54D145*X27680Y84400D03*
X25140D03*
X22600D03*
X20060D03*
Y61500D03*
X22600D03*
X25140D03*
X27680D03*
X30220D03*
X32760D03*
X35300D03*
G54D141*G36*
X60582Y59988D02*Y58312D01*
X62258D01*
Y59988D01*
X60582D01*
G37*
G36*
X51162Y55268D02*Y53592D01*
X52838D01*
Y55268D01*
X51162D01*
G37*
G54D143*X52000Y51890D03*
Y49350D03*
Y46810D03*
Y44270D03*
X63960Y59150D03*
X66500D03*
X69040D03*
G54D146*X74400Y49475D02*Y49225D01*
X75700Y45525D02*Y45275D01*
X74400Y45525D02*Y45275D01*
G54D147*X80625Y47250D02*X81575D01*
X80625Y47850D02*X81575D01*
X80625Y48450D02*X81575D01*
X80625Y49050D02*X81575D01*
X80625Y49650D02*X81575D01*
X80625Y50250D02*X81575D01*
X80625Y50850D02*X81575D01*
X80625Y51450D02*X81575D01*
G54D146*X75700Y49475D02*Y49225D01*
G54D147*X77075Y47550D02*X77425D01*
X77075Y48150D02*X77425D01*
X77075Y48750D02*X77425D01*
X77075Y49350D02*X77425D01*
X77075Y49950D02*X77425D01*
X77075Y50550D02*X77425D01*
X77075Y51150D02*X77425D01*
M02*
