G04 start of page 12 for group -3984 idx -3984 *
G04 Title: (unknown), fab *
G04 Creator: pcb 20140316 *
G04 CreationDate: Δευ 14 Μάρ 2016 08:13:14 μμ GMT UTC *
G04 For: mobintu *
G04 Format: Gerber/RS-274X *
G04 PCB-Dimensions (mm): 100.00 100.00 *
G04 PCB-Coordinate-Origin: lower left *
%MOMM*%
%FSLAX43Y43*%
%LNFAB*%
%ADD193C,0.002*%
%ADD192C,0.254*%
%ADD191C,0.191*%
%ADD190C,0.152*%
%ADD189C,0.203*%
%ADD188C,0.200*%
%ADD187C,0.200*%
G54D187*X3900Y84100D02*X5400D01*
X15400Y95600D02*Y94100D01*
X84900D01*
X3900Y84100D02*Y95600D01*
X15400D01*
X84900Y94100D02*Y95600D01*
X94900Y84100D02*Y14600D01*
Y84100D02*X96400D01*
G54D188*Y14600D02*X94900D01*
G54D187*X84900Y95600D02*X96400D01*
Y84100D01*
X5400Y14600D02*X3900D01*
X15400Y3100D02*Y4600D01*
X3900Y3100D02*X15400D01*
X3900D02*Y14600D01*
X5400Y84100D02*Y14600D01*
X15400Y4600D02*X84900D01*
Y3100D01*
X96400D01*
Y14600D01*
G54D189*X8650Y91663D02*Y90037D01*
X7837Y90850D02*X9463D01*
X8244Y91256D02*X9056D01*
X8244D02*Y90444D01*
X9056D01*
Y91256D02*Y90444D01*
X91650Y91663D02*Y90037D01*
X90837Y90850D02*X92463D01*
X91244Y91256D02*X92056D01*
X91244D02*Y90444D01*
X92056D01*
Y91256D02*Y90444D01*
X91650Y8663D02*Y7037D01*
X90837Y7850D02*X92463D01*
X91244Y8256D02*X92056D01*
X91244D02*Y7444D01*
X92056D01*
Y8256D02*Y7444D01*
X6100Y12833D02*Y11207D01*
X5287Y12020D02*X6912D01*
X5693Y12426D02*X6506D01*
X5693D02*Y11614D01*
X6506D01*
Y12426D02*Y11614D01*
X8650Y8663D02*Y7037D01*
X7837Y7850D02*X9463D01*
X8243Y8256D02*X9056D01*
X8243D02*Y7444D01*
X9056D01*
Y8256D02*Y7444D01*
X94200Y87493D02*Y85867D01*
X93387Y86680D02*X95013D01*
X93793Y87086D02*X94606D01*
X93793D02*Y86274D01*
X94606D01*
Y87086D02*Y86274D01*
X94200Y12833D02*Y11207D01*
X93387Y12020D02*X95013D01*
X93793Y12426D02*X94606D01*
X93793D02*Y11614D01*
X94606D01*
Y12426D02*Y11614D01*
X3810Y103670D02*Y102045D01*
X2997Y102858D02*X4623D01*
X3404Y103264D02*X4216D01*
X3404D02*Y102451D01*
X4216D01*
Y103264D02*Y102451D01*
G54D190*X34290Y103429D02*X34671Y102667D01*
X35052Y103429D01*
X34671Y102667D02*Y101905D01*
X35509Y102743D02*X36081D01*
X35509Y101905D02*X36271D01*
X35509Y103429D02*Y101905D01*
Y103429D02*X36271D01*
X37490D02*X37681Y103239D01*
X36919Y103429D02*X37490D01*
X36728Y103239D02*X36919Y103429D01*
X36728Y103239D02*Y102858D01*
X36919Y102667D01*
X37490D01*
X37681Y102477D01*
Y102096D01*
X37490Y101905D02*X37681Y102096D01*
X36919Y101905D02*X37490D01*
X36728Y102096D02*X36919Y101905D01*
X25082D02*X25844Y103429D01*
X24892D02*X25844D01*
X11430Y102096D02*X11620Y101905D01*
X11430Y103239D02*Y102096D01*
Y103239D02*X11620Y103429D01*
X12002D01*
X12192Y103239D01*
Y102096D01*
X12002Y101905D02*X12192Y102096D01*
X11620Y101905D02*X12002D01*
X11430Y102286D02*X12192Y103048D01*
X12649Y101905D02*X12840D01*
X13297Y103124D02*X13602Y103429D01*
Y101905D01*
X13297D02*X13868D01*
X14326Y103239D02*X14516Y103429D01*
X15088D01*
X15278Y103239D01*
Y102858D01*
X14326Y101905D02*X15278Y102858D01*
X14326Y101905D02*X15278D01*
X15735Y103239D02*X15926Y103429D01*
X16497D01*
X16688Y103239D01*
Y102858D01*
X15735Y101905D02*X16688Y102858D01*
X15735Y101905D02*X16688D01*
X81112Y55847D02*Y55034D01*
Y55847D02*X81816Y56253D01*
X81112Y55847D02*X80407Y56253D01*
X80705Y55847D02*G75*G03X81518Y55847I406J0D01*G01*
G75*G03X80705Y55847I-406J0D01*G01*
X55312Y42747D02*Y41934D01*
Y42747D02*X56016Y43153D01*
X55312Y42747D02*X54607Y43153D01*
X54905Y42747D02*G75*G03X55718Y42747I406J0D01*G01*
G75*G03X54905Y42747I-406J0D01*G01*
X81112D02*Y41934D01*
Y42747D02*X81816Y43153D01*
X81112Y42747D02*X80407Y43153D01*
X80705Y42747D02*G75*G03X81518Y42747I406J0D01*G01*
G75*G03X80705Y42747I-406J0D01*G01*
X3810Y106668D02*Y105855D01*
Y106668D02*X4514Y107074D01*
X3810Y106668D02*X3106Y107074D01*
X3404Y106668D02*G75*G03X4216Y106668I406J0D01*G01*
G75*G03X3404Y106668I-406J0D01*G01*
X34290Y107239D02*X34671Y106477D01*
X35052Y107239D01*
X34671Y106477D02*Y105715D01*
X35509Y106553D02*X36081D01*
X35509Y105715D02*X36271D01*
X35509Y107239D02*Y105715D01*
Y107239D02*X36271D01*
X37490D02*X37681Y107049D01*
X36919Y107239D02*X37490D01*
X36728Y107049D02*X36919Y107239D01*
X36728Y107049D02*Y106668D01*
X36919Y106477D01*
X37490D01*
X37681Y106287D01*
Y105906D01*
X37490Y105715D02*X37681Y105906D01*
X36919Y105715D02*X37490D01*
X36728Y105906D02*X36919Y105715D01*
X24892Y107049D02*X25082Y107239D01*
X25464D01*
X25654Y107049D01*
X25464Y105715D02*X25654Y105906D01*
X25082Y105715D02*X25464D01*
X24892Y105906D02*X25082Y105715D01*
Y106553D02*X25464D01*
X25654Y107049D02*Y106744D01*
Y106363D02*Y105906D01*
Y106363D02*X25464Y106553D01*
X25654Y106744D02*X25464Y106553D01*
X11430Y105906D02*X11620Y105715D01*
X11430Y107049D02*Y105906D01*
Y107049D02*X11620Y107239D01*
X12002D01*
X12192Y107049D01*
Y105906D01*
X12002Y105715D02*X12192Y105906D01*
X11620Y105715D02*X12002D01*
X11430Y106096D02*X12192Y106858D01*
X12649Y105715D02*X12840D01*
X13297Y105906D02*X13487Y105715D01*
X13297Y107049D02*Y105906D01*
Y107049D02*X13487Y107239D01*
X13868D01*
X14059Y107049D01*
Y105906D01*
X13868Y105715D02*X14059Y105906D01*
X13487Y105715D02*X13868D01*
X13297Y106096D02*X14059Y106858D01*
X14707Y105715D02*X15469Y107239D01*
X14516D02*X15469D01*
X16116Y105715D02*X16688Y106477D01*
Y107049D02*Y106477D01*
X16497Y107239D02*X16688Y107049D01*
X16116Y107239D02*X16497D01*
X15926Y107049D02*X16116Y107239D01*
X15926Y107049D02*Y106668D01*
X16116Y106477D01*
X16688D01*
X24993Y43406D02*X25806D01*
X24993D02*Y42594D01*
X25806D01*
Y43406D02*Y42594D01*
X27533Y43406D02*X28346D01*
X27533D02*Y42594D01*
X28346D01*
Y43406D02*Y42594D01*
X30073Y43406D02*X30886D01*
X30073D02*Y42594D01*
X30886D01*
Y43406D02*Y42594D01*
X32613Y43406D02*X33426D01*
X32613D02*Y42594D01*
X33426D01*
Y43406D02*Y42594D01*
X61013Y59556D02*X61826D01*
X61013D02*Y58744D01*
X61826D01*
Y59556D02*Y58744D01*
X63553Y59556D02*X64366D01*
X63553D02*Y58744D01*
X64366D01*
Y59556D02*Y58744D01*
X66093Y59556D02*X66906D01*
X66093D02*Y58744D01*
X66906D01*
Y59556D02*Y58744D01*
X68633Y59556D02*X69446D01*
X68633D02*Y58744D01*
X69446D01*
Y59556D02*Y58744D01*
X51593Y54836D02*X52406D01*
X51593D02*Y54024D01*
X52406D01*
Y54836D02*Y54024D01*
X51593Y52296D02*X52406D01*
X51593D02*Y51484D01*
X52406D01*
Y52296D02*Y51484D01*
X51593Y49756D02*X52406D01*
X51593D02*Y48944D01*
X52406D01*
Y49756D02*Y48944D01*
X51593Y47216D02*X52406D01*
X51593D02*Y46404D01*
X52406D01*
Y47216D02*Y46404D01*
X51593Y44676D02*X52406D01*
X51593D02*Y43864D01*
X52406D01*
Y44676D02*Y43864D01*
X37513Y88906D02*X38326D01*
X37513D02*Y88094D01*
X38326D01*
Y88906D02*Y88094D01*
X34973Y88906D02*X35786D01*
X34973D02*Y88094D01*
X35786D01*
Y88906D02*Y88094D01*
X32433Y88906D02*X33246D01*
X32433D02*Y88094D01*
X33246D01*
Y88906D02*Y88094D01*
X29893Y88906D02*X30706D01*
X29893D02*Y88094D01*
X30706D01*
Y88906D02*Y88094D01*
X27353Y88906D02*X28166D01*
X27353D02*Y88094D01*
X28166D01*
Y88906D02*Y88094D01*
X26633Y48206D02*X27446D01*
X26633D02*Y47394D01*
X27446D01*
Y48206D02*Y47394D01*
X29173Y48206D02*X29986D01*
X29173D02*Y47394D01*
X29986D01*
Y48206D02*Y47394D01*
X31713Y48206D02*X32526D01*
X31713D02*Y47394D01*
X32526D01*
Y48206D02*Y47394D01*
X34253Y48206D02*X35066D01*
X34253D02*Y47394D01*
X35066D01*
Y48206D02*Y47394D01*
X36793Y48206D02*X37606D01*
X36793D02*Y47394D01*
X37606D01*
Y48206D02*Y47394D01*
X3404Y110884D02*X4216D01*
X3404D02*Y110071D01*
X4216D01*
Y110884D02*Y110071D01*
X34290Y111049D02*X34671Y110287D01*
X35052Y111049D01*
X34671Y110287D02*Y109525D01*
X35509Y110363D02*X36081D01*
X35509Y109525D02*X36271D01*
X35509Y111049D02*Y109525D01*
Y111049D02*X36271D01*
X37490D02*X37681Y110859D01*
X36919Y111049D02*X37490D01*
X36728Y110859D02*X36919Y111049D01*
X36728Y110859D02*Y110478D01*
X36919Y110287D01*
X37490D01*
X37681Y110097D01*
Y109716D01*
X37490Y109525D02*X37681Y109716D01*
X36919Y109525D02*X37490D01*
X36728Y109716D02*X36919Y109525D01*
X24892Y110859D02*X25082Y111049D01*
X25654D01*
X25844Y110859D01*
Y110478D01*
X24892Y109525D02*X25844Y110478D01*
X24892Y109525D02*X25844D01*
X26302Y110859D02*X26492Y111049D01*
X26873D01*
X27064Y110859D01*
X26873Y109525D02*X27064Y109716D01*
X26492Y109525D02*X26873D01*
X26302Y109716D02*X26492Y109525D01*
Y110363D02*X26873D01*
X27064Y110859D02*Y110554D01*
Y110173D02*Y109716D01*
Y110173D02*X26873Y110363D01*
X27064Y110554D02*X26873Y110363D01*
X11430Y109716D02*X11620Y109525D01*
X11430Y110859D02*Y109716D01*
Y110859D02*X11620Y111049D01*
X12002D01*
X12192Y110859D01*
Y109716D01*
X12002Y109525D02*X12192Y109716D01*
X11620Y109525D02*X12002D01*
X11430Y109906D02*X12192Y110668D01*
X12649Y109525D02*X12840D01*
X13297Y109716D02*X13487Y109525D01*
X13297Y110859D02*Y109716D01*
Y110859D02*X13487Y111049D01*
X13868D01*
X14059Y110859D01*
Y109716D01*
X13868Y109525D02*X14059Y109716D01*
X13487Y109525D02*X13868D01*
X13297Y109906D02*X14059Y110668D01*
X14516Y110859D02*X14707Y111049D01*
X15088D01*
X15278Y110859D01*
X15088Y109525D02*X15278Y109716D01*
X14707Y109525D02*X15088D01*
X14516Y109716D02*X14707Y109525D01*
Y110363D02*X15088D01*
X15278Y110859D02*Y110554D01*
Y110173D02*Y109716D01*
Y110173D02*X15088Y110363D01*
X15278Y110554D02*X15088Y110363D01*
X15735Y109716D02*X15926Y109525D01*
X15735Y110020D02*Y109716D01*
Y110020D02*X16002Y110287D01*
X16231D01*
X16497Y110020D01*
Y109716D01*
X16307Y109525D02*X16497Y109716D01*
X15926Y109525D02*X16307D01*
X15735Y110554D02*X16002Y110287D01*
X15735Y110859D02*Y110554D01*
Y110859D02*X15926Y111049D01*
X16307D01*
X16497Y110859D01*
Y110554D01*
X16231Y110287D02*X16497Y110554D01*
X88197Y32200D02*G75*G03X88603Y32200I203J0D01*G01*
G75*G03X88197Y32200I-203J0D01*G01*
X86197D02*G75*G03X86603Y32200I203J0D01*G01*
G75*G03X86197Y32200I-203J0D01*G01*
X88197Y30200D02*G75*G03X88603Y30200I203J0D01*G01*
G75*G03X88197Y30200I-203J0D01*G01*
X86197D02*G75*G03X86603Y30200I203J0D01*G01*
G75*G03X86197Y30200I-203J0D01*G01*
X88197Y22700D02*G75*G03X88603Y22700I203J0D01*G01*
G75*G03X88197Y22700I-203J0D01*G01*
X86197D02*G75*G03X86603Y22700I203J0D01*G01*
G75*G03X86197Y22700I-203J0D01*G01*
X88197Y20700D02*G75*G03X88603Y20700I203J0D01*G01*
G75*G03X88197Y20700I-203J0D01*G01*
X86197D02*G75*G03X86603Y20700I203J0D01*G01*
G75*G03X86197Y20700I-203J0D01*G01*
X74597Y85600D02*G75*G03X75003Y85600I203J0D01*G01*
G75*G03X74597Y85600I-203J0D01*G01*
Y87600D02*G75*G03X75003Y87600I203J0D01*G01*
G75*G03X74597Y87600I-203J0D01*G01*
X76597Y85600D02*G75*G03X77003Y85600I203J0D01*G01*
G75*G03X76597Y85600I-203J0D01*G01*
Y87600D02*G75*G03X77003Y87600I203J0D01*G01*
G75*G03X76597Y87600I-203J0D01*G01*
X78597Y85600D02*G75*G03X79003Y85600I203J0D01*G01*
G75*G03X78597Y85600I-203J0D01*G01*
Y87600D02*G75*G03X79003Y87600I203J0D01*G01*
G75*G03X78597Y87600I-203J0D01*G01*
X80597Y85600D02*G75*G03X81003Y85600I203J0D01*G01*
G75*G03X80597Y85600I-203J0D01*G01*
Y87600D02*G75*G03X81003Y87600I203J0D01*G01*
G75*G03X80597Y87600I-203J0D01*G01*
X82597Y85600D02*G75*G03X83003Y85600I203J0D01*G01*
G75*G03X82597Y85600I-203J0D01*G01*
Y87600D02*G75*G03X83003Y87600I203J0D01*G01*
G75*G03X82597Y87600I-203J0D01*G01*
X11697Y34300D02*G75*G03X12103Y34300I203J0D01*G01*
G75*G03X11697Y34300I-203J0D01*G01*
X13697D02*G75*G03X14103Y34300I203J0D01*G01*
G75*G03X13697Y34300I-203J0D01*G01*
X11697Y36300D02*G75*G03X12103Y36300I203J0D01*G01*
G75*G03X11697Y36300I-203J0D01*G01*
X13697D02*G75*G03X14103Y36300I203J0D01*G01*
G75*G03X13697Y36300I-203J0D01*G01*
X11697Y38300D02*G75*G03X12103Y38300I203J0D01*G01*
G75*G03X11697Y38300I-203J0D01*G01*
X13697D02*G75*G03X14103Y38300I203J0D01*G01*
G75*G03X13697Y38300I-203J0D01*G01*
Y52800D02*G75*G03X14103Y52800I203J0D01*G01*
G75*G03X13697Y52800I-203J0D01*G01*
X11697D02*G75*G03X12103Y52800I203J0D01*G01*
G75*G03X11697Y52800I-203J0D01*G01*
X13697Y50800D02*G75*G03X14103Y50800I203J0D01*G01*
G75*G03X13697Y50800I-203J0D01*G01*
X11697D02*G75*G03X12103Y50800I203J0D01*G01*
G75*G03X11697Y50800I-203J0D01*G01*
X13697Y48800D02*G75*G03X14103Y48800I203J0D01*G01*
G75*G03X13697Y48800I-203J0D01*G01*
X11697D02*G75*G03X12103Y48800I203J0D01*G01*
G75*G03X11697Y48800I-203J0D01*G01*
X3607Y114288D02*G75*G03X4013Y114288I203J0D01*G01*
G75*G03X3607Y114288I-203J0D01*G01*
X34290Y114859D02*X34671Y114097D01*
X35052Y114859D01*
X34671Y114097D02*Y113335D01*
X35509Y114173D02*X36081D01*
X35509Y113335D02*X36271D01*
X35509Y114859D02*Y113335D01*
Y114859D02*X36271D01*
X37490D02*X37681Y114669D01*
X36919Y114859D02*X37490D01*
X36728Y114669D02*X36919Y114859D01*
X36728Y114669D02*Y114288D01*
X36919Y114097D01*
X37490D01*
X37681Y113907D01*
Y113526D01*
X37490Y113335D02*X37681Y113526D01*
X36919Y113335D02*X37490D01*
X36728Y113526D02*X36919Y113335D01*
X24892Y114669D02*X25082Y114859D01*
X25464D01*
X25654Y114669D01*
X25464Y113335D02*X25654Y113526D01*
X25082Y113335D02*X25464D01*
X24892Y113526D02*X25082Y113335D01*
Y114173D02*X25464D01*
X25654Y114669D02*Y114364D01*
Y113983D02*Y113526D01*
Y113983D02*X25464Y114173D01*
X25654Y114364D02*X25464Y114173D01*
X26111Y113526D02*X26302Y113335D01*
X26111Y114669D02*Y113526D01*
Y114669D02*X26302Y114859D01*
X26683D01*
X26873Y114669D01*
Y113526D01*
X26683Y113335D02*X26873Y113526D01*
X26302Y113335D02*X26683D01*
X26111Y113716D02*X26873Y114478D01*
X11430Y113526D02*X11620Y113335D01*
X11430Y114669D02*Y113526D01*
Y114669D02*X11620Y114859D01*
X12002D01*
X12192Y114669D01*
Y113526D01*
X12002Y113335D02*X12192Y113526D01*
X11620Y113335D02*X12002D01*
X11430Y113716D02*X12192Y114478D01*
X12649Y113335D02*X12840D01*
X13297Y113526D02*X13487Y113335D01*
X13297Y114669D02*Y113526D01*
Y114669D02*X13487Y114859D01*
X13868D01*
X14059Y114669D01*
Y113526D01*
X13868Y113335D02*X14059Y113526D01*
X13487Y113335D02*X13868D01*
X13297Y113716D02*X14059Y114478D01*
X14516Y114669D02*X14707Y114859D01*
X15088D01*
X15278Y114669D01*
X15088Y113335D02*X15278Y113526D01*
X14707Y113335D02*X15088D01*
X14516Y113526D02*X14707Y113335D01*
Y114173D02*X15088D01*
X15278Y114669D02*Y114364D01*
Y113983D02*Y113526D01*
Y113983D02*X15088Y114173D01*
X15278Y114364D02*X15088Y114173D01*
X15735Y114669D02*X15926Y114859D01*
X16497D01*
X16688Y114669D01*
Y114288D01*
X15735Y113335D02*X16688Y114288D01*
X15735Y113335D02*X16688D01*
X34995Y84705D02*X35605Y84095D01*
X34995D02*X35605Y84705D01*
X32455D02*X33065Y84095D01*
X32455D02*X33065Y84705D01*
X29915D02*X30525Y84095D01*
X29915D02*X30525Y84705D01*
X27375D02*X27985Y84095D01*
X27375D02*X27985Y84705D01*
X24835D02*X25445Y84095D01*
X24835D02*X25445Y84705D01*
X22295D02*X22905Y84095D01*
X22295D02*X22905Y84705D01*
X19755D02*X20365Y84095D01*
X19755D02*X20365Y84705D01*
X19755Y61805D02*X20365Y61195D01*
X19755D02*X20365Y61805D01*
X22295D02*X22905Y61195D01*
X22295D02*X22905Y61805D01*
X24835D02*X25445Y61195D01*
X24835D02*X25445Y61805D01*
X27375D02*X27985Y61195D01*
X27375D02*X27985Y61805D01*
X29915D02*X30525Y61195D01*
X29915D02*X30525Y61805D01*
X32455D02*X33065Y61195D01*
X32455D02*X33065Y61805D01*
X34995D02*X35605Y61195D01*
X34995D02*X35605Y61805D01*
X3505Y118402D02*X4115Y117793D01*
X3505D02*X4115Y118402D01*
X34290Y118669D02*X34671Y117907D01*
X35052Y118669D01*
X34671Y117907D02*Y117145D01*
X35509Y117983D02*X36081D01*
X35509Y117145D02*X36271D01*
X35509Y118669D02*Y117145D01*
Y118669D02*X36271D01*
X37490D02*X37681Y118479D01*
X36919Y118669D02*X37490D01*
X36728Y118479D02*X36919Y118669D01*
X36728Y118479D02*Y118098D01*
X36919Y117907D01*
X37490D01*
X37681Y117717D01*
Y117336D01*
X37490Y117145D02*X37681Y117336D01*
X36919Y117145D02*X37490D01*
X36728Y117336D02*X36919Y117145D01*
X24892Y118364D02*X25197Y118669D01*
Y117145D01*
X24892D02*X25464D01*
X25921Y117717D02*X26683Y118669D01*
X25921Y117717D02*X26873D01*
X26683Y118669D02*Y117145D01*
X11430Y117336D02*X11620Y117145D01*
X11430Y118479D02*Y117336D01*
Y118479D02*X11620Y118669D01*
X12002D01*
X12192Y118479D01*
Y117336D01*
X12002Y117145D02*X12192Y117336D01*
X11620Y117145D02*X12002D01*
X11430Y117526D02*X12192Y118288D01*
X12649Y117145D02*X12840D01*
X13297Y117336D02*X13487Y117145D01*
X13297Y118479D02*Y117336D01*
Y118479D02*X13487Y118669D01*
X13868D01*
X14059Y118479D01*
Y117336D01*
X13868Y117145D02*X14059Y117336D01*
X13487Y117145D02*X13868D01*
X13297Y117526D02*X14059Y118288D01*
X14516Y118479D02*X14707Y118669D01*
X15278D01*
X15469Y118479D01*
Y118098D01*
X14516Y117145D02*X15469Y118098D01*
X14516Y117145D02*X15469D01*
X15926Y117336D02*X16116Y117145D01*
X15926Y117640D02*Y117336D01*
Y117640D02*X16193Y117907D01*
X16421D01*
X16688Y117640D01*
Y117336D01*
X16497Y117145D02*X16688Y117336D01*
X16116Y117145D02*X16497D01*
X15926Y118174D02*X16193Y117907D01*
X15926Y118479D02*Y118174D01*
Y118479D02*X16116Y118669D01*
X16497D01*
X16688Y118479D01*
Y118174D01*
X16421Y117907D02*X16688Y118174D01*
X17700Y30206D02*Y29393D01*
X17293Y29800D02*X18106D01*
X17700Y31006D02*Y30193D01*
X17293Y30600D02*X18106D01*
X17700Y42206D02*Y41394D01*
X17293Y41800D02*X18106D01*
X17700Y43007D02*Y42194D01*
X17293Y42600D02*X18106D01*
X17700Y36206D02*Y35394D01*
X17293Y35800D02*X18106D01*
X17700Y37007D02*Y36194D01*
X17293Y36600D02*X18106D01*
X68511Y53953D02*Y53141D01*
X68105Y53547D02*X68918D01*
X70012Y51353D02*Y50540D01*
X69605Y50947D02*X70418D01*
X64811Y51003D02*Y50190D01*
X64405Y50597D02*X65218D01*
X67362Y49303D02*Y48490D01*
X66955Y48897D02*X67768D01*
X67312Y48353D02*Y47540D01*
X66905Y47947D02*X67718D01*
X64811Y49353D02*Y48540D01*
X64405Y48947D02*X65218D01*
X62911Y53053D02*Y52240D01*
X62505Y52647D02*X63318D01*
X62911Y54753D02*Y53940D01*
X62505Y54347D02*X63318D01*
X57811Y49753D02*Y48940D01*
X57405Y49347D02*X58218D01*
X64411Y51954D02*Y51141D01*
X64005Y51547D02*X64818D01*
X75350Y47256D02*Y46444D01*
X74943Y46850D02*X75756D01*
X54712Y47754D02*Y46941D01*
X54305Y47347D02*X55118D01*
X3810Y122314D02*Y121501D01*
X3404Y121908D02*X4216D01*
X34290Y122479D02*X34671Y121717D01*
X35052Y122479D01*
X34671Y121717D02*Y120955D01*
X35509Y121793D02*X36081D01*
X35509Y120955D02*X36271D01*
X35509Y122479D02*Y120955D01*
Y122479D02*X36271D01*
X37490D02*X37681Y122289D01*
X36919Y122479D02*X37490D01*
X36728Y122289D02*X36919Y122479D01*
X36728Y122289D02*Y121908D01*
X36919Y121717D01*
X37490D01*
X37681Y121527D01*
Y121146D01*
X37490Y120955D02*X37681Y121146D01*
X36919Y120955D02*X37490D01*
X36728Y121146D02*X36919Y120955D01*
X24892Y122174D02*X25197Y122479D01*
Y120955D01*
X24892D02*X25464D01*
X25921Y121146D02*X26111Y120955D01*
X25921Y121450D02*Y121146D01*
Y121450D02*X26187Y121717D01*
X26416D01*
X26683Y121450D01*
Y121146D01*
X26492Y120955D02*X26683Y121146D01*
X26111Y120955D02*X26492D01*
X25921Y121984D02*X26187Y121717D01*
X25921Y122289D02*Y121984D01*
Y122289D02*X26111Y122479D01*
X26492D01*
X26683Y122289D01*
Y121984D01*
X26416Y121717D02*X26683Y121984D01*
X11430Y121146D02*X11620Y120955D01*
X11430Y122289D02*Y121146D01*
Y122289D02*X11620Y122479D01*
X12002D01*
X12192Y122289D01*
Y121146D01*
X12002Y120955D02*X12192Y121146D01*
X11620Y120955D02*X12002D01*
X11430Y121336D02*X12192Y122098D01*
X12649Y120955D02*X12840D01*
X13297Y121146D02*X13487Y120955D01*
X13297Y122289D02*Y121146D01*
Y122289D02*X13487Y122479D01*
X13868D01*
X14059Y122289D01*
Y121146D01*
X13868Y120955D02*X14059Y121146D01*
X13487Y120955D02*X13868D01*
X13297Y121336D02*X14059Y122098D01*
X14516Y122174D02*X14821Y122479D01*
Y120955D01*
X14516D02*X15088D01*
X15545Y122289D02*X15735Y122479D01*
X16307D01*
X16497Y122289D01*
Y121908D01*
X15545Y120955D02*X16497Y121908D01*
X15545Y120955D02*X16497D01*
X18500Y23300D02*Y22894D01*
Y23300D02*X18852Y23503D01*
X18500Y23300D02*X18147Y23503D01*
X21000Y28600D02*Y28194D01*
Y28600D02*X21352Y28803D01*
X21000Y28600D02*X20648Y28803D01*
X19000Y25800D02*Y25394D01*
Y25800D02*X19352Y26003D01*
X19000Y25800D02*X18648Y26003D01*
X17400Y25800D02*Y25394D01*
Y25800D02*X17752Y26003D01*
X17400Y25800D02*X17047Y26003D01*
X37100Y26600D02*Y26194D01*
Y26600D02*X37452Y26803D01*
X37100Y26600D02*X36747Y26803D01*
X35600Y16300D02*Y15894D01*
Y16300D02*X35952Y16503D01*
X35600Y16300D02*X35248Y16503D01*
X51400Y33200D02*Y32794D01*
Y33200D02*X51752Y33403D01*
X51400Y33200D02*X51048Y33403D01*
X51400Y34700D02*Y34294D01*
Y34700D02*X51752Y34903D01*
X51400Y34700D02*X51048Y34903D01*
X37200Y25400D02*Y24994D01*
Y25400D02*X37552Y25603D01*
X37200Y25400D02*X36847Y25603D01*
X40850Y23650D02*Y23244D01*
Y23650D02*X41202Y23853D01*
X40850Y23650D02*X40497Y23853D01*
X40700Y25800D02*Y25394D01*
Y25800D02*X41052Y26003D01*
X40700Y25800D02*X40348Y26003D01*
X38400Y28900D02*Y28494D01*
Y28900D02*X38752Y29103D01*
X38400Y28900D02*X38048Y29103D01*
X25000Y26300D02*Y25894D01*
Y26300D02*X25352Y26503D01*
X25000Y26300D02*X24648Y26503D01*
X37700Y38100D02*Y37694D01*
Y38100D02*X38052Y38303D01*
X37700Y38100D02*X37348Y38303D01*
X34200Y28900D02*Y28494D01*
Y28900D02*X34552Y29103D01*
X34200Y28900D02*X33847Y29103D01*
X41300Y18300D02*Y17894D01*
Y18300D02*X41652Y18503D01*
X41300Y18300D02*X40948Y18503D01*
X44300Y18300D02*Y17894D01*
Y18300D02*X44652Y18503D01*
X44300Y18300D02*X43948Y18503D01*
X44000Y21100D02*Y20694D01*
Y21100D02*X44352Y21303D01*
X44000Y21100D02*X43648Y21303D01*
X48678Y24409D02*Y24003D01*
Y24409D02*X49030Y24612D01*
X48678Y24409D02*X48326Y24612D01*
X43300Y23600D02*Y23194D01*
Y23600D02*X43652Y23803D01*
X43300Y23600D02*X42948Y23803D01*
X38600Y32200D02*Y31794D01*
Y32200D02*X38952Y32403D01*
X38600Y32200D02*X38248Y32403D01*
X34900Y32800D02*Y32394D01*
Y32800D02*X35252Y33003D01*
X34900Y32800D02*X34548Y33003D01*
X33100Y23200D02*Y22794D01*
Y23200D02*X33452Y23403D01*
X33100Y23200D02*X32748Y23403D01*
X80200Y80700D02*Y80294D01*
Y80700D02*X80552Y80903D01*
X80200Y80700D02*X79848Y80903D01*
X76434Y83642D02*Y83236D01*
Y83642D02*X76787Y83846D01*
X76434Y83642D02*X76082Y83846D01*
X76900Y80600D02*Y80194D01*
Y80600D02*X77252Y80804D01*
X76900Y80600D02*X76548Y80804D01*
X74200Y81000D02*Y80594D01*
Y81000D02*X74552Y81203D01*
X74200Y81000D02*X73848Y81203D01*
X75500Y78200D02*Y77794D01*
Y78200D02*X75852Y78403D01*
X75500Y78200D02*X75148Y78403D01*
X82300Y80300D02*Y79894D01*
Y80300D02*X82652Y80503D01*
X82300Y80300D02*X81948Y80503D01*
X82200Y78100D02*Y77694D01*
Y78100D02*X82552Y78303D01*
X82200Y78100D02*X81848Y78303D01*
X82300Y77000D02*Y76594D01*
Y77000D02*X82652Y77203D01*
X82300Y77000D02*X81948Y77203D01*
X84100Y80800D02*Y80394D01*
Y80800D02*X84452Y81003D01*
X84100Y80800D02*X83748Y81003D01*
X76800Y72100D02*Y71694D01*
Y72100D02*X77152Y72303D01*
X76800Y72100D02*X76448Y72303D01*
X80300Y72900D02*Y72494D01*
Y72900D02*X80652Y73103D01*
X80300Y72900D02*X79948Y73103D01*
X80100Y74000D02*Y73594D01*
Y74000D02*X80452Y74203D01*
X80100Y74000D02*X79748Y74203D01*
X75600Y73000D02*Y72594D01*
Y73000D02*X75952Y73203D01*
X75600Y73000D02*X75248Y73203D01*
X71800Y79400D02*Y78994D01*
Y79400D02*X72152Y79603D01*
X71800Y79400D02*X71448Y79603D01*
X82300Y74900D02*Y74494D01*
Y74900D02*X82652Y75103D01*
X82300Y74900D02*X81948Y75103D01*
X71800Y82600D02*Y82194D01*
Y82600D02*X72152Y82804D01*
X71800Y82600D02*X71448Y82804D01*
X17700Y28800D02*Y28394D01*
Y28800D02*X18052Y29003D01*
X17700Y28800D02*X17348Y29003D01*
X19400Y28800D02*Y28394D01*
Y28800D02*X19752Y29003D01*
X19400Y28800D02*X19048Y29003D01*
X17700Y31900D02*Y31494D01*
Y31900D02*X18052Y32103D01*
X17700Y31900D02*X17348Y32103D01*
X17700Y34600D02*Y34194D01*
Y34600D02*X18052Y34803D01*
X17700Y34600D02*X17348Y34803D01*
X17700Y37900D02*Y37494D01*
Y37900D02*X18052Y38103D01*
X17700Y37900D02*X17348Y38103D01*
X17700Y40600D02*Y40194D01*
Y40600D02*X18052Y40803D01*
X17700Y40600D02*X17348Y40803D01*
X17700Y43900D02*Y43494D01*
Y43900D02*X18052Y44103D01*
X17700Y43900D02*X17348Y44103D01*
X20400Y33000D02*Y32594D01*
Y33000D02*X20752Y33203D01*
X20400Y33000D02*X20048Y33203D01*
X20400Y39000D02*Y38594D01*
Y39000D02*X20752Y39203D01*
X20400Y39000D02*X20048Y39203D01*
X19800Y40700D02*Y40294D01*
Y40700D02*X20152Y40903D01*
X19800Y40700D02*X19448Y40903D01*
X19800Y42600D02*Y42194D01*
Y42600D02*X20152Y42803D01*
X19800Y42600D02*X19448Y42803D01*
X19800Y34700D02*Y34294D01*
Y34700D02*X20152Y34903D01*
X19800Y34700D02*X19448Y34903D01*
X19800Y36600D02*Y36194D01*
Y36600D02*X20152Y36803D01*
X19800Y36600D02*X19448Y36803D01*
X20400Y45000D02*Y44594D01*
Y45000D02*X20752Y45203D01*
X20400Y45000D02*X20048Y45203D01*
X19400Y30700D02*Y30294D01*
Y30700D02*X19752Y30903D01*
X19400Y30700D02*X19048Y30903D01*
X14600Y40900D02*Y40494D01*
Y40900D02*X14952Y41103D01*
X14600Y40900D02*X14248Y41103D01*
X16200Y40300D02*Y39894D01*
Y40300D02*X16552Y40503D01*
X16200Y40300D02*X15848Y40503D01*
X16200Y37700D02*Y37294D01*
Y37700D02*X16552Y37903D01*
X16200Y37700D02*X15848Y37903D01*
X16200Y43700D02*Y43294D01*
Y43700D02*X16552Y43903D01*
X16200Y43700D02*X15848Y43903D01*
X16200Y34300D02*Y33894D01*
Y34300D02*X16552Y34503D01*
X16200Y34300D02*X15848Y34503D01*
X16200Y31700D02*Y31294D01*
Y31700D02*X16552Y31903D01*
X16200Y31700D02*X15848Y31903D01*
X16200Y46300D02*Y45894D01*
Y46300D02*X16552Y46503D01*
X16200Y46300D02*X15848Y46503D01*
X30300Y29700D02*Y29294D01*
Y29700D02*X30652Y29903D01*
X30300Y29700D02*X29948Y29903D01*
X29800Y30500D02*Y30094D01*
Y30500D02*X30152Y30703D01*
X29800Y30500D02*X29448Y30703D01*
X28900Y30500D02*Y30094D01*
Y30500D02*X29252Y30703D01*
X28900Y30500D02*X28548Y30703D01*
X47500Y46800D02*Y46394D01*
Y46800D02*X47852Y47003D01*
X47500Y46800D02*X47148Y47003D01*
X51900Y31700D02*Y31294D01*
Y31700D02*X52252Y31903D01*
X51900Y31700D02*X51548Y31903D01*
X51700Y30700D02*Y30294D01*
Y30700D02*X52052Y30903D01*
X51700Y30700D02*X51348Y30903D01*
X65900Y28300D02*Y27894D01*
Y28300D02*X66252Y28503D01*
X65900Y28300D02*X65548Y28503D01*
X59000Y30300D02*Y29894D01*
Y30300D02*X59352Y30503D01*
X59000Y30300D02*X58648Y30503D01*
X60400Y28300D02*Y27894D01*
Y28300D02*X60752Y28503D01*
X60400Y28300D02*X60048Y28503D01*
X65400Y23600D02*Y23194D01*
Y23600D02*X65752Y23803D01*
X65400Y23600D02*X65048Y23803D01*
X63900Y23600D02*Y23194D01*
Y23600D02*X64252Y23803D01*
X63900Y23600D02*X63548Y23803D01*
X63600Y28500D02*Y28094D01*
Y28500D02*X63952Y28703D01*
X63600Y28500D02*X63248Y28703D01*
X57200Y23000D02*Y22594D01*
Y23000D02*X57552Y23203D01*
X57200Y23000D02*X56848Y23203D01*
X62000Y22500D02*Y22094D01*
Y22500D02*X62352Y22703D01*
X62000Y22500D02*X61648Y22703D01*
X58100Y30200D02*Y29794D01*
Y30200D02*X58452Y30403D01*
X58100Y30200D02*X57748Y30403D01*
X65300Y29000D02*Y28594D01*
Y29000D02*X65652Y29203D01*
X65300Y29000D02*X64948Y29203D01*
X70500Y25400D02*Y24994D01*
Y25400D02*X70852Y25603D01*
X70500Y25400D02*X70148Y25603D01*
X47400Y18400D02*Y17994D01*
Y18400D02*X47752Y18603D01*
X47400Y18400D02*X47048Y18603D01*
X78300Y17200D02*Y16794D01*
Y17200D02*X78652Y17403D01*
X78300Y17200D02*X77948Y17403D01*
X79200Y19100D02*Y18694D01*
Y19100D02*X79552Y19303D01*
X79200Y19100D02*X78848Y19303D01*
X79200Y20500D02*Y20094D01*
Y20500D02*X79552Y20703D01*
X79200Y20500D02*X78848Y20703D01*
X78300Y20200D02*Y19794D01*
Y20200D02*X78652Y20403D01*
X78300Y20200D02*X77948Y20403D01*
X36600Y83100D02*Y82694D01*
Y83100D02*X36952Y83303D01*
X36600Y83100D02*X36248Y83303D01*
X38600Y64900D02*Y64494D01*
Y64900D02*X38952Y65103D01*
X38600Y64900D02*X38248Y65103D01*
X42000Y46400D02*Y45994D01*
Y46400D02*X42352Y46603D01*
X42000Y46400D02*X41648Y46603D01*
X42000Y47800D02*Y47394D01*
Y47800D02*X42352Y48003D01*
X42000Y47800D02*X41648Y48003D01*
X38300Y40900D02*Y40494D01*
Y40900D02*X38652Y41103D01*
X38300Y40900D02*X37948Y41103D01*
X17100Y51900D02*Y51494D01*
Y51900D02*X17452Y52103D01*
X17100Y51900D02*X16748Y52103D01*
X47100Y52200D02*Y51794D01*
Y52200D02*X47452Y52403D01*
X47100Y52200D02*X46748Y52403D01*
X49500Y54600D02*Y54194D01*
Y54600D02*X49852Y54803D01*
X49500Y54600D02*X49148Y54803D01*
X44500Y53000D02*Y52594D01*
Y53000D02*X44852Y53203D01*
X44500Y53000D02*X44148Y53203D01*
X40700Y49200D02*Y48794D01*
Y49200D02*X41052Y49403D01*
X40700Y49200D02*X40348Y49403D01*
X40300Y42400D02*Y41994D01*
Y42400D02*X40652Y42603D01*
X40300Y42400D02*X39948Y42603D01*
X40800Y39900D02*Y39494D01*
Y39900D02*X41152Y40103D01*
X40800Y39900D02*X40448Y40103D01*
X41200Y42500D02*Y42094D01*
Y42500D02*X41552Y42703D01*
X41200Y42500D02*X40848Y42703D01*
X41700Y40000D02*Y39594D01*
Y40000D02*X42052Y40203D01*
X41700Y40000D02*X41348Y40203D01*
X42100Y49600D02*Y49194D01*
Y49600D02*X42452Y49803D01*
X42100Y49600D02*X41748Y49803D01*
X48200Y55700D02*Y55294D01*
Y55700D02*X48552Y55903D01*
X48200Y55700D02*X47848Y55903D01*
X75700Y69300D02*Y68894D01*
Y69300D02*X76052Y69503D01*
X75700Y69300D02*X75348Y69503D01*
X75700Y71500D02*Y71094D01*
Y71500D02*X76052Y71703D01*
X75700Y71500D02*X75348Y71703D01*
X74400Y68700D02*Y68294D01*
Y68700D02*X74752Y68903D01*
X74400Y68700D02*X74048Y68903D01*
X48800Y34700D02*Y34294D01*
Y34700D02*X49152Y34903D01*
X48800Y34700D02*X48448Y34903D01*
X56200Y33100D02*Y32694D01*
Y33100D02*X56552Y33303D01*
X56200Y33100D02*X55848Y33303D01*
X51000Y30200D02*Y29794D01*
Y30200D02*X51352Y30403D01*
X51000Y30200D02*X50648Y30403D01*
X54000Y29800D02*Y29394D01*
Y29800D02*X54352Y30003D01*
X54000Y29800D02*X53648Y30003D01*
X15800Y25800D02*Y25394D01*
Y25800D02*X16152Y26003D01*
X15800Y25800D02*X15448Y26003D01*
X47100Y47600D02*Y47194D01*
Y47600D02*X47452Y47803D01*
X47100Y47600D02*X46748Y47803D01*
X76400Y46950D02*Y46544D01*
Y46950D02*X76752Y47153D01*
X76400Y46950D02*X76048Y47153D01*
X76400Y47850D02*Y47444D01*
Y47850D02*X76752Y48053D01*
X76400Y47850D02*X76048Y48053D01*
X61860Y49150D02*Y48744D01*
Y49150D02*X62212Y49353D01*
X61860Y49150D02*X61508Y49353D01*
X62610Y48750D02*Y48344D01*
Y48750D02*X62962Y48953D01*
X62610Y48750D02*X62258Y48953D01*
X62830Y50920D02*Y50514D01*
Y50920D02*X63182Y51123D01*
X62830Y50920D02*X62478Y51123D01*
X63500Y48600D02*Y48194D01*
Y48600D02*X63852Y48803D01*
X63500Y48600D02*X63148Y48803D01*
X68650Y44900D02*Y44494D01*
Y44900D02*X69002Y45103D01*
X68650Y44900D02*X68298Y45103D01*
X67750Y44900D02*Y44494D01*
Y44900D02*X68102Y45103D01*
X67750Y44900D02*X67398Y45103D01*
X66500Y43900D02*Y43494D01*
Y43900D02*X66852Y44103D01*
X66500Y43900D02*X66148Y44103D01*
X70000Y42400D02*Y41994D01*
Y42400D02*X70352Y42603D01*
X70000Y42400D02*X69648Y42603D01*
X66600Y46300D02*Y45894D01*
Y46300D02*X66952Y46503D01*
X66600Y46300D02*X66248Y46503D01*
X70014Y46449D02*Y46043D01*
Y46449D02*X70366Y46652D01*
X70014Y46449D02*X69662Y46652D01*
X68800Y45850D02*Y45444D01*
Y45850D02*X69152Y46053D01*
X68800Y45850D02*X68448Y46053D01*
X68750Y41800D02*Y41394D01*
Y41800D02*X69102Y42003D01*
X68750Y41800D02*X68398Y42003D01*
X66500Y42450D02*Y42044D01*
Y42450D02*X66852Y42653D01*
X66500Y42450D02*X66148Y42653D01*
X67850Y41800D02*Y41394D01*
Y41800D02*X68202Y42003D01*
X67850Y41800D02*X67498Y42003D01*
X64050Y52450D02*Y52044D01*
Y52450D02*X64402Y52653D01*
X64050Y52450D02*X63698Y52653D01*
X67900Y54750D02*Y54344D01*
Y54750D02*X68252Y54953D01*
X67900Y54750D02*X67548Y54953D01*
X62750Y45300D02*Y44894D01*
Y45300D02*X63102Y45503D01*
X62750Y45300D02*X62398Y45503D01*
X68550Y47650D02*Y47244D01*
Y47650D02*X68902Y47853D01*
X68550Y47650D02*X68198Y47853D01*
X60800Y44500D02*Y44094D01*
Y44500D02*X61152Y44703D01*
X60800Y44500D02*X60448Y44703D01*
X46500Y45500D02*Y45094D01*
Y45500D02*X46852Y45703D01*
X46500Y45500D02*X46148Y45703D01*
X78300Y49000D02*Y48594D01*
Y49000D02*X78652Y49203D01*
X78300Y49000D02*X77948Y49203D01*
X34100Y21800D02*Y21394D01*
Y21800D02*X34452Y22003D01*
X34100Y21800D02*X33748Y22003D01*
X30800Y20700D02*Y20294D01*
Y20700D02*X31152Y20903D01*
X30800Y20700D02*X30448Y20903D01*
X73000Y57000D02*Y56594D01*
Y57000D02*X73352Y57203D01*
X73000Y57000D02*X72648Y57203D01*
X82300Y49600D02*Y49194D01*
Y49600D02*X82652Y49803D01*
X82300Y49600D02*X81948Y49803D01*
X56700Y51200D02*Y50794D01*
Y51200D02*X57052Y51403D01*
X56700Y51200D02*X56348Y51403D01*
X58800Y54500D02*Y54094D01*
Y54500D02*X59152Y54703D01*
X58800Y54500D02*X58448Y54703D01*
X43840Y40293D02*Y39887D01*
Y40293D02*X44192Y40497D01*
X43840Y40293D02*X43488Y40497D01*
X44735Y42165D02*Y41759D01*
Y42165D02*X45087Y42368D01*
X44735Y42165D02*X44383Y42368D01*
X39100Y43700D02*Y43294D01*
Y43700D02*X39452Y43903D01*
X39100Y43700D02*X38748Y43903D01*
X39600Y44700D02*Y44294D01*
Y44700D02*X39952Y44903D01*
X39600Y44700D02*X39248Y44903D01*
X33500Y31200D02*Y30794D01*
Y31200D02*X33852Y31403D01*
X33500Y31200D02*X33148Y31403D01*
X32800Y31900D02*Y31494D01*
Y31900D02*X33152Y32103D01*
X32800Y31900D02*X32448Y32103D01*
X42000Y31200D02*Y30794D01*
Y31200D02*X42352Y31403D01*
X42000Y31200D02*X41648Y31403D01*
X43000Y31200D02*Y30794D01*
Y31200D02*X43352Y31403D01*
X43000Y31200D02*X42648Y31403D01*
X3810Y125718D02*Y125311D01*
Y125718D02*X4162Y125921D01*
X3810Y125718D02*X3458Y125921D01*
X34290Y126289D02*X34671Y125527D01*
X35052Y126289D01*
X34671Y125527D02*Y124765D01*
X35509Y125603D02*X36081D01*
X35509Y124765D02*X36271D01*
X35509Y126289D02*Y124765D01*
Y126289D02*X36271D01*
X37490D02*X37681Y126099D01*
X36919Y126289D02*X37490D01*
X36728Y126099D02*X36919Y126289D01*
X36728Y126099D02*Y125718D01*
X36919Y125527D01*
X37490D01*
X37681Y125337D01*
Y124956D01*
X37490Y124765D02*X37681Y124956D01*
X36919Y124765D02*X37490D01*
X36728Y124956D02*X36919Y124765D01*
X24892Y125984D02*X25197Y126289D01*
Y124765D01*
X24892D02*X25464D01*
X25921Y125337D02*X26683Y126289D01*
X25921Y125337D02*X26873D01*
X26683Y126289D02*Y124765D01*
X27330Y126289D02*X28092D01*
X27330D02*Y125527D01*
X27521Y125718D01*
X27902D01*
X28092Y125527D01*
Y124956D01*
X27902Y124765D02*X28092Y124956D01*
X27521Y124765D02*X27902D01*
X27330Y124956D02*X27521Y124765D01*
X11430Y124956D02*X11620Y124765D01*
X11430Y126099D02*Y124956D01*
Y126099D02*X11620Y126289D01*
X12002D01*
X12192Y126099D01*
Y124956D01*
X12002Y124765D02*X12192Y124956D01*
X11620Y124765D02*X12002D01*
X11430Y125146D02*X12192Y125908D01*
X12649Y124765D02*X12840D01*
X13297Y124956D02*X13487Y124765D01*
X13297Y126099D02*Y124956D01*
Y126099D02*X13487Y126289D01*
X13868D01*
X14059Y126099D01*
Y124956D01*
X13868Y124765D02*X14059Y124956D01*
X13487Y124765D02*X13868D01*
X13297Y125146D02*X14059Y125908D01*
X14516Y125984D02*X14821Y126289D01*
Y124765D01*
X14516D02*X15088D01*
X15545Y124956D02*X15735Y124765D01*
X15545Y126099D02*Y124956D01*
Y126099D02*X15735Y126289D01*
X16116D01*
X16307Y126099D01*
Y124956D01*
X16116Y124765D02*X16307Y124956D01*
X15735Y124765D02*X16116D01*
X15545Y125146D02*X16307Y125908D01*
X762Y130099D02*X952Y129909D01*
X190Y130099D02*X762D01*
X0Y129909D02*X190Y130099D01*
X0Y129909D02*Y129528D01*
X190Y129337D01*
X762D01*
X952Y129147D01*
Y128766D01*
X762Y128575D02*X952Y128766D01*
X190Y128575D02*X762D01*
X0Y128766D02*X190Y128575D01*
X1410Y129337D02*Y128766D01*
X1600Y128575D01*
X2172Y129337D02*Y128194D01*
X1981Y128004D02*X2172Y128194D01*
X1600Y128004D02*X1981D01*
X1410Y128194D02*X1600Y128004D01*
Y128575D02*X1981D01*
X2172Y128766D01*
X2819Y129147D02*Y128575D01*
Y129147D02*X3010Y129337D01*
X3200D01*
X3391Y129147D01*
Y128575D01*
Y129147D02*X3581Y129337D01*
X3772D01*
X3962Y129147D01*
Y128575D01*
X2629Y129337D02*X2819Y129147D01*
X4420Y130099D02*Y128575D01*
Y128766D02*X4610Y128575D01*
X4991D01*
X5182Y128766D01*
Y129147D02*Y128766D01*
X4991Y129337D02*X5182Y129147D01*
X4610Y129337D02*X4991D01*
X4420Y129147D02*X4610Y129337D01*
X5639Y129147D02*Y128766D01*
Y129147D02*X5829Y129337D01*
X6210D01*
X6401Y129147D01*
Y128766D01*
X6210Y128575D02*X6401Y128766D01*
X5829Y128575D02*X6210D01*
X5639Y128766D02*X5829Y128575D01*
X6858Y130099D02*Y128766D01*
X7049Y128575D01*
X0Y127750D02*X7430D01*
X10604Y130099D02*Y128575D01*
X11100Y130099D02*X11366Y129832D01*
Y128842D01*
X11100Y128575D02*X11366Y128842D01*
X10414Y128575D02*X11100D01*
X10414Y130099D02*X11100D01*
G54D191*X11824Y129718D02*Y129680D01*
G54D190*Y129147D02*Y128575D01*
X12776Y129337D02*X12967Y129147D01*
X12395Y129337D02*X12776D01*
X12205Y129147D02*X12395Y129337D01*
X12205Y129147D02*Y128766D01*
X12395Y128575D01*
X12967Y129337D02*Y128766D01*
X13157Y128575D01*
X12395D02*X12776D01*
X12967Y128766D01*
X13805Y129147D02*Y128575D01*
Y129147D02*X13995Y129337D01*
X14186D01*
X14376Y129147D01*
Y128575D01*
Y129147D02*X14567Y129337D01*
X14757D01*
X14948Y129147D01*
Y128575D01*
X13614Y129337D02*X13805Y129147D01*
X15405Y128575D02*X15596D01*
X16739Y128766D02*X16929Y128575D01*
X16739Y129909D02*X16929Y130099D01*
X16739Y129909D02*Y128766D01*
X17386Y130099D02*X17767D01*
X17577D02*Y128575D01*
X17386D02*X17767D01*
X18415Y129147D02*Y128575D01*
Y129147D02*X18606Y129337D01*
X18796D01*
X18987Y129147D01*
Y128575D01*
X18225Y129337D02*X18415Y129147D01*
X19634Y129337D02*X20206D01*
X19444Y129147D02*X19634Y129337D01*
X19444Y129147D02*Y128766D01*
X19634Y128575D01*
X20206D01*
X20663Y130099D02*Y128575D01*
Y129147D02*X20853Y129337D01*
X21234D01*
X21425Y129147D01*
Y128575D01*
X21882Y130099D02*X22073Y129909D01*
Y128766D01*
X21882Y128575D02*X22073Y128766D01*
X10414Y127750D02*X22530D01*
X24397Y128575D02*X24892D01*
X24130Y128842D02*X24397Y128575D01*
X24130Y129832D02*Y128842D01*
Y129832D02*X24397Y130099D01*
X24892D01*
X25349Y129147D02*Y128766D01*
Y129147D02*X25540Y129337D01*
X25921D01*
X26111Y129147D01*
Y128766D01*
X25921Y128575D02*X26111Y128766D01*
X25540Y128575D02*X25921D01*
X25349Y128766D02*X25540Y128575D01*
X26568Y129337D02*Y128766D01*
X26759Y128575D01*
X27140D01*
X27330Y128766D01*
Y129337D02*Y128766D01*
X27978Y129147D02*Y128575D01*
Y129147D02*X28169Y129337D01*
X28359D01*
X28550Y129147D01*
Y128575D01*
X27788Y129337D02*X27978Y129147D01*
X29197Y130099D02*Y128766D01*
X29388Y128575D01*
X29007Y129528D02*X29388D01*
X24130Y127750D02*X29769D01*
X33210Y130099D02*Y128575D01*
X33020Y130099D02*X33782D01*
X33972Y129909D01*
Y129528D01*
X33782Y129337D02*X33972Y129528D01*
X33210Y129337D02*X33782D01*
X34430Y130099D02*Y128766D01*
X34620Y128575D01*
X35573Y129337D02*X35763Y129147D01*
X35192Y129337D02*X35573D01*
X35001Y129147D02*X35192Y129337D01*
X35001Y129147D02*Y128766D01*
X35192Y128575D01*
X35763Y129337D02*Y128766D01*
X35954Y128575D01*
X35192D02*X35573D01*
X35763Y128766D01*
X36601Y130099D02*Y128766D01*
X36792Y128575D01*
X36411Y129528D02*X36792D01*
X37363Y128575D02*X37935D01*
X37173Y128766D02*X37363Y128575D01*
X37173Y129147D02*Y128766D01*
Y129147D02*X37363Y129337D01*
X37744D01*
X37935Y129147D01*
X37173Y128956D02*X37935D01*
Y129147D02*Y128956D01*
X39154Y130099D02*Y128575D01*
X38964D02*X39154Y128766D01*
X38583Y128575D02*X38964D01*
X38392Y128766D02*X38583Y128575D01*
X38392Y129147D02*Y128766D01*
Y129147D02*X38583Y129337D01*
X38964D01*
X39154Y129147D01*
X39992Y129337D02*Y129147D01*
Y128766D02*Y128575D01*
X39611Y129909D02*Y129718D01*
Y129909D02*X39802Y130099D01*
X40183D01*
X40373Y129909D01*
Y129718D01*
X39992Y129337D02*X40373Y129718D01*
X33020Y127750D02*X40831D01*
X0Y133909D02*X762D01*
X381D02*Y132385D01*
X1219Y133909D02*Y132385D01*
Y132957D02*X1410Y133147D01*
X1791D01*
X1981Y132957D01*
Y132385D01*
X2629D02*X3200D01*
X2438Y132576D02*X2629Y132385D01*
X2438Y132957D02*Y132576D01*
Y132957D02*X2629Y133147D01*
X3010D01*
X3200Y132957D01*
X2438Y132766D02*X3200D01*
Y132957D02*Y132766D01*
X3848Y132957D02*Y132385D01*
Y132957D02*X4039Y133147D01*
X4420D01*
X3658D02*X3848Y132957D01*
X5067Y132385D02*X5639D01*
X4877Y132576D02*X5067Y132385D01*
X4877Y132957D02*Y132576D01*
Y132957D02*X5067Y133147D01*
X5448D01*
X5639Y132957D01*
X4877Y132766D02*X5639D01*
Y132957D02*Y132766D01*
X7353Y133147D02*X7544Y132957D01*
X6972Y133147D02*X7353D01*
X6782Y132957D02*X6972Y133147D01*
X6782Y132957D02*Y132576D01*
X6972Y132385D01*
X7544Y133147D02*Y132576D01*
X7734Y132385D01*
X6972D02*X7353D01*
X7544Y132576D01*
X8382Y132957D02*Y132385D01*
Y132957D02*X8573Y133147D01*
X8954D01*
X8192D02*X8382Y132957D01*
X9601Y132385D02*X10173D01*
X9411Y132576D02*X9601Y132385D01*
X9411Y132957D02*Y132576D01*
Y132957D02*X9601Y133147D01*
X9982D01*
X10173Y132957D01*
X9411Y132766D02*X10173D01*
Y132957D02*Y132766D01*
X11506Y132385D02*X12268Y133909D01*
X11316D02*X12268D01*
X14173D02*Y132385D01*
X13983D02*X14173Y132576D01*
X13602Y132385D02*X13983D01*
X13411Y132576D02*X13602Y132385D01*
X13411Y132957D02*Y132576D01*
Y132957D02*X13602Y133147D01*
X13983D01*
X14173Y132957D01*
G54D191*X14630Y133528D02*Y133490D01*
G54D190*Y132957D02*Y132385D01*
X15202Y133719D02*Y132385D01*
Y133719D02*X15392Y133909D01*
X15583D01*
X15011Y133147D02*X15392D01*
X16154Y133719D02*Y132385D01*
Y133719D02*X16345Y133909D01*
X16535D01*
X15964Y133147D02*X16345D01*
X17107Y132385D02*X17678D01*
X16916Y132576D02*X17107Y132385D01*
X16916Y132957D02*Y132576D01*
Y132957D02*X17107Y133147D01*
X17488D01*
X17678Y132957D01*
X16916Y132766D02*X17678D01*
Y132957D02*Y132766D01*
X18326Y132957D02*Y132385D01*
Y132957D02*X18517Y133147D01*
X18898D01*
X18136D02*X18326Y132957D01*
X19545Y132385D02*X20117D01*
X19355Y132576D02*X19545Y132385D01*
X19355Y132957D02*Y132576D01*
Y132957D02*X19545Y133147D01*
X19926D01*
X20117Y132957D01*
X19355Y132766D02*X20117D01*
Y132957D02*Y132766D01*
X20765Y132957D02*Y132385D01*
Y132957D02*X20955Y133147D01*
X21146D01*
X21336Y132957D01*
Y132385D01*
X20574Y133147D02*X20765Y132957D01*
X21984Y133909D02*Y132576D01*
X22174Y132385D01*
X21793Y133338D02*X22174D01*
X24003Y133909D02*Y132385D01*
X23813D02*X24003Y132576D01*
X23432Y132385D02*X23813D01*
X23241Y132576D02*X23432Y132385D01*
X23241Y132957D02*Y132576D01*
Y132957D02*X23432Y133147D01*
X23813D01*
X24003Y132957D01*
X24651D02*Y132385D01*
Y132957D02*X24841Y133147D01*
X25222D01*
X24460D02*X24651Y132957D01*
G54D191*X25679Y133528D02*Y133490D01*
G54D190*Y132957D02*Y132385D01*
X26060Y133909D02*Y132576D01*
X26251Y132385D01*
X26632Y133909D02*Y132576D01*
X26822Y132385D01*
X28080D02*X28651D01*
X28842Y132576D01*
X28651Y132766D02*X28842Y132576D01*
X28080Y132766D02*X28651D01*
X27889Y132957D02*X28080Y132766D01*
X27889Y132957D02*X28080Y133147D01*
X28651D01*
X28842Y132957D01*
X27889Y132576D02*X28080Y132385D01*
G54D191*X29299Y133528D02*Y133490D01*
G54D190*Y132957D02*Y132385D01*
X29680Y133147D02*X30442D01*
X29680Y132385D02*X30442Y133147D01*
X29680Y132385D02*X30442D01*
X31090D02*X31661D01*
X30899Y132576D02*X31090Y132385D01*
X30899Y132957D02*Y132576D01*
Y132957D02*X31090Y133147D01*
X31471D01*
X31661Y132957D01*
X30899Y132766D02*X31661D01*
Y132957D02*Y132766D01*
X32309Y132385D02*X32880D01*
X33071Y132576D01*
X32880Y132766D02*X33071Y132576D01*
X32309Y132766D02*X32880D01*
X32118Y132957D02*X32309Y132766D01*
X32118Y132957D02*X32309Y133147D01*
X32880D01*
X33071Y132957D01*
X32118Y132576D02*X32309Y132385D01*
X34214Y133147D02*Y132576D01*
X34404Y132385D01*
X34785D01*
X34976Y132576D01*
Y133147D02*Y132576D01*
X35624Y132385D02*X36195D01*
X36386Y132576D01*
X36195Y132766D02*X36386Y132576D01*
X35624Y132766D02*X36195D01*
X35433Y132957D02*X35624Y132766D01*
X35433Y132957D02*X35624Y133147D01*
X36195D01*
X36386Y132957D01*
X35433Y132576D02*X35624Y132385D01*
X37033D02*X37605D01*
X36843Y132576D02*X37033Y132385D01*
X36843Y132957D02*Y132576D01*
Y132957D02*X37033Y133147D01*
X37414D01*
X37605Y132957D01*
X36843Y132766D02*X37605D01*
Y132957D02*Y132766D01*
X38824Y133909D02*Y132385D01*
X38633D02*X38824Y132576D01*
X38252Y132385D02*X38633D01*
X38062Y132576D02*X38252Y132385D01*
X38062Y132957D02*Y132576D01*
Y132957D02*X38252Y133147D01*
X38633D01*
X38824Y132957D01*
G54D191*X39967Y133528D02*Y133490D01*
G54D190*Y132957D02*Y132385D01*
X40538Y132957D02*Y132385D01*
Y132957D02*X40729Y133147D01*
X40919D01*
X41110Y132957D01*
Y132385D01*
X40348Y133147D02*X40538Y132957D01*
X42443Y133909D02*Y132576D01*
X42634Y132385D01*
X42253Y133338D02*X42634D01*
X43015Y133909D02*Y132385D01*
Y132957D02*X43205Y133147D01*
X43586D01*
X43777Y132957D01*
Y132385D01*
G54D191*X44234Y133528D02*Y133490D01*
G54D190*Y132957D02*Y132385D01*
X44806D02*X45377D01*
X45568Y132576D01*
X45377Y132766D02*X45568Y132576D01*
X44806Y132766D02*X45377D01*
X44615Y132957D02*X44806Y132766D01*
X44615Y132957D02*X44806Y133147D01*
X45377D01*
X45568Y132957D01*
X44615Y132576D02*X44806Y132385D01*
X46711Y133909D02*Y132576D01*
X46901Y132385D01*
X47854Y133147D02*X48044Y132957D01*
X47473Y133147D02*X47854D01*
X47282Y132957D02*X47473Y133147D01*
X47282Y132957D02*Y132576D01*
X47473Y132385D01*
X48044Y133147D02*Y132576D01*
X48235Y132385D01*
X47473D02*X47854D01*
X48044Y132576D01*
X48692Y133147D02*Y132576D01*
X48882Y132385D01*
X49454Y133147D02*Y132004D01*
X49263Y131814D02*X49454Y132004D01*
X48882Y131814D02*X49263D01*
X48692Y132004D02*X48882Y131814D01*
Y132385D02*X49263D01*
X49454Y132576D01*
X49911Y132957D02*Y132576D01*
Y132957D02*X50102Y133147D01*
X50483D01*
X50673Y132957D01*
Y132576D01*
X50483Y132385D02*X50673Y132576D01*
X50102Y132385D02*X50483D01*
X49911Y132576D02*X50102Y132385D01*
X51130Y133147D02*Y132576D01*
X51321Y132385D01*
X51702D01*
X51892Y132576D01*
Y133147D02*Y132576D01*
X52540Y133909D02*Y132576D01*
X52730Y132385D01*
X52349Y133338D02*X52730D01*
X53111Y132004D02*X53492Y132385D01*
X54635Y133719D02*X54826Y133909D01*
X55397D01*
X55588Y133719D01*
Y133338D01*
X54635Y132385D02*X55588Y133338D01*
X54635Y132385D02*X55588D01*
X56045Y132957D02*X56807Y133909D01*
X56045Y132957D02*X56998D01*
X56807Y133909D02*Y132385D01*
X57455Y132576D02*X57645Y132385D01*
X57455Y133719D02*Y132576D01*
Y133719D02*X57645Y133909D01*
X58026D01*
X58217Y133719D01*
Y132576D01*
X58026Y132385D02*X58217Y132576D01*
X57645Y132385D02*X58026D01*
X57455Y132766D02*X58217Y133528D01*
X59360Y133909D02*Y132385D01*
Y132957D02*X59550Y133147D01*
X59931D01*
X60122Y132957D01*
Y132385D01*
X60579Y132957D02*Y132576D01*
Y132957D02*X60770Y133147D01*
X61151D01*
X61341Y132957D01*
Y132576D01*
X61151Y132385D02*X61341Y132576D01*
X60770Y132385D02*X61151D01*
X60579Y132576D02*X60770Y132385D01*
X61798Y133909D02*Y132576D01*
X61989Y132385D01*
X62560D02*X63132D01*
X62370Y132576D02*X62560Y132385D01*
X62370Y132957D02*Y132576D01*
Y132957D02*X62560Y133147D01*
X62941D01*
X63132Y132957D01*
X62370Y132766D02*X63132D01*
Y132957D02*Y132766D01*
X63779Y132385D02*X64351D01*
X64541Y132576D01*
X64351Y132766D02*X64541Y132576D01*
X63779Y132766D02*X64351D01*
X63589Y132957D02*X63779Y132766D01*
X63589Y132957D02*X63779Y133147D01*
X64351D01*
X64541Y132957D01*
X63589Y132576D02*X63779Y132385D01*
X65875Y133909D02*Y132576D01*
X66065Y132385D01*
X65684Y133338D02*X66065D01*
X66446Y132957D02*Y132576D01*
Y132957D02*X66637Y133147D01*
X67018D01*
X67208Y132957D01*
Y132576D01*
X67018Y132385D02*X67208Y132576D01*
X66637Y132385D02*X67018D01*
X66446Y132576D02*X66637Y132385D01*
X67856Y133909D02*Y132576D01*
X68047Y132385D01*
X67666Y133338D02*X68047D01*
X68999Y133147D02*X69190Y132957D01*
X68618Y133147D02*X68999D01*
X68428Y132957D02*X68618Y133147D01*
X68428Y132957D02*Y132576D01*
X68618Y132385D01*
X69190Y133147D02*Y132576D01*
X69380Y132385D01*
X68618D02*X68999D01*
X69190Y132576D01*
X69837Y133909D02*Y132576D01*
X70028Y132385D01*
G54D192*X3900Y84100D02*X5400D01*
Y14600D02*X3900D01*
X94900Y84100D02*Y14600D01*
Y84100D02*X96400D01*
X15400Y95600D02*Y94100D01*
X84900D01*
X15400Y3100D02*Y4600D01*
X84900D01*
Y3100D01*
X96400D01*
X3900D02*X15400D01*
X3900D02*Y14600D01*
Y84100D02*Y95600D01*
X15400D01*
X84900D02*X96400D01*
Y84100D01*
Y3100D02*Y14600D01*
X5400Y84100D02*Y14600D01*
X84900Y94100D02*Y95600D01*
X96400Y14600D02*X94900D01*
G54D190*X28073Y-2413D02*X28835D01*
X29026Y-2222D01*
Y-1765D02*Y-2222D01*
X28835Y-1575D02*X29026Y-1765D01*
X28264Y-1575D02*X28835D01*
X28264Y-889D02*Y-2413D01*
X28073Y-889D02*X28835D01*
X29026Y-1080D01*
Y-1384D01*
X28835Y-1575D02*X29026Y-1384D01*
X29483Y-1842D02*Y-2222D01*
Y-1842D02*X29674Y-1651D01*
X30055D01*
X30245Y-1842D01*
Y-2222D01*
X30055Y-2413D02*X30245Y-2222D01*
X29674Y-2413D02*X30055D01*
X29483Y-2222D02*X29674Y-2413D01*
X31274Y-1651D02*X31464Y-1842D01*
X30893Y-1651D02*X31274D01*
X30702Y-1842D02*X30893Y-1651D01*
X30702Y-1842D02*Y-2222D01*
X30893Y-2413D01*
X31464Y-1651D02*Y-2222D01*
X31655Y-2413D01*
X30893D02*X31274D01*
X31464Y-2222D01*
X32303Y-1842D02*Y-2413D01*
Y-1842D02*X32493Y-1651D01*
X32874D01*
X32112D02*X32303Y-1842D01*
X34093Y-889D02*Y-2413D01*
X33903D02*X34093Y-2222D01*
X33522Y-2413D02*X33903D01*
X33331Y-2222D02*X33522Y-2413D01*
X33331Y-1842D02*Y-2222D01*
Y-1842D02*X33522Y-1651D01*
X33903D01*
X34093Y-1842D01*
X35236D02*Y-2222D01*
Y-1842D02*X35427Y-1651D01*
X35808D01*
X35998Y-1842D01*
Y-2222D01*
X35808Y-2413D02*X35998Y-2222D01*
X35427Y-2413D02*X35808D01*
X35236Y-2222D02*X35427Y-2413D01*
X36455Y-1651D02*Y-2222D01*
X36646Y-2413D01*
X37027D01*
X37217Y-2222D01*
Y-1651D02*Y-2222D01*
X37865Y-889D02*Y-2222D01*
X38056Y-2413D01*
X37675Y-1460D02*X38056D01*
X38437Y-889D02*Y-2222D01*
X38627Y-2413D01*
G54D191*X39008Y-1270D02*Y-1308D01*
G54D190*Y-1842D02*Y-2413D01*
X39580Y-1842D02*Y-2413D01*
Y-1842D02*X39770Y-1651D01*
X39961D01*
X40151Y-1842D01*
Y-2413D01*
X39389Y-1651D02*X39580Y-1842D01*
X40799Y-2413D02*X41370D01*
X40608Y-2222D02*X40799Y-2413D01*
X40608Y-1842D02*Y-2222D01*
Y-1842D02*X40799Y-1651D01*
X41180D01*
X41370Y-1842D01*
X40608Y-2032D02*X41370D01*
Y-1842D02*Y-2032D01*
G54D191*X42513Y-1270D02*Y-1308D01*
G54D190*Y-1842D02*Y-2413D01*
X43085D02*X43656D01*
X43847Y-2222D01*
X43656Y-2032D02*X43847Y-2222D01*
X43085Y-2032D02*X43656D01*
X42894Y-1842D02*X43085Y-2032D01*
X42894Y-1842D02*X43085Y-1651D01*
X43656D01*
X43847Y-1842D01*
X42894Y-2222D02*X43085Y-2413D01*
X45180Y-889D02*Y-2222D01*
X45371Y-2413D01*
X44990Y-1460D02*X45371D01*
X45752Y-889D02*Y-2413D01*
Y-1842D02*X45942Y-1651D01*
X46323D01*
X46514Y-1842D01*
Y-2413D01*
X47162D02*X47733D01*
X46971Y-2222D02*X47162Y-2413D01*
X46971Y-1842D02*Y-2222D01*
Y-1842D02*X47162Y-1651D01*
X47543D01*
X47733Y-1842D01*
X46971Y-2032D02*X47733D01*
Y-1842D02*Y-2032D01*
X49067Y-1651D02*X49638D01*
X48876Y-1842D02*X49067Y-1651D01*
X48876Y-1842D02*Y-2222D01*
X49067Y-2413D01*
X49638D01*
X50286D02*X50857D01*
X50095Y-2222D02*X50286Y-2413D01*
X50095Y-1842D02*Y-2222D01*
Y-1842D02*X50286Y-1651D01*
X50667D01*
X50857Y-1842D01*
X50095Y-2032D02*X50857D01*
Y-1842D02*Y-2032D01*
X51505Y-1842D02*Y-2413D01*
Y-1842D02*X51696Y-1651D01*
X51886D01*
X52077Y-1842D01*
Y-2413D01*
X51315Y-1651D02*X51505Y-1842D01*
X52724Y-889D02*Y-2222D01*
X52915Y-2413D01*
X52534Y-1460D02*X52915D01*
X53486Y-2413D02*X54058D01*
X53296Y-2222D02*X53486Y-2413D01*
X53296Y-1842D02*Y-2222D01*
Y-1842D02*X53486Y-1651D01*
X53867D01*
X54058Y-1842D01*
X53296Y-2032D02*X54058D01*
Y-1842D02*Y-2032D01*
X54705Y-1842D02*Y-2413D01*
Y-1842D02*X54896Y-1651D01*
X55277D01*
X54515D02*X54705Y-1842D01*
X55734Y-889D02*Y-2222D01*
X55925Y-2413D01*
G54D191*X56306Y-1270D02*Y-1308D01*
G54D190*Y-1842D02*Y-2413D01*
X56877Y-1842D02*Y-2413D01*
Y-1842D02*X57068Y-1651D01*
X57258D01*
X57449Y-1842D01*
Y-2413D01*
X56687Y-1651D02*X56877Y-1842D01*
X58096Y-2413D02*X58668D01*
X57906Y-2222D02*X58096Y-2413D01*
X57906Y-1842D02*Y-2222D01*
Y-1842D02*X58096Y-1651D01*
X58477D01*
X58668Y-1842D01*
X57906Y-2032D02*X58668D01*
Y-1842D02*Y-2032D01*
X59811Y-1842D02*Y-2222D01*
Y-1842D02*X60001Y-1651D01*
X60382D01*
X60573Y-1842D01*
Y-2222D01*
X60382Y-2413D02*X60573Y-2222D01*
X60001Y-2413D02*X60382D01*
X59811Y-2222D02*X60001Y-2413D01*
X61221Y-1080D02*Y-2413D01*
Y-1080D02*X61411Y-889D01*
X61602D01*
X61030Y-1651D02*X61411D01*
X62859Y-889D02*Y-2222D01*
X63049Y-2413D01*
X62668Y-1460D02*X63049D01*
X63430Y-889D02*Y-2413D01*
Y-1842D02*X63621Y-1651D01*
X64002D01*
X64192Y-1842D01*
Y-2413D01*
G54D191*X64650Y-1270D02*Y-1308D01*
G54D190*Y-1842D02*Y-2413D01*
X65221D02*X65793D01*
X65983Y-2222D01*
X65793Y-2032D02*X65983Y-2222D01*
X65221Y-2032D02*X65793D01*
X65031Y-1842D02*X65221Y-2032D01*
X65031Y-1842D02*X65221Y-1651D01*
X65793D01*
X65983Y-1842D01*
X65031Y-2222D02*X65221Y-2413D01*
X67317Y-1842D02*Y-2984D01*
X67126Y-1651D02*X67317Y-1842D01*
X67507Y-1651D01*
X67888D01*
X68079Y-1842D01*
Y-2222D01*
X67888Y-2413D02*X68079Y-2222D01*
X67507Y-2413D02*X67888D01*
X67317Y-2222D02*X67507Y-2413D01*
X69107Y-1651D02*X69298Y-1842D01*
X68726Y-1651D02*X69107D01*
X68536Y-1842D02*X68726Y-1651D01*
X68536Y-1842D02*Y-2222D01*
X68726Y-2413D01*
X69298Y-1651D02*Y-2222D01*
X69488Y-2413D01*
X68726D02*X69107D01*
X69298Y-2222D01*
X70136Y-889D02*Y-2222D01*
X70326Y-2413D01*
X69945Y-1460D02*X70326D01*
X70707Y-889D02*Y-2413D01*
Y-1842D02*X70898Y-1651D01*
X71279D01*
X71469Y-1842D01*
Y-2413D01*
X50990Y107239D02*Y105715D01*
X51486Y107239D02*X51752Y106972D01*
Y105982D01*
X51486Y105715D02*X51752Y105982D01*
X50800Y105715D02*X51486D01*
X50800Y107239D02*X51486D01*
X52781Y106477D02*X52972Y106287D01*
X52400Y106477D02*X52781D01*
X52210Y106287D02*X52400Y106477D01*
X52210Y106287D02*Y105906D01*
X52400Y105715D01*
X52972Y106477D02*Y105906D01*
X53162Y105715D01*
X52400D02*X52781D01*
X52972Y105906D01*
X53810Y107239D02*Y105906D01*
X54000Y105715D01*
X53619Y106668D02*X54000D01*
X54572Y105715D02*X55143D01*
X54381Y105906D02*X54572Y105715D01*
X54381Y106287D02*Y105906D01*
Y106287D02*X54572Y106477D01*
X54953D01*
X55143Y106287D01*
X54381Y106096D02*X55143D01*
Y106287D02*Y106096D01*
X55601Y106668D02*X55791D01*
X55601Y106287D02*X55791D01*
G54D193*G36*
X56934Y107620D02*Y105144D01*
X58839D01*
Y107620D01*
X56934D01*
G37*
G36*
X59220D02*Y105144D01*
X61125D01*
Y107620D01*
X59220D01*
G37*
G36*
X61506D02*Y105144D01*
X63411D01*
Y107620D01*
X61506D01*
G37*
G36*
X63792D02*Y105144D01*
X65697D01*
Y107620D01*
X63792D01*
G37*
G36*
X66078D02*Y105144D01*
X67983D01*
Y107620D01*
X66078D01*
G37*
G36*
X68364D02*Y105144D01*
X70269D01*
Y107620D01*
X68364D01*
G37*
G54D190*X71336Y106934D02*X71641Y107239D01*
Y105715D01*
X71336D02*X71907D01*
X72365Y106287D02*X73127Y107239D01*
X72365Y106287D02*X73317D01*
X73127Y107239D02*Y105715D01*
G54D193*G36*
X74460Y107620D02*Y105144D01*
X76365D01*
Y107620D01*
X74460D01*
G37*
G36*
X76746D02*Y105144D01*
X78651D01*
Y107620D01*
X76746D01*
G37*
G36*
X79032D02*Y105144D01*
X80937D01*
Y107620D01*
X79032D01*
G37*
G36*
X81318D02*Y105144D01*
X83223D01*
Y107620D01*
X81318D01*
G37*
G36*
X83604D02*Y105144D01*
X85509D01*
Y107620D01*
X83604D01*
G37*
G36*
X85890D02*Y105144D01*
X87795D01*
Y107620D01*
X85890D01*
G37*
G54D190*X88862Y107049D02*X89052Y107239D01*
X89624D01*
X89814Y107049D01*
Y106668D01*
X88862Y105715D02*X89814Y106668D01*
X88862Y105715D02*X89814D01*
X90272Y105906D02*X90462Y105715D01*
X90272Y107049D02*Y105906D01*
Y107049D02*X90462Y107239D01*
X90843D01*
X91034Y107049D01*
Y105906D01*
X90843Y105715D02*X91034Y105906D01*
X90462Y105715D02*X90843D01*
X90272Y106096D02*X91034Y106858D01*
X91491Y106934D02*X91796Y107239D01*
Y105715D01*
X91491D02*X92062D01*
X93091Y107239D02*X93282Y107049D01*
X92710Y107239D02*X93091D01*
X92520Y107049D02*X92710Y107239D01*
X92520Y107049D02*Y105906D01*
X92710Y105715D01*
X93091Y106553D02*X93282Y106363D01*
X92520Y106553D02*X93091D01*
X92710Y105715D02*X93091D01*
X93282Y105906D01*
Y106363D02*Y105906D01*
X94425D02*X94615Y105715D01*
X94425Y107049D02*Y105906D01*
Y107049D02*X94615Y107239D01*
X94996D01*
X95187Y107049D01*
Y105906D01*
X94996Y105715D02*X95187Y105906D01*
X94615Y105715D02*X94996D01*
X94425Y106096D02*X95187Y106858D01*
X95644Y105906D02*X95834Y105715D01*
X95644Y106210D02*Y105906D01*
Y106210D02*X95910Y106477D01*
X96139D01*
X96406Y106210D01*
Y105906D01*
X96215Y105715D02*X96406Y105906D01*
X95834Y105715D02*X96215D01*
X95644Y106744D02*X95910Y106477D01*
X95644Y107049D02*Y106744D01*
Y107049D02*X95834Y107239D01*
X96215D01*
X96406Y107049D01*
Y106744D01*
X96139Y106477D02*X96406Y106744D01*
X96863Y106668D02*X97053D01*
X96863Y106287D02*X97053D01*
X97511Y106934D02*X97815Y107239D01*
Y105715D01*
X97511D02*X98082D01*
X98539Y107049D02*X98730Y107239D01*
X99111D01*
X99301Y107049D01*
X99111Y105715D02*X99301Y105906D01*
X98730Y105715D02*X99111D01*
X98539Y105906D02*X98730Y105715D01*
Y106553D02*X99111D01*
X99301Y107049D02*Y106744D01*
Y106363D02*Y105906D01*
Y106363D02*X99111Y106553D01*
X99301Y106744D02*X99111Y106553D01*
X99759Y106668D02*X99949D01*
X99759Y106287D02*X99949D01*
X100406Y106934D02*X100711Y107239D01*
Y105715D01*
X100406D02*X100978D01*
X101435Y106287D02*X102197Y107239D01*
X101435Y106287D02*X102387D01*
X102197Y107239D02*Y105715D01*
G54D193*G36*
X103530Y107620D02*Y105144D01*
X105435D01*
Y107620D01*
X103530D01*
G37*
G36*
X105816D02*Y105144D01*
X107721D01*
Y107620D01*
X105816D01*
G37*
G36*
X108102D02*Y105144D01*
X110007D01*
Y107620D01*
X108102D01*
G37*
G36*
X110388D02*Y105144D01*
X112293D01*
Y107620D01*
X110388D01*
G37*
G54D190*X114122Y107239D02*X114313Y107049D01*
X113551Y107239D02*X114122D01*
X113360Y107049D02*X113551Y107239D01*
X113360Y107049D02*Y105906D01*
X113551Y105715D01*
X114122D01*
X114313Y105906D01*
Y106287D02*Y105906D01*
X114122Y106477D02*X114313Y106287D01*
X113741Y106477D02*X114122D01*
X114770Y107239D02*Y105715D01*
Y107239D02*X115341Y106477D01*
X115913Y107239D01*
Y105715D01*
X116370Y107239D02*X117132D01*
X116751D02*Y105715D01*
X118275Y107239D02*Y105906D01*
X118466Y105715D01*
X118847D01*
X119037Y105906D01*
Y107239D02*Y105906D01*
X119494Y107239D02*X120256D01*
X119875D02*Y105715D01*
X120980D02*X121476D01*
X120714Y105982D02*X120980Y105715D01*
X120714Y106972D02*Y105982D01*
Y106972D02*X120980Y107239D01*
X121476D01*
X50800Y110668D02*Y109525D01*
Y110668D02*X51067Y111049D01*
X51486D01*
X51752Y110668D01*
Y109525D01*
X50800Y110287D02*X51752D01*
X52210D02*Y109716D01*
X52400Y109525D01*
X52781D01*
X52972Y109716D01*
Y110287D02*Y109716D01*
X53619Y111049D02*Y109716D01*
X53810Y109525D01*
X53429Y110478D02*X53810D01*
X54191Y111049D02*Y109525D01*
Y110097D02*X54381Y110287D01*
X54762D01*
X54953Y110097D01*
Y109525D01*
X55410Y110097D02*Y109716D01*
Y110097D02*X55601Y110287D01*
X55982D01*
X56172Y110097D01*
Y109716D01*
X55982Y109525D02*X56172Y109716D01*
X55601Y109525D02*X55982D01*
X55410Y109716D02*X55601Y109525D01*
X56820Y110097D02*Y109525D01*
Y110097D02*X57010Y110287D01*
X57391D01*
X56629D02*X56820Y110097D01*
X57849Y110478D02*X58039D01*
X57849Y110097D02*X58039D01*
X59373D02*Y109525D01*
Y110097D02*X59563Y110287D01*
X59754D01*
X59944Y110097D01*
Y109525D01*
Y110097D02*X60135Y110287D01*
X60325D01*
X60516Y110097D01*
Y109525D01*
X59182Y110287D02*X59373Y110097D01*
X60973D02*Y109716D01*
Y110097D02*X61163Y110287D01*
X61544D01*
X61735Y110097D01*
Y109716D01*
X61544Y109525D02*X61735Y109716D01*
X61163Y109525D02*X61544D01*
X60973Y109716D02*X61163Y109525D01*
X62192Y111049D02*Y109525D01*
Y109716D02*X62382Y109525D01*
X62763D01*
X62954Y109716D01*
Y110097D02*Y109716D01*
X62763Y110287D02*X62954Y110097D01*
X62382Y110287D02*X62763D01*
X62192Y110097D02*X62382Y110287D01*
G54D191*X63411Y110668D02*Y110630D01*
G54D190*Y110097D02*Y109525D01*
X63983Y110097D02*Y109525D01*
Y110097D02*X64173Y110287D01*
X64364D01*
X64554Y110097D01*
Y109525D01*
X63792Y110287D02*X63983Y110097D01*
X65202Y111049D02*Y109716D01*
X65392Y109525D01*
X65011Y110478D02*X65392D01*
X65773Y110287D02*Y109716D01*
X65964Y109525D01*
X66345D01*
X66535Y109716D01*
Y110287D02*Y109716D01*
X50800Y114859D02*X51562D01*
X51181D02*Y113335D01*
G54D191*X52019Y114478D02*Y114440D01*
G54D190*Y113907D02*Y113335D01*
X52591Y114859D02*Y113526D01*
X52781Y113335D01*
X52400Y114288D02*X52781D01*
X53162Y114859D02*Y113526D01*
X53353Y113335D01*
X53924D02*X54496D01*
X53734Y113526D02*X53924Y113335D01*
X53734Y113907D02*Y113526D01*
Y113907D02*X53924Y114097D01*
X54305D01*
X54496Y113907D01*
X53734Y113716D02*X54496D01*
Y113907D02*Y113716D01*
X54953Y114288D02*X55143D01*
X54953Y113907D02*X55143D01*
X56286Y113526D02*X56477Y113335D01*
X56286Y114669D02*X56477Y114859D01*
X56286Y114669D02*Y113526D01*
X56934Y114097D02*Y113526D01*
X57125Y113335D01*
X57506D01*
X57696Y113526D01*
Y114097D02*Y113526D01*
X58344Y113907D02*Y113335D01*
Y113907D02*X58534Y114097D01*
X58725D01*
X58915Y113907D01*
Y113335D01*
X58153Y114097D02*X58344Y113907D01*
X59373Y114859D02*Y113335D01*
Y113907D02*X59944Y113335D01*
X59373Y113907D02*X59754Y114288D01*
X60592Y113907D02*Y113335D01*
Y113907D02*X60782Y114097D01*
X60973D01*
X61163Y113907D01*
Y113335D01*
X60401Y114097D02*X60592Y113907D01*
X61620D02*Y113526D01*
Y113907D02*X61811Y114097D01*
X62192D01*
X62382Y113907D01*
Y113526D01*
X62192Y113335D02*X62382Y113526D01*
X61811Y113335D02*X62192D01*
X61620Y113526D02*X61811Y113335D01*
X62840Y114097D02*Y113526D01*
X63030Y113335D01*
X63221D01*
X63411Y113526D01*
Y114097D02*Y113526D01*
X63602Y113335D01*
X63792D01*
X63983Y113526D01*
Y114097D02*Y113526D01*
X64630Y113907D02*Y113335D01*
Y113907D02*X64821Y114097D01*
X65011D01*
X65202Y113907D01*
Y113335D01*
X64440Y114097D02*X64630Y113907D01*
X65659Y114859D02*X65850Y114669D01*
Y113526D01*
X65659Y113335D02*X65850Y113526D01*
X66993Y114097D02*X67755D01*
X68898Y114859D02*Y113335D01*
Y114859D02*X69660D01*
X68898Y114173D02*X69469D01*
X70688Y114097D02*X70879Y113907D01*
X70307Y114097D02*X70688D01*
X70117Y113907D02*X70307Y114097D01*
X70117Y113907D02*Y113526D01*
X70307Y113335D01*
X70879Y114097D02*Y113526D01*
X71069Y113335D01*
X70307D02*X70688D01*
X70879Y113526D01*
X71526Y114859D02*Y113335D01*
Y113526D02*X71717Y113335D01*
X72098D01*
X72288Y113526D01*
Y113907D02*Y113526D01*
X72098Y114097D02*X72288Y113907D01*
X71717Y114097D02*X72098D01*
X71526Y113907D02*X71717Y114097D01*
X72936Y113907D02*Y113335D01*
Y113907D02*X73127Y114097D01*
X73508D01*
X72746D02*X72936Y113907D01*
G54D191*X73965Y114478D02*Y114440D01*
G54D190*Y113907D02*Y113335D01*
X74536Y114097D02*X75108D01*
X74346Y113907D02*X74536Y114097D01*
X74346Y113907D02*Y113526D01*
X74536Y113335D01*
X75108D01*
X76137Y114097D02*X76327Y113907D01*
X75756Y114097D02*X76137D01*
X75565Y113907D02*X75756Y114097D01*
X75565Y113907D02*Y113526D01*
X75756Y113335D01*
X76327Y114097D02*Y113526D01*
X76518Y113335D01*
X75756D02*X76137D01*
X76327Y113526D01*
X77165Y114859D02*Y113526D01*
X77356Y113335D01*
X76975Y114288D02*X77356D01*
G54D191*X77737Y114478D02*Y114440D01*
G54D190*Y113907D02*Y113335D01*
X78118Y113907D02*Y113526D01*
Y113907D02*X78308Y114097D01*
X78689D01*
X78880Y113907D01*
Y113526D01*
X78689Y113335D02*X78880Y113526D01*
X78308Y113335D02*X78689D01*
X78118Y113526D02*X78308Y113335D01*
X79527Y113907D02*Y113335D01*
Y113907D02*X79718Y114097D01*
X79908D01*
X80099Y113907D01*
Y113335D01*
X79337Y114097D02*X79527Y113907D01*
X81432Y114859D02*Y113335D01*
X81928Y114859D02*X82194Y114592D01*
Y113602D01*
X81928Y113335D02*X82194Y113602D01*
X81242Y113335D02*X81928D01*
X81242Y114859D02*X81928D01*
X82842Y113907D02*Y113335D01*
Y113907D02*X83033Y114097D01*
X83414D01*
X82652D02*X82842Y113907D01*
X84442Y114097D02*X84633Y113907D01*
X84061Y114097D02*X84442D01*
X83871Y113907D02*X84061Y114097D01*
X83871Y113907D02*Y113526D01*
X84061Y113335D01*
X84633Y114097D02*Y113526D01*
X84823Y113335D01*
X84061D02*X84442D01*
X84633Y113526D01*
X85281Y114097D02*Y113526D01*
X85471Y113335D01*
X85662D01*
X85852Y113526D01*
Y114097D02*Y113526D01*
X86043Y113335D01*
X86233D01*
X86424Y113526D01*
Y114097D02*Y113526D01*
G54D191*X86881Y114478D02*Y114440D01*
G54D190*Y113907D02*Y113335D01*
X87452Y113907D02*Y113335D01*
Y113907D02*X87643Y114097D01*
X87833D01*
X88024Y113907D01*
Y113335D01*
X87262Y114097D02*X87452Y113907D01*
X89052Y114097D02*X89243Y113907D01*
X88671Y114097D02*X89052D01*
X88481Y113907D02*X88671Y114097D01*
X88481Y113907D02*Y113526D01*
X88671Y113335D01*
X89052D01*
X89243Y113526D01*
X88481Y112954D02*X88671Y112764D01*
X89052D01*
X89243Y112954D01*
Y114097D02*Y112954D01*
M02*
